<?xml version="1.0" standalone="no"?>
<!DOCTYPE svg PUBLIC "-//W3C//DTD SVG 20010904//EN"
 "http://www.w3.org/TR/2001/REC-SVG-20010904/DTD/svg10.dtd">
<svg version="1.0" xmlns="http://www.w3.org/2000/svg"
 width="500.000000pt" height="500.000000pt" viewBox="0 0 500.000000 500.000000"
 preserveAspectRatio="xMidYMid meet">
<metadata>
Created by potrace 1.11, written by Peter Selinger 2001-2013
</metadata>
<g transform="translate(0.000000,500.000000) scale(0.100000,-0.100000)"
fill="#000000" stroke="none">
<path d="M0 2500 l0 -2500 2500 0 2500 0 0 2500 0 2500 -2500 0 -2500 0 0
-2500z m2318 1873 c1 -62 -1 -113 -5 -113 -37 0 -222 -34 -276 -50 -73 -22
-136 -70 -164 -124 -45 -85 -46 -110 -50 -779 l-4 -639 23 7 c45 14 170 86
246 142 96 71 516 490 684 683 322 370 448 541 448 610 0 76 -95 121 -313 145
l-58 7 3 111 3 112 788 3 787 2 0 -115 c0 -63 -3 -115 -7 -115 -35 0 -334 -54
-392 -70 -142 -40 -262 -105 -404 -219 -95 -77 -997 -1013 -997 -1036 0 -15
462 -648 809 -1110 277 -367 522 -682 610 -784 108 -124 230 -188 419 -221
l72 -13 0 -114 0 -113 -599 0 -600 0 -329 452 c-181 249 -447 620 -592 823
-326 458 -362 507 -405 540 -51 38 -115 65 -157 65 l-38 0 0 -617 c0 -781 6
-840 95 -922 52 -48 121 -71 288 -96 l117 -18 0 -113 0 -114 -910 0 -910 0 0
114 0 113 92 12 c277 35 354 86 395 257 15 62 17 205 20 1324 4 1269 -1 1534
-31 1633 -42 139 -140 191 -418 222 l-58 6 0 115 0 114 908 -2 907 -3 3 -112z"/>
</g>
</svg>
