<svg xmlns="http://www.w3.org/2000/svg" viewBox="0 0 16.706 21.07">
  <path d="M28.708,17.374,27.767,5.518A1.482,1.482,0,0,0,26.3,4.155H24.438V4.072a4.073,4.073,0,1,0-8.146,0v.084H14.434a1.481,1.481,0,0,0-1.471,1.361l-.941,11.86a3.431,3.431,0,0,0,3.421,3.693h9.845a3.431,3.431,0,0,0,3.421-3.695ZM17.526,4.072a2.839,2.839,0,0,1,5.677,0v.084H17.526ZM26.9,19.131a2.174,2.174,0,0,1-1.611.7H15.443a2.2,2.2,0,0,1-2.19-2.362l.941-11.861a.242.242,0,0,1,.24-.223h1.859V6.566A.636.636,0,1,0,16.3,7.838h1.091a.636.636,0,0,0,.134-1.257V5.39H23.2V6.574a.634.634,0,0,0,.1,1.262h1.091a.634.634,0,0,0,.047-1.267V5.389H26.3a.242.242,0,0,1,.24.224l.941,11.856a2.174,2.174,0,0,1-.579,1.662Z" transform="translate(-12.012 0.001)"/>
</svg>
