<svg xmlns="http://www.w3.org/2000/svg" viewBox="0 0 110.479 116.099"><title>cog</title><path d="M58.15,35.95a22.5,22.5,0,1,0,22.5,22.5A22.5,22.5,0,0,0,58.15,35.95Zm0,38a15.5,15.5,0,1,1,15.5-15.5A15.5,15.5,0,0,1,58.15,73.95ZM106.739,66l-3.6-2.284a45.524,45.524,0,0,0,.509-6.761c0-1.171-.061-2.326-.149-3.475l3.508-1.823A11,11,0,0,0,111.7,36.818L105.238,24.4A11,11,0,0,0,90.4,19.71L86.767,21.6a45.491,45.491,0,0,0-10.9-6.559c.093.04.189.075.282.115V10.95a11,11,0,0,0-11-11h-14a11,11,0,0,0-11,11v4.207c.109-.047.221-.088.33-.134a45.463,45.463,0,0,0-10.615,6.31l-3.419-1.861C20.656,16.32,13.607,18.09,10.7,23.426l-6.694,12.3c-2.9,5.335-.565,12.216,5.226,15.369l3.6,1.961c-.111,1.287-.187,2.583-.187,3.9a45.547,45.547,0,0,0,.518,6.824L9.643,65.938c-6,3.68-8.281,10.861-5.1,16.039l7.323,11.932c3.178,5.177,10.616,6.391,16.612,2.711l3.762-2.309a45.449,45.449,0,0,0,8.007,4.443l-.054,3.847c-.1,7.231,4.738,13.163,10.813,13.249l14,.2c6.075.086,11.082-5.706,11.185-12.938l.063-4.437a45.452,45.452,0,0,0,7.869-4.4l3.328,2.112c6.02,3.822,13.541,2.763,16.8-2.366l7.5-11.819C115,77.074,112.76,69.818,106.739,66Zm-11.4,27.112-5.978-3.8h0l-6.086-3.864a37.972,37.972,0,0,1-13.949,7.82l-.111,7.824h0l-.1,7.014-22-.312.094-6.676h0l.11-7.743a37.949,37.949,0,0,1-14.182-7.831l-6.495,3.987h0l-5.861,3.6L9.275,74.377l5.86-3.6h0l6.337-3.889a38.061,38.061,0,0,1-.58-17.423l-6.544-3.563h0L8.755,42.86,19.274,23.538l5.593,3.045h0l6.427,3.5A37.987,37.987,0,0,1,47.15,20.574V8.027h22V20.574A37.988,37.988,0,0,1,85.218,30.3l6.907-3.59h0l4.1-2.132,10.147,19.52-4.016,2.088h0l-6.894,3.583a38.026,38.026,0,0,1-.595,16.986l6.282,3.988h0l5.978,3.8Z" transform="translate(-2.76 0.05)"/></svg>