<svg 
	xmlns="http://www.w3.org/2000/svg" 
	xmlns:xlink="http://www.w3.org/1999/xlink" 
	viewBox="0 0 16 16">
	<defs>
		<path id="a" d="M3.05 4a2.5 2.5 0 0 1 4.9 0h7.55a.5.5 0 1 1 0 1H7.95a2.5 2.5 0 0 1-4.9 0H.5a.5.5 0 0 1 0-1h2.55zm7.45 10a2.5 2.5 0 0 1-2.45-2H.5a.5.5 0 1 1 0-1h7.55a2.5 2.5 0 0 1 4.9 0h2.55a.5.5 0 1 1 0 1h-2.55a2.5 2.5 0 0 1-2.45 2z">
		</path>
	</defs>
	<g fill="none" fill-rule="evenodd">
		<mask id="b" fill="#fff">
			<use xlink:href="#a"></use>
		</mask>
		<use fill="#fff" xlink:href="#a"></use>
	</g>
</svg>