<svg 
	xmlns="http://www.w3.org/2000/svg" 
	xmlns:xlink="http://www.w3.org/1999/xlink" 
	viewBox="0 0 512.002 512.002" 
>
		<path d="M492.713,189.381l-0.767-0.756c-9.273-9.135-14.061-21.82-13.137-34.805l0.08-1.126
			c2.154-30.254-16.623-57.498-45.664-66.252l-0.479-0.144c-12.545-3.782-22.727-12.845-27.935-24.86l-0.241-0.557
			c-5.823-13.435-16.169-24.586-29.13-31.4c-12.962-6.814-28.013-9.01-42.427-6.184c-12.926,2.538-26.216-0.754-36.498-9.056
			l-0.048-0.039C273.021-4.729,238.982-4.73,215.57,14.174l-0.117,0.094c-10.25,8.273-23.54,11.561-36.373,9.046
			c-0.03-0.006-0.11-0.022-0.141-0.029c-14.365-2.818-29.418-0.621-42.379,6.192s-23.305,17.962-29.133,31.4l-0.241,0.557
			c-5.211,12.018-15.393,21.08-27.93,24.86l-0.482,0.146c-29.038,8.755-47.815,35.999-45.661,66.249l0.08,1.133
			c0.925,12.983-3.863,25.668-13.14,34.806l-0.761,0.75c-21.508,21.185-25.478,53.94-9.656,79.652l0.648,1.053
			c6.811,11.068,8.434,24.511,4.457,36.881l-0.385,1.196c-9.257,28.787,2.437,59.674,28.444,75.116l0.694,0.411
			c11.224,6.664,18.919,17.865,21.113,30.736l0.151,0.885c2.453,14.396,9.821,27.664,20.746,37.357
			c10.924,9.694,24.972,15.432,39.561,16.156l0.235,0.012c13.124,0.652,25.211,7.026,33.151,17.472l0.204,0.271
			c8.876,11.678,21.607,20.045,35.848,23.56c5.058,1.249,10.232,1.866,15.397,1.866c9.378,0,18.727-2.037,27.298-6.04
			c0.028-0.013,0.056-0.026,0.084-0.04c11.927-5.539,25.596-5.526,37.512,0.038c13.294,6.209,28.457,7.692,42.698,4.173
			c14.242-3.516,26.973-11.884,35.853-23.569l0.181-0.238c7.952-10.465,20.041-16.84,33.198-17.492l0.209-0.012
			c14.586-0.725,28.636-6.462,39.56-16.155c10.925-9.694,18.292-22.961,20.746-37.355l0.151-0.889
			c2.194-12.869,9.89-24.07,21.109-30.731l0.703-0.417c26.002-15.437,37.696-46.326,28.439-75.113l-0.385-1.196
			c-3.978-12.37-2.353-25.813,4.457-36.88l0.648-1.054C518.188,243.319,514.218,210.565,492.713,189.381z M485.338,258.552
			l-0.648,1.055c-9.876,16.049-12.23,35.541-6.462,53.479l0.385,1.196c6.384,19.852-1.682,41.153-19.609,51.797l-0.702,0.417
			c-16.276,9.662-27.435,25.906-30.616,44.564l-0.151,0.889c-3.527,20.688-20.629,35.863-41.62,36.905l-0.209,0.012
			c-19.034,0.945-36.563,10.189-48.096,25.367l-0.182,0.238c-12.566,16.539-35.349,22.161-54.168,13.374
			c-17.323-8.089-37.191-8.089-54.514,0c-0.028,0.013-0.057,0.026-0.084,0.04c-18.804,8.731-41.535,3.101-54.073-13.392l-0.204-0.27
			c-11.53-15.171-29.058-24.413-48.089-25.358l-0.235-0.012c-20.96-1.042-38.062-16.218-41.589-36.907l-0.151-0.885
			c-3.181-18.66-14.341-34.904-30.62-44.569l-0.693-0.411c-17.932-10.646-25.998-31.947-19.614-51.799l0.385-1.196
			c5.769-17.938,3.414-37.43-6.462-53.48l-0.648-1.054c-10.912-17.73-8.173-40.319,6.662-54.932l0.761-0.75
			c13.447-13.246,20.39-31.641,19.049-50.463l-0.08-1.133c-1.484-20.863,11.463-39.652,31.485-45.689l0.482-0.146
			c18.185-5.482,32.95-18.622,40.508-36.055l0.241-0.557c7.107-16.39,23.502-26.752,40.859-26.752c2.774,0,5.575,0.265,8.364,0.813
			c0.03,0.006,0.11,0.023,0.141,0.029c18.743,3.676,38.012-1.093,52.838-13.063l0.118-0.094
			c16.169-13.056,39.642-13.057,55.848,0.028l0.049,0.039c14.86,11.996,34.133,16.769,52.918,13.082
			c20.333-3.994,41.073,6.912,49.314,25.919l0.241,0.557c7.556,17.432,22.321,30.573,40.511,36.058l0.479,0.144
			c20.027,6.038,32.976,24.825,31.491,45.693l-0.08,1.126c-1.342,18.826,5.602,37.22,19.046,50.464l0.767,0.756
			C493.512,218.232,496.25,240.82,485.338,258.552z"/>
		<path d="M263.07,358.859c-1.858-1.86-4.438-2.929-7.067-2.929c-2.629,0-5.208,1.069-7.068,2.929
			c-1.859,1.86-2.929,4.439-2.929,7.068c0,2.629,1.069,5.208,2.929,7.067c1.859,1.859,4.439,2.93,7.068,2.93
			c2.629,0,5.208-1.07,7.067-2.93c1.859-1.858,2.93-4.438,2.93-7.067C266,363.297,264.93,360.718,263.07,358.859z"/>
		<path d="M347.974,187.982h-33.059c5.026-4.474,8.697-10.397,10.469-17.232c3.119-12.038-0.269-24.475-9.061-33.269
			c-8.819-8.819-21.289-12.198-33.354-9.039c-12.065,3.159-21.278,12.214-24.644,24.222l-2.32,8.278l-2.32-8.278
			c-3.366-12.009-12.579-21.064-24.644-24.222c-12.065-3.159-24.533,0.221-33.354,9.039c-8.793,8.793-12.181,21.23-9.061,33.269
			c1.771,6.834,5.441,12.758,10.469,17.232h-33.063c-5.52,0-9.997,4.476-9.997,9.997v47.985c0,5.521,4.477,9.997,9.997,9.997h1.999
			v109.966c0,5.52,4.477,9.997,9.997,9.997h40.987c5.52,0,9.997-4.477,9.997-9.997s-4.477-9.997-9.997-9.997h-30.99v-99.969h139.956
			v99.969h-31.99c-5.52,0-9.997,4.477-9.997,9.997s4.477,9.997,9.997,9.997h41.987c5.52,0,9.997-4.477,9.997-9.997V255.961h1.999
			c5.52,0,9.997-4.476,9.997-9.997v-47.985C357.971,192.457,353.495,187.982,347.974,187.982z M277.575,158.061
			c1.429-5.095,5.337-8.937,10.457-10.278c1.264-0.331,2.536-0.493,3.794-0.493c3.842,0,7.54,1.51,10.358,4.329
			c3.731,3.731,5.168,9.008,3.845,14.116c-1.323,5.107-5.142,9.022-10.216,10.473l-25.355,7.245L277.575,158.061z M209.822,151.619
			c2.818-2.819,6.517-4.329,10.358-4.329c1.258,0,2.531,0.162,3.794,0.493c5.119,1.341,9.028,5.182,10.457,10.278l7.118,25.39
			l-25.355-7.245c-5.073-1.45-8.893-5.364-10.216-10.473C204.654,160.627,206.091,155.35,209.822,151.619z M337.977,235.967h-1.999
			h-159.95h-1.999v-27.991h163.949V235.967z"/>
</svg>
