<svg 
	xmlns="http://www.w3.org/2000/svg" 
	xmlns:xlink="http://www.w3.org/1999/xlink" 
	viewBox="0 0 512 512" 
>
	<path d="M256,0C160.01,0,81.92,78.09,81.92,174.08c0,104.53,159.027,324.383,165.806,333.701c1.905,2.642,4.997,4.219,8.274,4.219
		c3.277,0,6.369-1.577,8.274-4.219c6.779-9.318,165.806-229.171,165.806-333.701C430.08,78.09,351.99,0,256,0z M256,245.76
		c-39.526,0-71.68-32.154-71.68-71.68c0-39.526,32.154-71.68,71.68-71.68s71.68,32.154,71.68,71.68
		C327.68,213.606,295.526,245.76,256,245.76z"/>
</svg>
