<?xml version="1.0" encoding="UTF-8" standalone="no"?>
<svg
   xmlns:dc="http://purl.org/dc/elements/1.1/"
   xmlns:cc="http://creativecommons.org/ns#"
   xmlns:rdf="http://www.w3.org/1999/02/22-rdf-syntax-ns#"
   xmlns:svg="http://www.w3.org/2000/svg"
   xmlns="http://www.w3.org/2000/svg"
   height="30.000195"
   width="133.70428"
   id="svg35"
   version="1.1"
   viewBox="516 2655 133.70429 30.000195">
  <metadata
     id="metadata39">
    <rdf:RDF>
      <cc:Work
         rdf:about="">
        <dc:format>image/svg+xml</dc:format>
        <dc:type
           rdf:resource="http://purl.org/dc/dcmitype/StillImage" />
        <dc:title></dc:title>
      </cc:Work>
    </rdf:RDF>
  </metadata>
  <defs
     id="defs4">
    <style
       id="style2">
      .cls-1 {
        fill: #ffb600;
      }

      .cls-2 {
        fill: #f7981d;
      }

      .cls-3 {
        fill: #ff8500;
      }

      .cls-4 {
        fill: #ff5050;
      }

      .cls-5 {
        fill: #e52836;
      }

      .cls-6 {
        fill: #cb2026;
      }

      .cls-7 {
        fill: #fff;
      }

      .cls-8 {
        fill: #dce5e5;
      }
    </style>
  </defs>
  <g
     transform="translate(516.07658,2554.2)"
     id="mastercard">
    <path
       style="fill:#ffb600"
       transform="translate(-181.6)"
       d="m 231.6,115.8 a 15,15 0 0 1 -30,0 v 0 a 15,15 0 1 1 30,0 z"
       class="cls-1"
       data-name="Path 46"
       id="Path_46" />
    <path
       style="fill:#f7981d"
       transform="translate(-181.6)"
       d="m 216.6,100.8 a 15.039,15.039 0 0 1 15,15 v 0 a 15,15 0 1 1 -30,0"
       class="cls-2"
       data-name="Path 47"
       id="Path_47" />
    <path
       style="fill:#ff8500"
       transform="translate(-317.8)"
       d="m 352.8,100.8 a 15.039,15.039 0 0 1 15,15 v 0 a 14.988,14.988 0 0 1 -15,15"
       class="cls-3"
       data-name="Path 48"
       id="Path_48" />
    <path
       style="fill:#ff5050"
       d="m 14.841,100.8 a 15.000211,15.000211 0 0 0 0.159,30 15.175,15.175 0 0 0 10.079,-3.889 v 0 a 14.262,14.262 0 0 0 1.508,-1.587 h -3.1 a 18.307,18.307 0 0 1 -1.111,-1.508 H 27.7 a 10.167,10.167 0 0 0 0.873,-1.587 h -7.065 a 9.459,9.459 0 0 1 -0.635,-1.587 h 8.254 A 15.759,15.759 0 0 0 29.921,115.88 20.486,20.486 0 0 0 29.6,112.7 h -9.2 a 11.6,11.6 0 0 1 0.4,-1.587 h 8.254 a 9.459,9.459 0 0 0 -0.635,-1.587 h -6.99 a 15.739,15.739 0 0 1 0.873,-1.587 h 5.317 a 7.547,7.547 0 0 0 -1.19,-1.587 H 23.492 A 13.528,13.528 0 0 1 25,104.848 14.645,14.645 0 0 0 14.921,100.959 c 0,-0.159 0,-0.159 -0.08,-0.159 z"
       class="cls-4"
       data-name="Path 49"
       id="Path_49" />
    <path
       style="fill:#e52836"
       transform="translate(0,-1.441)"
       d="m 0,117.241 a 14.988,14.988 0 0 0 15,15 15.175,15.175 0 0 0 10.079,-3.889 v 0 a 14.261,14.261 0 0 0 1.508,-1.587 h -3.1 a 18.311,18.311 0 0 1 -1.111,-1.508 H 27.7 a 10.167,10.167 0 0 0 0.873,-1.587 h -7.065 a 9.459,9.459 0 0 1 -0.635,-1.587 h 8.254 a 15.759,15.759 0 0 0 0.794,-4.762 20.486,20.486 0 0 0 -0.317,-3.175 H 20.4 a 11.6,11.6 0 0 1 0.4,-1.587 h 8.254 a 9.459,9.459 0 0 0 -0.635,-1.587 h -6.99 a 15.739,15.739 0 0 1 0.873,-1.587 h 5.317 a 7.548,7.548 0 0 0 -1.19,-1.587 H 23.492 A 13.528,13.528 0 0 1 25,106.289 14.645,14.645 0 0 0 14.921,102.4 h -0.079"
       class="cls-5"
       data-name="Path 50"
       id="Path_50" />
    <path
       style="fill:#cb2026"
       transform="translate(-134.759,-1.441)"
       d="m 149.759,132.241 a 15.175,15.175 0 0 0 10.079,-3.889 v 0 a 14.26,14.26 0 0 0 1.508,-1.587 h -3.1 a 18.311,18.311 0 0 1 -1.111,-1.508 h 5.317 a 10.167,10.167 0 0 0 0.873,-1.587 h -7.063 a 9.458,9.458 0 0 1 -0.635,-1.587 h 8.254 a 15.759,15.759 0 0 0 0.794,-4.762 20.487,20.487 0 0 0 -0.317,-3.175 h -9.206 a 11.606,11.606 0 0 1 0.4,-1.587 h 8.254 a 9.459,9.459 0 0 0 -0.635,-1.587 h -6.984 a 15.737,15.737 0 0 1 0.873,-1.587 h 5.317 a 7.548,7.548 0 0 0 -1.19,-1.587 h -2.937 a 13.527,13.527 0 0 1 1.508,-1.508 14.645,14.645 0 0 0 -10.079,-3.889 H 149.6"
       class="cls-6"
       data-name="Path 51"
       id="Path_51" />
    <g
       transform="translate(1.429,111.911)"
       data-name="Group 13"
       id="Group_13">
      <path
         style="fill:#ffffff"
         transform="translate(-165.013,-219.286)"
         d="m 183.9,226.984 0.238,-1.349 a 3.438,3.438 0 0 1 -0.4,0.079 c -0.556,0 -0.635,-0.317 -0.556,-0.476 l 0.476,-2.778 h 0.873 l 0.238,-1.508 h -0.794 L 184.134,220 h -1.587 c 0,0 -0.952,5.238 -0.952,5.873 a 1.191,1.191 0 0 0 1.27,1.349 2.436,2.436 0 0 0 1.035,-0.238 z"
         class="cls-7"
         data-name="Path 52"
         id="Path_52" />
      <path
         style="fill:#ffffff"
         transform="translate(-190.956,-227.121)"
         d="m 210.4,232.28 a 2.524,2.524 0 0 0 2.778,2.778 4.121,4.121 0 0 0 1.667,-0.238 l 0.317,-1.508 a 4.758,4.758 0 0 1 -1.667,0.4 c -1.746,0 -1.429,-1.27 -1.429,-1.27 h 3.254 a 10.291,10.291 0 0 0 0.238,-1.429 2.15,2.15 0 0 0 -2.3,-2.3 C 211.59,228.55 210.4,230.3 210.4,232.28 Z m 2.778,-2.3 c 0.873,0 0.714,1.032 0.714,1.111 h -1.746 c 0,-0.081 0.154,-1.112 1.032,-1.112 z"
         class="cls-7"
         data-name="Path 53"
         id="Path_53" />
      <path
         style="fill:#ffffff"
         transform="translate(-268.064,-212.8)"
         d="m 300.365,220.5 0.317,-1.746 a 3.9,3.9 0 0 1 -1.349,0.4 c -1.111,0 -1.587,-0.873 -1.587,-1.825 0,-1.9 0.952,-2.937 2.063,-2.937 a 2.65,2.65 0 0 1 1.429,0.476 l 0.238,-1.667 a 5.58,5.58 0 0 0 -1.825,-0.4 c -1.825,0 -3.651,1.587 -3.651,4.6 0,1.984 0.952,3.333 2.857,3.333 a 7.123,7.123 0 0 0 1.508,-0.234 z"
         class="cls-7"
         data-name="Path 54"
         id="Path_54" />
      <path
         style="fill:#ffffff"
         transform="translate(-79.257,-225.771)"
         d="m 89.416,227.2 a 5.621,5.621 0 0 0 -1.9,0.317 l -0.238,1.349 a 4.691,4.691 0 0 1 1.746,-0.317 c 0.556,0 1.032,0.079 1.032,0.556 0,0.317 -0.079,0.4 -0.079,0.4 h -0.714 c -1.349,0 -2.857,0.556 -2.857,2.381 0,1.429 0.952,1.746 1.508,1.746 a 2.385,2.385 0 0 0 1.667,-0.714 l -0.079,0.635 h 1.429 l 0.635,-4.365 a 1.881,1.881 0 0 0 -2.15,-1.988 z m 0.317,3.571 c 0,0.238 -0.159,1.508 -1.111,1.508 a 0.619,0.619 0 0 1 -0.635,-0.635 c 0,-0.4 0.238,-0.952 1.429,-0.952 a 1.251,1.251 0 0 0 0.317,0.079 z"
         class="cls-7"
         data-name="Path 55"
         id="Path_55" />
      <path
         style="fill:#ffffff"
         transform="translate(-123.216,-225.051)"
         d="m 137.025,232.908 a 2.034,2.034 0 0 0 2.381,-2.063 c 0,-1.984 -1.9,-1.587 -1.9,-2.381 0,-0.4 0.317,-0.556 0.873,-0.556 0.238,0 1.111,0.079 1.111,0.079 l 0.238,-1.429 a 6.028,6.028 0 0 0 -1.508,-0.159 c -1.19,0 -2.381,0.476 -2.381,2.063 0,1.825 1.984,1.667 1.984,2.381 0,0.476 -0.556,0.556 -0.952,0.556 a 5.19,5.19 0 0 1 -1.429,-0.238 l -0.238,1.429 c 0.075,0.159 0.472,0.318 1.821,0.318 z"
         class="cls-7"
         data-name="Path 56"
         id="Path_56" />
      <path
         style="fill:#ffffff"
         transform="translate(-386.248,-214.241)"
         d="m 431.724,214.4 -0.317,2.143 a 2.2,2.2 0 0 0 -1.508,-0.794 c -1.429,0 -2.7,1.746 -2.7,3.81 0,1.27 0.635,2.619 1.984,2.619 a 2.119,2.119 0 0 0 1.508,-0.635 l -0.079,0.556 h 1.588 l 1.19,-7.619 z m -0.714,4.206 c 0,0.873 -0.4,1.984 -1.27,1.984 -0.556,0 -0.873,-0.476 -0.873,-1.27 0,-1.27 0.556,-2.063 1.27,-2.063 0.555,0 0.872,0.397 0.872,1.349 z"
         class="cls-7"
         data-name="Path 57"
         id="Path_57" />
      <path
         style="fill:#ffffff"
         transform="translate(-14.4,-214.241)"
         d="m 15.908,222.019 0.952,-5.714 0.159,5.714 h 1.111 l 2.063,-5.714 -0.873,5.714 h 1.667 l 1.27,-7.619 h -2.619 l -1.587,4.683 -0.079,-4.683 h -2.3 l -1.27,7.619 z"
         class="cls-7"
         data-name="Path 58"
         id="Path_58" />
      <path
         style="fill:#ffffff"
         transform="translate(-235.635,-227.213)"
         d="m 261.746,234.99 c 0.476,-2.619 0.556,-4.762 1.667,-4.365 a 6.228,6.228 0 0 1 0.556,-1.825 h -0.317 c -0.714,0 -1.27,0.952 -1.27,0.952 l 0.159,-0.873 h -1.508 L 260,235.07 h 1.746 z"
         class="cls-7"
         data-name="Path 59"
         id="Path_59" />
      <path
         style="fill:#ffffff"
         transform="translate(-313.464,-225.771)"
         d="m 349.416,227.2 a 5.621,5.621 0 0 0 -1.9,0.317 l -0.238,1.349 a 4.691,4.691 0 0 1 1.746,-0.317 c 0.556,0 1.032,0.079 1.032,0.556 0,0.317 -0.079,0.4 -0.079,0.4 h -0.714 c -1.349,0 -2.857,0.556 -2.857,2.381 0,1.429 0.952,1.746 1.508,1.746 a 2.385,2.385 0 0 0 1.667,-0.714 l -0.079,0.635 h 1.429 l 0.635,-4.365 a 1.853,1.853 0 0 0 -2.15,-1.988 z m 0.4,3.571 c 0,0.238 -0.159,1.508 -1.111,1.508 a 0.619,0.619 0 0 1 -0.635,-0.635 c 0,-0.4 0.238,-0.952 1.429,-0.952 0.234,0.079 0.234,0.079 0.314,0.079 z"
         class="cls-7"
         data-name="Path 60"
         id="Path_60" />
      <path
         style="fill:#ffffff"
         transform="translate(-356.702,-227.213)"
         d="m 396.146,234.99 c 0.476,-2.619 0.556,-4.762 1.667,-4.365 a 6.229,6.229 0 0 1 0.556,-1.825 h -0.317 c -0.714,0 -1.27,0.952 -1.27,0.952 l 0.159,-0.873 h -1.508 l -1.032,6.19 h 1.746 z"
         class="cls-7"
         data-name="Path 61"
         id="Path_61" />
    </g>
    <g
       transform="translate(1.429,111.911)"
       data-name="Group 14"
       id="Group_14">
      <path
         style="fill:#dce5e5"
         transform="translate(-163.571,-219.286)"
         d="m 180,225.873 a 1.191,1.191 0 0 0 1.27,1.349 3.021,3.021 0 0 0 1.19,-0.238 l 0.238,-1.349 a 3.437,3.437 0 0 1 -0.4,0.079 c -0.556,0 -0.635,-0.317 -0.556,-0.476 l 0.476,-2.778 h 0.873 l 0.238,-1.508 h -0.794 L 182.7,220"
         class="cls-8"
         data-name="Path 62"
         id="Path_62" />
      <path
         style="fill:#dce5e5"
         transform="translate(-198.162,-227.121)"
         d="m 218.4,232.28 c 0,2.222 0.714,2.778 1.984,2.778 a 4.121,4.121 0 0 0 1.667,-0.238 l 0.317,-1.508 a 4.758,4.758 0 0 1 -1.667,0.4 c -1.746,0 -1.429,-1.27 -1.429,-1.27 h 3.254 a 10.291,10.291 0 0 0 0.238,-1.429 2.15,2.15 0 0 0 -2.3,-2.3 C 218.8,228.55 218.4,230.3 218.4,232.28 Z m 1.984,-2.3 c 0.873,0 1.032,1.032 1.032,1.111 h -2.063 c -0.001,-0.081 0.158,-1.112 1.031,-1.112 z"
         class="cls-8"
         data-name="Path 63"
         id="Path_63" />
      <path
         style="fill:#dce5e5"
         transform="translate(-275.27,-212.8)"
         d="m 307.571,220.5 0.317,-1.746 a 3.9,3.9 0 0 1 -1.349,0.4 c -1.111,0 -1.587,-0.873 -1.587,-1.825 0,-1.9 0.952,-2.937 2.063,-2.937 a 2.65,2.65 0 0 1 1.429,0.476 l 0.238,-1.667 a 5.58,5.58 0 0 0 -1.825,-0.4 c -1.825,0 -2.857,1.587 -2.857,4.6 0,1.984 0.159,3.333 2.064,3.333 a 7.123,7.123 0 0 0 1.507,-0.234 z"
         class="cls-8"
         data-name="Path 64"
         id="Path_64" />
      <path
         style="fill:#dce5e5"
         transform="translate(-79.257,-227.213)"
         d="m 87.273,230.387 a 4.691,4.691 0 0 1 1.746,-0.317 c 0.556,0 1.032,0.079 1.032,0.556 0,0.317 -0.079,0.4 -0.079,0.4 h -0.714 c -1.349,0 -2.857,0.556 -2.857,2.381 0,1.429 0.952,1.746 1.508,1.746 a 2.385,2.385 0 0 0 1.667,-0.714 l -0.079,0.635 h 1.429 l 0.635,-4.365 c 0,-1.825 -1.587,-1.9 -2.222,-1.9 m 1.19,3.413 a 2.6,2.6 0 0 1 -1.9,1.508 0.619,0.619 0 0 1 -0.635,-0.635 c 0,-0.4 0.238,-0.952 1.429,-0.952 a 6.484,6.484 0 0 0 1.104,0.07 z"
         class="cls-8"
         data-name="Path 65"
         id="Path_65" />
      <path
         style="fill:#dce5e5"
         transform="translate(-123.937,-225.051)"
         d="m 136,232.749 a 6.717,6.717 0 0 0 1.825,0.159 2.034,2.034 0 0 0 2.381,-2.063 c 0,-1.984 -1.9,-1.587 -1.9,-2.381 0,-0.4 0.317,-0.556 0.873,-0.556 0.238,0 1.111,0.079 1.111,0.079 l 0.238,-1.429 a 6.028,6.028 0 0 0 -1.508,-0.159 c -1.19,0 -1.587,0.476 -1.587,2.063 0,1.825 1.19,1.667 1.19,2.381 0,0.476 -0.556,0.556 -0.952,0.556"
         class="cls-8"
         data-name="Path 66"
         id="Path_66" />
      <path
         style="fill:#dce5e5"
         transform="translate(-393.402,-214.962)"
         d="m 438.56,217.263 a 2.2,2.2 0 0 0 -1.508,-0.794 c -1.429,0 -1.9,1.746 -1.9,3.81 0,1.27 -0.159,2.619 1.19,2.619 a 2.119,2.119 0 0 0 1.508,-0.635 l -0.079,0.556 h 1.587 l 1.19,-7.619 m -2.063,4.127 c 0,0.873 -0.714,1.984 -1.587,1.984 -0.556,0 -0.873,-0.476 -0.873,-1.27 0,-1.27 0.556,-2.063 1.27,-2.063 a 1.213,1.213 0 0 1 1.186,1.349 z"
         class="cls-8"
         data-name="Path 67"
         id="Path_67" />
      <path
         style="fill:#dce5e5"
         transform="translate(-14.4,-214.241)"
         d="m 15.908,222.019 0.952,-5.714 0.159,5.714 h 1.111 l 2.063,-5.714 -0.873,5.714 h 1.667 l 1.27,-7.619 h -1.984 l -2.222,4.683 -0.079,-4.683 H 17.1 l -2.7,7.619 z"
         class="cls-8"
         data-name="Path 68"
         id="Path_68" />
      <path
         style="fill:#dce5e5"
         transform="translate(-236.356,-227.213)"
         d="m 260.8,234.99 h 1.667 c 0.476,-2.619 0.556,-4.762 1.667,-4.365 a 6.23,6.23 0 0 1 0.556,-1.825 h -0.317 c -0.714,0 -1.27,0.952 -1.27,0.952 l 0.159,-0.873"
         class="cls-8"
         data-name="Path 69"
         id="Path_69" />
      <path
         style="fill:#dce5e5"
         transform="translate(-313.464,-227.213)"
         d="m 347.273,230.387 a 4.692,4.692 0 0 1 1.746,-0.317 c 0.556,0 1.032,0.079 1.032,0.556 0,0.317 -0.079,0.4 -0.079,0.4 h -0.714 c -1.349,0 -2.857,0.556 -2.857,2.381 0,1.429 0.952,1.746 1.508,1.746 a 2.385,2.385 0 0 0 1.667,-0.714 l -0.079,0.635 h 1.429 l 0.635,-4.365 c 0,-1.825 -1.587,-1.9 -2.222,-1.9 m 1.19,3.413 a 2.6,2.6 0 0 1 -1.9,1.508 0.62,0.62 0 0 1 -0.635,-0.635 c 0,-0.4 0.238,-0.952 1.429,-0.952 a 6.982,6.982 0 0 0 1.104,0.07 z"
         class="cls-8"
         data-name="Path 70"
         id="Path_70" />
      <path
         style="fill:#dce5e5"
         transform="translate(-357.422,-227.213)"
         d="m 395.2,234.99 h 1.667 c 0.476,-2.619 0.556,-4.762 1.667,-4.365 a 6.229,6.229 0 0 1 0.556,-1.825 h -0.317 c -0.714,0 -1.27,0.952 -1.27,0.952 l 0.159,-0.873"
         class="cls-8"
         data-name="Path 71"
         id="Path_71" />
    </g>
  </g>
  <g
     transform="translate(569.81728,2557.2705)"
     id="visa">
    <g
       transform="translate(7.465,100.23)"
       data-name="Group 12"
       id="Group_12">
      <g
         data-name="Group 11"
         id="Group_11">
        <path
           style="fill:#2394bc"
           transform="translate(-27.262,-100.23)"
           d="m 52.451,100.23 -4.009,24.95 h 6.408 l 4.007,-24.95 z m 19.33,10.163 c -2.239,-1.106 -3.612,-1.852 -3.612,-2.983 0.027,-1.028 1.161,-2.082 3.692,-2.082 a 11.152,11.152 0 0 1 4.773,0.924 l 0.582,0.26 0.871,-5.22 a 16.175,16.175 0 0 0 -5.752,-1.028 c -6.329,0 -10.785,3.29 -10.812,8 -0.052,3.473 3.19,5.4 5.617,6.556 2.479,1.186 3.323,1.955 3.323,3.008 -0.027,1.618 -2,2.364 -3.849,2.364 A 13.033,13.033 0 0 1 60.6,118.9 l -0.844,-0.384 -0.9,5.425 a 20.013,20.013 0 0 0 7.147,1.288 c 6.726,0 11.1,-3.241 11.157,-8.256 0.026,-2.75 -1.684,-4.857 -5.378,-6.58 z m 22.735,-10.086 h -4.957 a 3.176,3.176 0 0 0 -3.35,2.007 l -9.52,22.866 h 6.726 l 1.852,-4.95 h 7.524 l 0.961,4.97 h 5.932 z m -7.385,14.926 c 0.13,0.013 2.581,-8.081 2.581,-8.081 l 1.952,8.081 z m -44.045,-15 -6.279,16.951 -0.684,-3.343 c -1.161,-3.857 -4.8,-8.049 -8.863,-10.131 l 5.749,21.447 h 6.781 l 10.076,-24.922 h -6.779 z"
           class="cls-1"
           data-name="Path 44"
           id="Path_44" />
      </g>
    </g>
    <path
       style="fill:#efc75e"
       transform="translate(0,-0.013)"
       d="m 14.215,103.461 a 4.187,4.187 0 0 0 -4.169,-3.213 H 0.1 L 0,100.71 c 7.757,1.912 14.267,7.8 16.379,13.331 z"
       class="cls-2"
       data-name="Path 45"
       id="Path_45" />
  </g>
</svg>
