<svg xmlns="http://www.w3.org/2000/svg" width="25" height="25" viewBox="0 0 25 25">
  <g id="viber" transform="translate(4.264 5.627)">
    <path id="Path_800" data-name="Path 800" d="M12.5,0H12.5A12.492,12.492,0,0,0,2.38,19.827L.822,24.47l4.8-1.536A12.5,12.5,0,1,0,12.5,0Z" transform="translate(-4.264 -5.627)" fill="#7d3daf"/>
    <path id="Path_695" data-name="Path 695" d="M159.39,152.448c-.252-.077-.493-.128-.716-.221a16.261,16.261,0,0,1-6.128-4.1,15.9,15.9,0,0,1-2.344-3.587c-.3-.611-.554-1.247-.813-1.878a1.629,1.629,0,0,1,.477-1.6,3.768,3.768,0,0,1,1.262-.948.81.81,0,0,1,1.013.24,13.069,13.069,0,0,1,1.568,2.194,1.044,1.044,0,0,1-.293,1.415c-.119.081-.227.175-.337.266a1.1,1.1,0,0,0-.255.268.735.735,0,0,0-.049.646,5.844,5.844,0,0,0,3.282,3.634,1.67,1.67,0,0,0,.841.2c.514-.06.681-.624,1.041-.919a.981.981,0,0,1,1.181-.052c.379.24.747.5,1.113.758a12.74,12.74,0,0,1,1.047.8.831.831,0,0,1,.249,1.028,3.477,3.477,0,0,1-1.494,1.646,3.6,3.6,0,0,1-.646.206C159.137,152.372,159.609,152.381,159.39,152.448Z" transform="translate(-147.474 -139.242)" fill="#fff"/>
    <path id="Path_696" data-name="Path 696" d="M221.865,131.457a5.7,5.7,0,0,1,5.608,4.717c.084.473.114.956.152,1.436a.337.337,0,0,1-.316.4c-.225,0-.326-.186-.341-.387-.029-.4-.049-.8-.1-1.2a5.017,5.017,0,0,0-4.04-4.193c-.313-.056-.634-.071-.951-.1-.2-.021-.463-.033-.508-.283a.343.343,0,0,1,.338-.386c.054,0,.109,0,.163,0C224.673,131.536,221.811,131.457,221.865,131.457Z" transform="translate(-212.838 -131.361)" fill="#fff"/>
    <path id="Path_697" data-name="Path 697" d="M232.323,155a1.287,1.287,0,0,1-.028.2.319.319,0,0,1-.6.033.849.849,0,0,1-.034-.271,3.4,3.4,0,0,0-.43-1.706A3.175,3.175,0,0,0,229.9,152a3.831,3.831,0,0,0-1.061-.326c-.16-.026-.322-.043-.482-.065a.306.306,0,0,1-.29-.343.3.3,0,0,1,.336-.3,4.414,4.414,0,0,1,1.84.479,3.72,3.72,0,0,1,2.025,2.891c.009.059.023.117.027.176.011.146.018.292.029.485C232.319,155.038,232.312,154.811,232.323,155Z" transform="translate(-219.035 -149.369)" fill="#fff"/>
    <path id="Path_698" data-name="Path 698" d="M235.7,173.4a.347.347,0,0,1-.385-.341,3.53,3.53,0,0,0-.066-.448,1.262,1.262,0,0,0-.466-.731,1.215,1.215,0,0,0-.379-.183c-.172-.05-.351-.036-.523-.078a.321.321,0,0,1-.261-.372.337.337,0,0,1,.356-.271,1.931,1.931,0,0,1,1.978,1.923.889.889,0,0,1,0,.272.279.279,0,0,1-.251.23C235.462,173.405,235.8,173.394,235.7,173.4Z" transform="translate(-224.161 -167.83)" fill="#fff"/>
  </g>
</svg>
