<svg 
	xmlns="http://www.w3.org/2000/svg" 
	xmlns:xlink="http://www.w3.org/1999/xlink" 
	viewBox="0 0 512 512" 
>
		<path d="M481.28,81.92H30.72C13.783,81.92,0,95.703,0,112.64v286.72c0,16.937,13.783,30.72,30.72,30.72h450.56
			c16.937,0,30.72-13.783,30.72-30.72V112.64C512,95.703,498.217,81.92,481.28,81.92z M491.52,399.36
			c0,5.632-4.608,10.24-10.24,10.24H30.72c-5.652,0-10.24-4.608-10.24-10.24V112.64c0-5.653,4.588-10.24,10.24-10.24h450.56
			c5.632,0,10.24,4.587,10.24,10.24V399.36z"/>
		<rect x="10.24" y="174.08" width="491.52" height="40.96"/>
		<path d="M501.76,163.84H10.24C4.588,163.84,0,168.427,0,174.08v40.96c0,5.653,4.588,10.24,10.24,10.24h491.52
			c5.652,0,10.24-4.587,10.24-10.24v-40.96C512,168.427,507.412,163.84,501.76,163.84z M491.52,204.8H20.48v-20.48h471.04V204.8z"/>
		<path d="M276.48,286.72H92.16c-5.652,0-10.24,4.588-10.24,10.24c0,5.652,4.588,10.24,10.24,10.24h184.32
			c5.652,0,10.24-4.588,10.24-10.24C286.72,291.307,282.132,286.72,276.48,286.72z"/>
		<path d="M194.56,327.68H92.16c-5.652,0-10.24,4.588-10.24,10.24s4.588,10.24,10.24,10.24h102.4c5.652,0,10.24-4.588,10.24-10.24
			S200.212,327.68,194.56,327.68z"/>
</svg>
