<svg 
	xmlns="http://www.w3.org/2000/svg" 
	xmlns:xlink="http://www.w3.org/1999/xlink" 
	viewBox="0 0 512 512" 
>
			<path d="M510.567,264.067l-63.212-94.771c-4.721-7.158-12.679-11.429-21.283-11.429H332.8V98.133c0-14.117-11.483-25.6-25.6-25.6
				H25.6c-14.117,0-25.6,11.483-25.6,25.6V371.2c0,14.117,11.483,25.6,25.6,25.6h26.371c4.082,24.176,25.109,42.667,50.429,42.667
				c25.32,0,46.347-18.491,50.429-42.667H307.2h51.971c4.082,24.176,25.109,42.667,50.429,42.667
				c25.32,0,46.347-18.491,50.429-42.667H486.4c14.117,0,25.6-11.483,25.6-25.6V268.8C512,267.117,511.5,265.467,510.567,264.067z
				 M102.4,422.4c-18.821,0-34.133-15.312-34.133-34.133s15.313-34.133,34.133-34.133s34.133,15.313,34.133,34.133
				S121.221,422.4,102.4,422.4z M315.733,371.2c0,4.704-3.829,8.533-8.533,8.533H152.829c-4.082-24.176-25.109-42.667-50.429-42.667
				c-25.32,0-46.347,18.491-50.429,42.667H25.6c-4.704,0-8.533-3.829-8.533-8.533V98.133c0-4.704,3.829-8.533,8.533-8.533h281.6
				c4.704,0,8.533,3.829,8.533,8.533V371.2z M409.6,422.4c-18.821,0-34.133-15.312-34.133-34.133s15.313-34.133,34.133-34.133
				s34.133,15.313,34.133,34.133S428.421,422.4,409.6,422.4z M494.933,371.2c0,4.704-3.829,8.533-8.533,8.533h-26.371
				c-4.082-24.176-25.109-42.667-50.429-42.667c-25.32,0-46.347,18.491-50.429,42.667h-27.943c0.956-2.682,1.572-5.527,1.572-8.533
				V174.933h25.6v102.4c0,4.304,3.204,7.933,7.475,8.467l129.058,16.132V371.2z M494.933,284.734L375.467,269.8v-94.867h50.604
				c2.854,0,5.483,1.408,7.062,3.796l61.8,92.654V284.734z"/>
			<path d="M76.8,200.533c4.713,0,8.533-3.821,8.533-8.533c0-4.713-3.821-8.533-8.533-8.533H42.667
				c-4.713,0-8.533,3.821-8.533,8.533v68.267c0,4.713,3.821,8.533,8.533,8.533s8.533-3.821,8.533-8.533v-25.6h25.6
				c4.713,0,8.533-3.821,8.533-8.533S81.513,217.6,76.8,217.6H51.2v-17.067H76.8z"/>
			<path d="M162.133,209.067c0-14.117-11.483-25.6-25.6-25.6h-25.6c-4.713,0-8.533,3.821-8.533,8.533v68.267
				c0,4.713,3.821,8.533,8.533,8.533s8.533-3.821,8.533-8.533v-25.6h9.633l17.096,29.842c1.575,2.754,4.454,4.292,7.413,4.292
				c1.438,0,2.896-0.362,4.233-1.129c4.087-2.342,5.504-7.558,3.163-11.646l-13.657-23.84
				C156.053,228.094,162.133,219.306,162.133,209.067z M136.533,217.6h-17.067v-17.067h17.067c4.704,0,8.533,3.829,8.533,8.533
				S141.237,217.6,136.533,217.6z"/>
			<path d="M221.867,200.533c4.713,0,8.533-3.821,8.533-8.533c0-4.713-3.821-8.533-8.533-8.533h-34.133
				c-4.713,0-8.533,3.821-8.533,8.533v68.267c0,4.713,3.821,8.533,8.533,8.533h34.133c4.713,0,8.533-3.821,8.533-8.533
				c0-4.713-3.821-8.533-8.533-8.533h-25.6v-17.067h25.6c4.713,0,8.533-3.821,8.533-8.533s-3.821-8.533-8.533-8.533h-25.6v-17.067
				H221.867z"/>
			<path d="M290.133,200.533c4.713,0,8.533-3.821,8.533-8.533c0-4.713-3.821-8.533-8.533-8.533H256
				c-4.713,0-8.533,3.821-8.533,8.533v68.267c0,4.713,3.821,8.533,8.533,8.533h34.133c4.713,0,8.533-3.821,8.533-8.533
				c0-4.713-3.821-8.533-8.533-8.533h-25.6v-17.067h25.6c4.713,0,8.533-3.821,8.533-8.533s-3.821-8.533-8.533-8.533h-25.6v-17.067
				H290.133z"/>
</svg>
