<svg xmlns="http://www.w3.org/2000/svg" viewBox="0 0 116 116"><title>user2</title><path d="M58,25.789a21,21,0,1,0,21,21A21,21,0,0,0,58,25.789Zm0,35.2a14.2,14.2,0,1,1,14.2-14.2A14.2,14.2,0,0,1,58,60.989ZM58,0a58,58,0,1,0,58,58A58,58,0,0,0,58,0Zm0,109A50.763,50.763,0,0,1,26.666,98.224c3.3-10.231,7.15-15.59,16.959-20.081,0,0,7.931,2.638,14.256,2.339a91.949,91.949,0,0,0,14.143-2.263C81.852,82.448,84.212,88.541,88.74,98.69A50.768,50.768,0,0,1,58,109ZM95.019,93.059c-5.071-11.156-11.075-20.415-23-22.53,0,0-8.432,2.367-14.375,2.367A45,45,0,0,1,43.625,70.34c-10.817,2.16-18.667,11.942-22.66,22.7a51,51,0,1,1,74.054.017Z" transform="translate(0 0)"/></svg>