<svg 
	xmlns="http://www.w3.org/2000/svg" 
	viewBox="0 0 30 30"
>
	<style>.st0{fill:#086FB8;}</style>
	<path class="st0" d="M14.9.1c2.3 0 4.5.5 6.5 1.5.3.1.6.3.9.5L21 3.4l-2-2.2-3.5 3.1-2.1-2.2L7 7.9l4.1 4.6-1.6 1.4 4.1 4.6-1.6 1.4 5.8 6.5 3.5-3.2 3 3.4c-.6.5-1.2.9-2 1.3-2.2 1.2-4.7 1.9-7.3 1.9C6.8 29.8.1 23.2.1 15 .1 6.8 6.8.1 14.9.1z"/>
	<path class="st0" d="M12.2 14l3.6-3.1 3.1 3.5-3.5 3.2zM14.7 20.2l3.6-3.2 3.2 3.5-3.6 3.2zM9.7 8l3.5-3.2 3.2 3.6-3.5 3.2zM16.2 6.3l2.6-2.4 2.4 2.7L18.6 9zM20.9 17.2l2.6-2.4 2.4 2.7-2.6 2.4zM23.2 22.6l2.7-2.4 2.4 2.6-2.7 2.4zM24.3 10.3l1.8-1.6 1.5 1.8-1.7 1.6zM22 5.1l1.8-1.6 1.6 1.7-1.8 1.6zM26.6 15.6l1.7-1.6 1.6 1.7-1.8 1.6zM18.6 11.6l2.7-2.4 2.4 2.7-2.7 2.4z"/>
</svg>