<svg id="whatsapp" xmlns="http://www.w3.org/2000/svg" width="25.003" height="25.003" viewBox="0 0 25.003 25.003">
  <path id="Path_798" data-name="Path 798" d="M12.5,0H12.5A12.494,12.494,0,0,0,2.38,19.829L.822,24.474l4.805-1.536A12.5,12.5,0,1,0,12.5,0Z" transform="translate(0 0)" fill="#23d366"/>
  <path id="Path_801" data-name="Path 801" d="M159.263,152.292c-.249-.076-.486-.126-.707-.218a16.057,16.057,0,0,1-6.051-4.044,15.7,15.7,0,0,1-2.314-3.542c-.3-.6-.547-1.231-.8-1.854a1.609,1.609,0,0,1,.471-1.584,3.721,3.721,0,0,1,1.246-.936.8.8,0,0,1,1,.237,12.9,12.9,0,0,1,1.548,2.167,1.031,1.031,0,0,1-.289,1.4c-.117.08-.224.173-.333.263a1.091,1.091,0,0,0-.251.265.726.726,0,0,0-.048.638,5.771,5.771,0,0,0,3.241,3.588,1.65,1.65,0,0,0,.831.2c.508-.059.672-.616,1.028-.907a.969.969,0,0,1,1.167-.051c.375.237.738.492,1.1.749a12.584,12.584,0,0,1,1.034.787.82.82,0,0,1,.246,1.015,3.433,3.433,0,0,1-1.475,1.625,3.56,3.56,0,0,1-.638.2C159.014,152.216,159.479,152.225,159.263,152.292Z" transform="translate(-143.179 -133.452)" fill="#fff"/>
</svg>
