<?xml version="1.0" encoding="utf-8"?><svg xmlns="http://www.w3.org/2000/svg" xmlns:xlink="http://www.w3.org/1999/xlink"><symbol viewBox="0 0 129 129" id="angle"><path d="M40.4 121.3c-.8.8-1.8 1.2-2.9 1.2s-2.1-.4-2.9-1.2c-1.6-1.6-1.6-4.2 0-5.8l51-51-51-51c-1.6-1.6-1.6-4.2 0-5.8 1.6-1.6 4.2-1.6 5.8 0l53.9 53.9c1.6 1.6 1.6 4.2 0 5.8l-53.9 53.9z"/></symbol><symbol viewBox="0 0 512 512" id="arrow--left" xmlns="http://www.w3.org/2000/svg"><path d="M491.318 235.318H20.682C9.26 235.318 0 244.578 0 256c0 11.423 9.26 20.682 20.682 20.682h470.636c11.423 0 20.682-9.259 20.682-20.682 0-11.422-9.259-20.682-20.682-20.682z"/><path d="M49.932 256L211.795 94.136c8.077-8.077 8.077-21.172 0-29.249-8.077-8.076-21.172-8.076-29.249 0L6.058 241.375c-8.077 8.077-8.077 21.172 0 29.249l176.488 176.488a20.616 20.616 0 0 0 14.625 6.058 20.616 20.616 0 0 0 14.625-6.058c8.077-8.077 8.077-21.172 0-29.249L49.932 256z"/></symbol><symbol viewBox="0 0 493.356 493.356" id="arrow--long"><path d="M490.498 239.278l-109.632-99.929c-3.046-2.474-6.376-2.95-9.993-1.427-3.613 1.525-5.427 4.283-5.427 8.282v63.954H9.136c-2.666 0-4.856.855-6.567 2.568C.859 214.438 0 216.628 0 219.292v54.816c0 2.663.855 4.853 2.568 6.563 1.715 1.712 3.905 2.567 6.567 2.567h356.313v63.953c0 3.812 1.817 6.57 5.428 8.278 3.62 1.529 6.95.951 9.996-1.708l109.632-101.077c1.903-1.902 2.852-4.182 2.852-6.849 0-2.468-.955-4.654-2.858-6.557z"/></symbol><symbol viewBox="0 0 31.49 31.49" id="arrow--right" xmlns="http://www.w3.org/2000/svg"><path d="M21.205 5.007a1.112 1.112 0 0 0-1.587 0 1.12 1.12 0 0 0 0 1.571l8.047 8.047H1.111A1.106 1.106 0 0 0 0 15.737c0 .619.492 1.127 1.111 1.127h26.554l-8.047 8.032c-.429.444-.429 1.159 0 1.587a1.112 1.112 0 0 0 1.587 0l9.952-9.952a1.093 1.093 0 0 0 0-1.571l-9.952-9.953z"/></symbol><symbol viewBox="0 0 408 408" id="arrow--short" xmlns="http://www.w3.org/2000/svg"><path d="M0 229.5h311.1L168.3 372.3 204 408l204-204L204 0l-35.7 35.7 142.8 142.8H0v51z"/></symbol><symbol viewBox="0 0 16.706 21.07" id="cart--bag" xmlns="http://www.w3.org/2000/svg"><path d="M16.696 17.375l-.941-11.856a1.482 1.482 0 0 0-1.467-1.363h-1.862v-.083a4.073 4.073 0 1 0-8.146 0v.084H2.422A1.481 1.481 0 0 0 .951 5.518L.01 17.378a3.431 3.431 0 0 0 3.421 3.693h9.845a3.431 3.431 0 0 0 3.421-3.695zM5.514 4.073a2.839 2.839 0 0 1 5.677 0v.084H5.514zm9.374 15.059a2.174 2.174 0 0 1-1.611.7H3.431a2.2 2.2 0 0 1-2.19-2.362l.941-11.861a.242.242 0 0 1 .24-.223h1.859v1.181a.636.636 0 1 0 .007 1.272h1.091a.636.636 0 0 0 .134-1.257V5.391h5.675v1.184a.634.634 0 0 0 .1 1.262h1.091a.634.634 0 0 0 .047-1.267V5.39h1.862a.242.242 0 0 1 .24.224l.941 11.856a2.174 2.174 0 0 1-.579 1.662z"/></symbol><symbol viewBox="0 0 611.994 611.994" id="check" xmlns="http://www.w3.org/2000/svg"><path d="M248.172 423.918l-89.545-89.534c-5.637-5.637-5.637-14.778 0-20.416 5.643-5.644 14.78-5.644 20.417 0l69.128 69.122 184.796-184.802c5.644-5.643 14.78-5.643 20.417 0 5.644 5.637 5.644 14.78 0 20.417L248.172 423.918z"/><path d="M306.031 611.994v-14.438l-.022 14.438C137.286 611.994.012 474.726 0 306.003 0 137.274 137.274 0 305.997 0c168.729 0 305.997 137.274 305.997 305.997.006 168.729-137.251 305.997-305.963 305.997zm-.034-583.116c-152.805 0-277.119 124.314-277.119 277.119.012 152.799 124.331 277.113 277.131 277.113h.022c152.788 0 277.091-124.314 277.091-277.113 0-152.805-124.32-277.119-277.125-277.119z"/></symbol><symbol viewBox="0 0 512 512" id="check--bold" xmlns="http://www.w3.org/2000/svg"><path d="M387.106 167.497c-5.857-5.857-15.354-5.858-21.212.001L220.705 312.685l-74.599-74.597c-5.857-5.857-15.355-5.858-21.213.001-5.857 5.858-5.857 15.355 0 21.213l85.205 85.203a14.953 14.953 0 0 0 10.606 4.393c3.839 0 7.678-1.464 10.606-4.394L387.106 188.71c5.858-5.857 5.858-15.355 0-21.213z"/><path d="M437.019 74.981C388.667 26.629 324.379 0 256 0 187.62 0 123.333 26.629 74.981 74.981 26.628 123.334 0 187.621 0 256c0 68.381 26.628 132.668 74.981 181.02C123.332 485.372 187.62 512 256 512s132.667-26.628 181.019-74.98C485.371 388.668 512 324.381 512 256c0-68.379-26.629-132.666-74.981-181.019zM256 482C131.383 482 30 380.617 30 256S131.383 30 256 30s226 101.383 226 226-101.383 226-226 226z"/></symbol><symbol viewBox="0 0 405.272 405.272" id="checked" xmlns="http://www.w3.org/2000/svg"><path d="M393.401 124.425L179.603 338.208c-15.832 15.835-41.514 15.835-57.361 0L11.878 227.836c-15.838-15.835-15.838-41.52 0-57.358 15.841-15.841 41.521-15.841 57.355-.006l81.698 81.699L336.037 67.064c15.841-15.841 41.523-15.829 57.358 0 15.835 15.838 15.835 41.514.006 57.361z"/></symbol><symbol viewBox="0 0 512 512" id="close" xmlns="http://www.w3.org/2000/svg"><path d="M505.943 6.058c-8.077-8.077-21.172-8.077-29.249 0L6.058 476.693c-8.077 8.077-8.077 21.172 0 29.249A20.612 20.612 0 0 0 20.683 512a20.614 20.614 0 0 0 14.625-6.059L505.943 35.306c8.076-8.076 8.076-21.171 0-29.248z"/><path d="M505.942 476.694L35.306 6.059c-8.076-8.077-21.172-8.077-29.248 0-8.077 8.076-8.077 21.171 0 29.248l470.636 470.636a20.616 20.616 0 0 0 14.625 6.058 20.615 20.615 0 0 0 14.624-6.057c8.075-8.078 8.075-21.173-.001-29.25z"/></symbol><symbol viewBox="0 0 47.971 47.971" id="close--bold" xmlns="http://www.w3.org/2000/svg"><path d="M28.228 23.986L47.092 5.122a2.998 2.998 0 0 0 0-4.242 2.998 2.998 0 0 0-4.242 0L23.986 19.744 5.121.88a2.998 2.998 0 0 0-4.242 0 2.998 2.998 0 0 0 0 4.242l18.865 18.864L.879 42.85a2.998 2.998 0 1 0 4.242 4.241l18.865-18.864L42.85 47.091c.586.586 1.354.879 2.121.879s1.535-.293 2.121-.879a2.998 2.998 0 0 0 0-4.242L28.228 23.986z"/></symbol><symbol viewBox="0 0 110.479 116.099" id="cog" xmlns="http://www.w3.org/2000/svg"><path d="M55.39 36a22.5 22.5 0 1 0 22.5 22.5A22.5 22.5 0 0 0 55.39 36zm0 38a15.5 15.5 0 1 1 15.5-15.5A15.5 15.5 0 0 1 55.39 74zm48.589-7.95l-3.6-2.284a45.524 45.524 0 0 0 .509-6.761c0-1.171-.061-2.326-.149-3.475l3.508-1.823a11 11 0 0 0 4.693-14.839l-6.462-12.418a11 11 0 0 0-14.838-4.69l-3.633 1.89a45.491 45.491 0 0 0-10.9-6.559c.093.04.189.075.282.115V11a11 11 0 0 0-11-11h-14a11 11 0 0 0-11 11v4.207c.109-.047.221-.088.33-.134a45.463 45.463 0 0 0-10.615 6.31l-3.419-1.861C17.896 16.37 10.847 18.14 7.94 23.476l-6.694 12.3c-2.9 5.335-.565 12.216 5.226 15.369l3.6 1.961a45.267 45.267 0 0 0-.187 3.9 45.547 45.547 0 0 0 .518 6.824l-3.52 2.158c-6 3.68-8.281 10.861-5.1 16.039l7.323 11.932c3.178 5.177 10.616 6.391 16.612 2.711l3.762-2.309a45.449 45.449 0 0 0 8.007 4.443l-.054 3.847c-.1 7.231 4.738 13.163 10.813 13.249l14 .2c6.075.086 11.082-5.706 11.185-12.938l.063-4.437a45.452 45.452 0 0 0 7.869-4.4l3.328 2.112c6.02 3.822 13.541 2.763 16.8-2.366l7.5-11.819c3.249-5.128 1.009-12.384-5.012-16.202zm-11.4 27.112l-5.978-3.8-6.086-3.864a37.972 37.972 0 0 1-13.949 7.82l-.111 7.824-.1 7.014-22-.312.094-6.676.11-7.743a37.949 37.949 0 0 1-14.182-7.831l-6.495 3.987-5.861 3.6L6.515 74.427l5.86-3.6 6.337-3.889a38.061 38.061 0 0 1-.58-17.423l-6.544-3.563-5.593-3.042 10.519-19.322 5.593 3.045 6.427 3.5a37.987 37.987 0 0 1 15.856-9.509V8.077h22v12.547a37.988 37.988 0 0 1 16.068 9.726l6.907-3.59 4.1-2.132 10.147 19.52-4.016 2.088-6.894 3.583a38.026 38.026 0 0 1-.595 16.986l6.282 3.988 5.978 3.8z"/></symbol><symbol viewBox="0 0 18 19" id="controls" xmlns="http://www.w3.org/2000/svg"><path d="M2.333 5c1.173 0 2.144-.934 2.307-2.143h13.027c.184 0 .333-.16.333-.357 0-.197-.149-.357-.333-.357H4.64C4.477.933 3.506 0 2.333 0 1.047 0 0 1.122 0 2.5S1.047 5 2.333 5zm0-4.286C3.253.714 4 1.515 4 2.5s-.748 1.786-1.667 1.786S.667 3.485.667 2.5 1.414.714 2.333.714zM15.667 14c-1.173 0-2.144.934-2.307 2.143H.333c-.184 0-.333.16-.333.357 0 .198.15.357.333.357H13.36c.163 1.21 1.134 2.143 2.307 2.143C16.953 19 18 17.878 18 16.5S16.953 14 15.667 14zm0 4.286c-.92 0-1.667-.801-1.667-1.786s.748-1.786 1.667-1.786 1.666.801 1.666 1.786-.747 1.786-1.666 1.786zM17.667 9.225h-6.211C11.324 7.975 10.304 7 9.069 7s-2.255.976-2.387 2.225H.333A.34.34 0 0 0 0 9.572c0 .192.15.347.333.347h6.37C6.895 11.099 7.882 12 9.069 12s2.173-.902 2.366-2.081h6.232A.34.34 0 0 0 18 9.572a.34.34 0 0 0-.333-.347zm-8.598 2.081c-.957 0-1.736-.81-1.736-1.806s.779-1.806 1.736-1.806 1.736.81 1.736 1.806-.779 1.806-1.736 1.806z"/></symbol><symbol viewBox="0 0 512 512" id="credit-card" xmlns="http://www.w3.org/2000/svg"><path d="M481.28 81.92H30.72C13.783 81.92 0 95.703 0 112.64v286.72c0 16.937 13.783 30.72 30.72 30.72h450.56c16.937 0 30.72-13.783 30.72-30.72V112.64c0-16.937-13.783-30.72-30.72-30.72zm10.24 317.44c0 5.632-4.608 10.24-10.24 10.24H30.72c-5.652 0-10.24-4.608-10.24-10.24V112.64c0-5.653 4.588-10.24 10.24-10.24h450.56c5.632 0 10.24 4.587 10.24 10.24v286.72z"/><path d="M10.24 174.08h491.52v40.96H10.24z"/><path d="M501.76 163.84H10.24C4.588 163.84 0 168.427 0 174.08v40.96c0 5.653 4.588 10.24 10.24 10.24h491.52c5.652 0 10.24-4.587 10.24-10.24v-40.96c0-5.653-4.588-10.24-10.24-10.24zm-10.24 40.96H20.48v-20.48h471.04v20.48zM276.48 286.72H92.16c-5.652 0-10.24 4.588-10.24 10.24s4.588 10.24 10.24 10.24h184.32c5.652 0 10.24-4.588 10.24-10.24 0-5.653-4.588-10.24-10.24-10.24zM194.56 327.68H92.16c-5.652 0-10.24 4.588-10.24 10.24s4.588 10.24 10.24 10.24h102.4c5.652 0 10.24-4.588 10.24-10.24s-4.588-10.24-10.24-10.24z"/></symbol><symbol viewBox="0 0 331.493 331.493" id="credit-cash" xmlns="http://www.w3.org/2000/svg"><path d="M298.761 57.093l-101.2-54.8c-9.6-5.2-22.8-1.2-28 8.4l-59.2 110h-72c-9.2 0-16.4 7.2-16.4 16.4v178c0 9.2 7.2 16.4 16.4 16.4h230c9.2 0 16.4-7.2 16.4-16.4v-41.6h6.8c3.6 0 6.4-2.8 6.4-6.4v-47.6c0-3.6-2.8-6.4-6.4-6.4h-6.8v-46.8c0-7.6-5.6-14.4-12.8-16l35.2-65.2c5.2-10 1.6-22.4-8.4-28zm-72-24.4l-63.2 117.2h-18l67.6-124.4 13.6 7.2zm-45.6-16c2-3.6 6.8-5.2 10.4-3.2l10 5.6-70.4 130.8h-22l72-133.2zm-146.8 120c0-1.2 1.6-3.2 3.6-3.2h65.2l-8.8 16h-56.4c-1.2 0-2.4 0-3.6.4v-13.2zm237.2 178.4c0 2-1.6 3.6-3.6 3.6h-230c-2 0-3.6-1.6-3.6-3.6v-148.8c0-2 1.6-3.6 3.6-3.6h229.6c2 0 3.6 1.6 3.6 3.6v46.8h-24.4c-10.8 0-19.2 8.8-19.2 19.2v22c0 10.8 8.8 19.2 19.2 19.2h24.8v41.6zm12.8-89.2h.4v34.8h-38c-3.6 0-6.4-2.8-6.4-6.4v-22c0-3.6 2.8-6.4 6.4-6.4h37.6zm11.2-147.2l-38.4 71.2h-79.2l60-110.8 54.4 29.6c4 1.6 5.2 6.4 3.2 10z"/><path d="M271.161 72.693l-3.2-1.6c-8-4.4-18.8-1.2-23.2 6.8l-4 7.6c-2 4-2.8 8.8-1.2 13.2 1.2 4.4 4.4 8 8.4 10l3.2 1.6c2.4 1.2 5.2 2 8 2 6.4 0 12-3.6 15.2-8.8l4-7.6c4-8.4.8-18.8-7.2-23.2zm-4.4 17.2l-4 7.6c-1.2 2-4 2.8-6 1.6l-3.2-2c-.8-.4-1.6-1.6-2-2.4-.4-1.2-.4-2.4.4-3.2l4-7.6c.8-1.2 2.4-2.4 4-2.4.8 0 1.2 0 2 .4l3.2 1.6c1.6 1.6 2.4 4 1.6 6.4z"/></symbol><symbol viewBox="0 0 512 512" id="delivery" xmlns="http://www.w3.org/2000/svg"><path d="M510.567 264.067l-63.212-94.771c-4.721-7.158-12.679-11.429-21.283-11.429H332.8V98.133c0-14.117-11.483-25.6-25.6-25.6H25.6c-14.117 0-25.6 11.483-25.6 25.6V371.2c0 14.117 11.483 25.6 25.6 25.6h26.371c4.082 24.176 25.109 42.667 50.429 42.667s46.347-18.491 50.429-42.667h206.342c4.082 24.176 25.109 42.667 50.429 42.667s46.347-18.491 50.429-42.667H486.4c14.117 0 25.6-11.483 25.6-25.6V268.8c0-1.683-.5-3.333-1.433-4.733zM102.4 422.4c-18.821 0-34.133-15.312-34.133-34.133s15.313-34.133 34.133-34.133 34.133 15.313 34.133 34.133S121.221 422.4 102.4 422.4zm213.333-51.2c0 4.704-3.829 8.533-8.533 8.533H152.829c-4.082-24.176-25.109-42.667-50.429-42.667s-46.347 18.491-50.429 42.667H25.6c-4.704 0-8.533-3.829-8.533-8.533V98.133c0-4.704 3.829-8.533 8.533-8.533h281.6c4.704 0 8.533 3.829 8.533 8.533V371.2zm93.867 51.2c-18.821 0-34.133-15.312-34.133-34.133s15.313-34.133 34.133-34.133 34.133 15.313 34.133 34.133S428.421 422.4 409.6 422.4zm85.333-51.2c0 4.704-3.829 8.533-8.533 8.533h-26.371c-4.082-24.176-25.109-42.667-50.429-42.667s-46.347 18.491-50.429 42.667h-27.943c.956-2.682 1.572-5.527 1.572-8.533V174.933h25.6v102.4a8.532 8.532 0 0 0 7.475 8.467l129.058 16.132V371.2zm0-86.466L375.467 269.8v-94.867h50.604a8.423 8.423 0 0 1 7.062 3.796l61.8 92.654v13.351z"/><path d="M76.8 200.533a8.533 8.533 0 0 0 0-17.066H42.667A8.533 8.533 0 0 0 34.134 192v68.267a8.533 8.533 0 0 0 17.066 0v-25.6h25.6a8.534 8.534 0 0 0 0-17.067H51.2v-17.067h25.6zM162.133 209.067c0-14.117-11.483-25.6-25.6-25.6h-25.6A8.533 8.533 0 0 0 102.4 192v68.267a8.533 8.533 0 0 0 17.066 0v-25.6h9.633l17.096 29.842a8.524 8.524 0 0 0 7.413 4.292 8.537 8.537 0 0 0 7.396-12.775l-13.657-23.84c8.706-4.092 14.786-12.88 14.786-23.119zm-25.6 8.533h-17.067v-17.067h17.067c4.704 0 8.533 3.829 8.533 8.533s-3.829 8.534-8.533 8.534zM221.867 200.533a8.533 8.533 0 0 0 0-17.066h-34.133a8.533 8.533 0 0 0-8.533 8.533v68.267a8.533 8.533 0 0 0 8.533 8.533h34.133a8.533 8.533 0 0 0 0-17.066h-25.6v-17.067h25.6a8.533 8.533 0 0 0 0-17.066h-25.6v-17.067h25.6zM290.133 200.533a8.533 8.533 0 0 0 0-17.066H256a8.533 8.533 0 0 0-8.533 8.533v68.267A8.533 8.533 0 0 0 256 268.8h34.133a8.533 8.533 0 0 0 0-17.066h-25.6v-17.067h25.6a8.533 8.533 0 0 0 0-17.066h-25.6v-17.067h25.6z"/></symbol><symbol viewBox="0 0 512.003 512.003" id="discount" xmlns="http://www.w3.org/2000/svg"><path d="M477.958 262.633a15.004 15.004 0 0 1 0-13.263l19.096-39.065c10.632-21.751 2.208-47.676-19.178-59.023l-38.41-20.38a15.005 15.005 0 0 1-7.796-10.729l-7.512-42.829c-4.183-23.846-26.241-39.87-50.208-36.479l-43.053 6.09a15.004 15.004 0 0 1-12.613-4.099l-31.251-30.232c-17.401-16.834-44.661-16.835-62.061 0L193.72 42.859a15.01 15.01 0 0 1-12.613 4.099l-43.053-6.09c-23.975-3.393-46.025 12.633-50.208 36.479l-7.512 42.827a15.008 15.008 0 0 1-7.795 10.73l-38.41 20.38c-21.386 11.346-29.81 37.273-19.178 59.024l19.095 39.064a15.004 15.004 0 0 1 0 13.263L14.95 301.699c-10.632 21.751-2.208 47.676 19.178 59.023l38.41 20.38a15.005 15.005 0 0 1 7.796 10.729l7.512 42.829c3.808 21.708 22.422 36.932 43.815 36.93 2.107 0 4.245-.148 6.394-.452l43.053-6.09a15 15 0 0 1 12.613 4.099l31.251 30.232c8.702 8.418 19.864 12.626 31.03 12.625 11.163-.001 22.332-4.209 31.03-12.625l31.252-30.232c3.372-3.261 7.968-4.751 12.613-4.099l43.053 6.09c23.978 3.392 46.025-12.633 50.208-36.479l7.513-42.827a15.008 15.008 0 0 1 7.795-10.73l38.41-20.38c21.386-11.346 29.81-37.273 19.178-59.024l-19.096-39.065zm-13.923 72.002l-38.41 20.38c-12.246 6.499-20.645 18.057-23.04 31.713l-7.512 42.828a15.038 15.038 0 0 1-16.987 12.342l-43.053-6.09c-13.73-1.945-27.316 2.474-37.281 12.113L266.5 478.152a15.04 15.04 0 0 1-20.997 0l-31.251-30.232c-8.422-8.147-19.432-12.562-30.926-12.562-2.106 0-4.229.148-6.355.449l-43.053 6.09a15.042 15.042 0 0 1-16.987-12.342l-7.513-42.829c-2.396-13.656-10.794-25.215-23.041-31.712l-38.41-20.38a15.037 15.037 0 0 1-6.489-19.969L60.574 275.6c6.088-12.456 6.088-26.742 0-39.198l-19.096-39.065a15.037 15.037 0 0 1 6.489-19.969l38.41-20.38c12.246-6.499 20.645-18.057 23.04-31.713l7.512-42.828a15.038 15.038 0 0 1 16.987-12.342l43.053 6.09c13.725 1.943 27.316-2.474 37.281-12.113l31.252-30.232a15.04 15.04 0 0 1 20.997 0l31.251 30.232c9.965 9.64 23.554 14.056 37.281 12.113l43.053-6.09a15.04 15.04 0 0 1 16.987 12.342l7.512 42.829c2.396 13.656 10.794 25.215 23.041 31.712l38.41 20.38a15.037 15.037 0 0 1 6.489 19.969l-19.096 39.064c-6.088 12.455-6.088 26.743 0 39.198l19.096 39.064a15.039 15.039 0 0 1-6.488 19.972z"/><path d="M363.886 148.116c-5.765-5.766-15.115-5.766-20.881 0l-194.889 194.89c-5.766 5.766-5.766 15.115 0 20.881a14.72 14.72 0 0 0 10.44 4.325c3.778 0 7.558-1.441 10.44-4.325l194.889-194.889c5.768-5.767 5.768-15.115.001-20.882zM196.941 123.116c-29.852 0-54.139 24.287-54.139 54.139s24.287 54.139 54.139 54.139 54.139-24.287 54.139-54.139-24.287-54.139-54.139-54.139zm0 78.747c-13.569 0-24.608-11.039-24.608-24.609 0-13.569 11.039-24.608 24.608-24.608s24.609 11.039 24.609 24.608c-.001 13.57-11.04 24.609-24.609 24.609zM315.061 280.61c-29.852 0-54.139 24.287-54.139 54.139s24.287 54.139 54.139 54.139c29.852 0 54.139-24.287 54.139-54.139s-24.287-54.139-54.139-54.139zm0 78.747c-13.569 0-24.609-11.039-24.609-24.608s11.039-24.608 24.609-24.608c13.569 0 24.608 11.039 24.608 24.608s-11.039 24.608-24.608 24.608z"/></symbol><symbol viewBox="0 0 452.84 452.84" id="email" xmlns="http://www.w3.org/2000/svg"><path d="M449.483 190.4l.001-.001-57.824-38.335V23.93a7.5 7.5 0 0 0-7.5-7.5H68.67a7.5 7.5 0 0 0-7.5 7.5v128.143L3.356 190.399l.001.002A7.49 7.49 0 0 0 0 196.65v232.26a7.5 7.5 0 0 0 7.5 7.5h437.84a7.5 7.5 0 0 0 7.5-7.5V196.65a7.493 7.493 0 0 0-3.357-6.25zM61.17 216.629L37.645 204.15H61.17v12.479zM15 209.118l172.475 91.49L15 414.935V209.118zm211.417 83.671L420.454 421.41H32.381l194.036-128.621zm38.945 7.82l172.477-91.491v205.821l-172.477-114.33zM391.66 204.15h23.536l-23.536 12.484V204.15zm28.794-15H391.66v-19.09l28.794 19.09zM376.66 31.43v193.161l-125.527 66.586-20.573-13.637a7.499 7.499 0 0 0-8.287 0l-20.57 13.635L76.17 224.586V31.43h300.49zM61.17 189.15H32.388l28.782-19.08v19.08z"/><path d="M226.415 213.671h59.754a7.5 7.5 0 0 0 0-15h-59.754c-28.813 0-52.254-23.441-52.254-52.254v-2.213c0-28.813 23.441-52.254 52.254-52.254s52.254 23.441 52.254 52.254v5.533c0 6.237-5.074 11.312-11.312 11.312s-11.312-5.074-11.312-11.312v-10.512c0-17.864-14.533-32.398-32.397-32.398s-32.397 14.533-32.397 32.398c0 17.864 14.533 32.397 32.397 32.397 8.169 0 15.636-3.045 21.34-8.052 4.644 7.483 12.932 12.478 22.369 12.478 14.508 0 26.312-11.803 26.312-26.312v-5.533c0-37.084-30.17-67.254-67.254-67.254s-67.254 30.17-67.254 67.254v2.213c0 37.085 30.17 67.255 67.254 67.255zm-2.767-57.049c-9.593 0-17.397-7.804-17.397-17.397s7.805-17.398 17.397-17.398 17.397 7.805 17.397 17.398-7.804 17.397-17.397 17.397z"/></symbol><symbol viewBox="0 0 32 32" id="eye" xmlns="http://www.w3.org/2000/svg"><path d="M16 6C9.021 6 2.972 10.064 0 16c2.972 5.936 9.021 10 16 10s13.027-4.064 16-10c-2.972-5.936-9.021-10-16-10zm7.889 5.303A15.212 15.212 0 0 1 28.559 16a15.223 15.223 0 0 1-4.67 4.697C21.527 22.204 18.799 23 16 23s-5.527-.796-7.889-2.303A15.212 15.212 0 0 1 3.441 16a15.223 15.223 0 0 1 5.041-4.925 8 8 0 1 0 15.036 0c.124.074.248.15.371.228zM16 12.813a3 3 0 1 1-6 0 3 3 0 0 1 6 0z"/></symbol><symbol viewBox="0 0 32 32" id="eye--blocked" xmlns="http://www.w3.org/2000/svg"><path d="M26.229 9.263A18.308 18.308 0 0 1 32 16c-2.973 5.936-9.021 10-16 10a17.6 17.6 0 0 1-5.599-.909l2.436-2.436a14.673 14.673 0 0 0 11.052-1.958A15.212 15.212 0 0 0 28.559 16a15.229 15.229 0 0 0-4.489-4.578l2.159-2.159zM16 21.813c-.71 0-1.399-.093-2.054-.267l9.787-9.787A8 8 0 0 1 16 21.813zM30 0h-1.679l-6.863 6.863A17.608 17.608 0 0 0 16 6C9.021 6 2.972 10.064 0 16a18.305 18.305 0 0 0 5.662 6.658L0 28.32v1.679h1.679L30 1.678V-.001zM13 9.813a3 3 0 0 1 2.965 2.543l-3.423 3.423a3 3 0 0 1 .457-5.965zM3.441 16a15.223 15.223 0 0 1 5.041-4.925A7.985 7.985 0 0 0 8 13.812a7.96 7.96 0 0 0 1.647 4.861l-1.83 1.83A15.238 15.238 0 0 1 3.441 16z"/></symbol><symbol viewBox="0 0 430.113 430.114" id="facebook" xmlns="http://www.w3.org/2000/svg"><path d="M158.081 83.3v59.218h-43.385v72.412h43.385v215.183h89.122V214.936h59.805s5.601-34.721 8.316-72.685H247.54V92.74c0-7.4 9.717-17.354 19.321-17.354h48.557V.001h-66.021C155.878-.004 158.081 72.48 158.081 83.3z"/></symbol><symbol viewBox="0 0 1792 1792" id="favorite" xmlns="http://www.w3.org/2000/svg"><path d="M1664 596q0-81-21.5-143t-55-98.5T1506 295t-94-31-98-8-112 25.5-110.5 64-86.5 72-60 61.5q-18 22-49 22t-49-22q-24-28-60-61.5t-86.5-72-110.5-64T478 256t-98 8-94 31-81.5 59.5-55 98.5T128 596q0 168 187 355l581 560 580-559q188-188 188-356zm128 0q0 221-229 450l-623 600q-18 18-44 18t-44-18l-624-602q-10-8-27.5-26T145 952.5 77 855 23.5 734 0 596q0-220 127-344t351-124q62 0 126.5 21.5t120 58T820 276t76 68q36-36 76-68t95.5-68.5 120-58T1314 128q224 0 351 124t127 344z"/></symbol><symbol viewBox="0 0 510 510" id="favorite--felled" xmlns="http://www.w3.org/2000/svg"><path d="M255 489.6l-35.7-35.7C86.7 336.6 0 257.55 0 160.65 0 81.6 61.2 20.4 140.25 20.4c43.35 0 86.7 20.4 114.75 53.55C283.05 40.8 326.4 20.4 369.75 20.4 448.8 20.4 510 81.6 510 160.65c0 96.9-86.7 175.95-219.3 293.25L255 489.6z"/></symbol><symbol viewBox="0 0 16 16" id="filter" xmlns="http://www.w3.org/2000/svg"><defs><path id="axa" d="M3.05 4a2.5 2.5 0 0 1 4.9 0h7.55a.5.5 0 1 1 0 1H7.95a2.5 2.5 0 0 1-4.9 0H.5a.5.5 0 0 1 0-1h2.55zm7.45 10a2.5 2.5 0 0 1-2.45-2H.5a.5.5 0 1 1 0-1h7.55a2.5 2.5 0 0 1 4.9 0h2.55a.5.5 0 1 1 0 1h-2.55a2.5 2.5 0 0 1-2.45 2z"/></defs><use fill="#fff" xlink:href="#axa" fill-rule="evenodd"/></symbol><symbol viewBox="0 0 971.986 971.986" id="filter-btn" xmlns="http://www.w3.org/2000/svg"><path d="M370.216 459.3c10.2 11.1 15.8 25.6 15.8 40.6v442c0 26.601 32.1 40.101 51.1 21.4l123.3-141.3c16.5-19.8 25.6-29.601 25.6-49.2V500c0-15 5.7-29.5 15.8-40.601L955.615 75.5c26.5-28.8 6.101-75.5-33.1-75.5h-873c-39.2 0-59.7 46.6-33.1 75.5l353.801 383.8z"/></symbol><symbol viewBox="0 0 512.002 512.002" id="gift" xmlns="http://www.w3.org/2000/svg"><path d="M492.713 189.381l-.767-.756a44.368 44.368 0 0 1-13.137-34.805l.08-1.126c2.154-30.254-16.623-57.498-45.664-66.252l-.479-.144a44.336 44.336 0 0 1-27.935-24.86l-.241-.557c-5.823-13.435-16.169-24.586-29.13-31.4-12.962-6.814-28.013-9.01-42.427-6.184-12.926 2.538-26.216-.754-36.498-9.056l-.048-.039c-23.446-18.931-57.485-18.932-80.897-.028l-.117.094c-10.25 8.273-23.54 11.561-36.373 9.046l-.141-.029c-14.365-2.818-29.418-.621-42.379 6.192s-23.305 17.962-29.133 31.4l-.241.557a44.34 44.34 0 0 1-27.93 24.86l-.482.146c-29.038 8.755-47.815 35.999-45.661 66.249l.08 1.133a44.362 44.362 0 0 1-13.14 34.806l-.761.75c-21.508 21.185-25.478 53.94-9.656 79.652l.648 1.053a44.372 44.372 0 0 1 4.457 36.881l-.385 1.196c-9.257 28.787 2.437 59.674 28.444 75.116l.694.411a44.353 44.353 0 0 1 21.113 30.736l.151.885c2.453 14.396 9.821 27.664 20.746 37.357 10.924 9.694 24.972 15.432 39.561 16.156l.235.012a44.319 44.319 0 0 1 33.151 17.472l.204.271c8.876 11.678 21.607 20.045 35.848 23.56a64.238 64.238 0 0 0 15.397 1.866 64.583 64.583 0 0 0 27.382-6.08 44.327 44.327 0 0 1 37.512.038c13.294 6.209 28.457 7.692 42.698 4.173 14.242-3.516 26.973-11.884 35.853-23.569l.181-.238c7.952-10.465 20.041-16.84 33.198-17.492l.209-.012c14.586-.725 28.636-6.462 39.56-16.155 10.925-9.694 18.292-22.961 20.746-37.355l.151-.889a44.352 44.352 0 0 1 21.109-30.731l.703-.417c26.002-15.437 37.696-46.326 28.439-75.113l-.385-1.196a44.37 44.37 0 0 1 4.457-36.88l.648-1.054c15.827-25.713 11.857-58.467-9.648-79.651zm-7.375 69.171l-.648 1.055a64.338 64.338 0 0 0-6.462 53.479l.385 1.196c6.384 19.852-1.682 41.153-19.609 51.797l-.702.417a64.313 64.313 0 0 0-30.616 44.564l-.151.889c-3.527 20.688-20.629 35.863-41.62 36.905l-.209.012a64.275 64.275 0 0 0-48.096 25.367l-.182.238c-12.566 16.539-35.349 22.161-54.168 13.374-17.323-8.089-37.191-8.089-54.514 0-.028.013-.057.026-.084.04-18.804 8.731-41.535 3.101-54.073-13.392l-.204-.27a64.274 64.274 0 0 0-48.089-25.358l-.235-.012c-20.96-1.042-38.062-16.218-41.589-36.907l-.151-.885a64.32 64.32 0 0 0-30.62-44.569l-.693-.411c-17.932-10.646-25.998-31.947-19.614-51.799l.385-1.196a64.337 64.337 0 0 0-6.462-53.48l-.648-1.054c-10.912-17.73-8.173-40.319 6.662-54.932l.761-.75a64.326 64.326 0 0 0 19.049-50.463l-.08-1.133c-1.484-20.863 11.463-39.652 31.485-45.689l.482-.146a64.295 64.295 0 0 0 40.508-36.055l.241-.557c7.107-16.39 23.502-26.752 40.859-26.752 2.774 0 5.575.265 8.364.813l.141.029c18.743 3.676 38.012-1.093 52.838-13.063l.118-.094c16.169-13.056 39.642-13.057 55.848.028l.049.039c14.86 11.996 34.133 16.769 52.918 13.082 20.333-3.994 41.073 6.912 49.314 25.919l.241.557a64.299 64.299 0 0 0 40.511 36.058l.479.144c20.027 6.038 32.976 24.825 31.491 45.693l-.08 1.126a64.325 64.325 0 0 0 19.046 50.464l.767.756c14.831 14.606 17.569 37.194 6.657 54.926z"/><path d="M263.07 358.859a10.066 10.066 0 0 0-7.067-2.929 10.072 10.072 0 0 0-7.068 2.929 10.076 10.076 0 0 0-2.929 7.068c0 2.629 1.069 5.208 2.929 7.067a10.075 10.075 0 0 0 7.068 2.93c2.629 0 5.208-1.07 7.067-2.93a10.071 10.071 0 0 0 2.93-7.067c0-2.63-1.07-5.209-2.93-7.068z"/><path d="M347.974 187.982h-33.059c5.026-4.474 8.697-10.397 10.469-17.232 3.119-12.038-.269-24.475-9.061-33.269-8.819-8.819-21.289-12.198-33.354-9.039-12.065 3.159-21.278 12.214-24.644 24.222l-2.32 8.278-2.32-8.278c-3.366-12.009-12.579-21.064-24.644-24.222-12.065-3.159-24.533.221-33.354 9.039-8.793 8.793-12.181 21.23-9.061 33.269 1.771 6.834 5.441 12.758 10.469 17.232h-33.063c-5.52 0-9.997 4.476-9.997 9.997v47.985c0 5.521 4.477 9.997 9.997 9.997h1.999v109.966c0 5.52 4.477 9.997 9.997 9.997h40.987c5.52 0 9.997-4.477 9.997-9.997s-4.477-9.997-9.997-9.997h-30.99v-99.969h139.956v99.969h-31.99c-5.52 0-9.997 4.477-9.997 9.997s4.477 9.997 9.997 9.997h41.987c5.52 0 9.997-4.477 9.997-9.997V255.961h1.999c5.52 0 9.997-4.476 9.997-9.997v-47.985c0-5.522-4.476-9.997-9.997-9.997zm-70.399-29.921c1.429-5.095 5.337-8.937 10.457-10.278a14.96 14.96 0 0 1 3.794-.493c3.842 0 7.54 1.51 10.358 4.329 3.731 3.731 5.168 9.008 3.845 14.116-1.323 5.107-5.142 9.022-10.216 10.473l-25.355 7.245 7.117-25.392zm-67.753-6.442c2.818-2.819 6.517-4.329 10.358-4.329 1.258 0 2.531.162 3.794.493 5.119 1.341 9.028 5.182 10.457 10.278l7.118 25.39-25.355-7.245c-5.073-1.45-8.893-5.364-10.216-10.473-1.324-5.106.113-10.383 3.844-14.114zm128.155 84.348H174.029v-27.991h163.949v27.991z"/></symbol><symbol viewBox="0 0 96.828 96.827" id="goggle" xmlns="http://www.w3.org/2000/svg"><path d="M62.617 0H39.525c-10.29 0-17.413 2.256-23.824 7.552-5.042 4.35-8.051 10.672-8.051 16.912 0 9.614 7.33 19.831 20.913 19.831 1.306 0 2.752-.134 4.028-.253l-.188.457c-.546 1.308-1.063 2.542-1.063 4.468 0 3.75 1.809 6.063 3.558 8.298l.22.283-.391.027c-5.609.384-16.049 1.1-23.675 5.787-9.007 5.355-9.707 13.145-9.707 15.404 0 8.988 8.376 18.06 27.09 18.06 21.76 0 33.146-12.005 33.146-23.863.002-8.771-5.141-13.101-10.6-17.698l-4.605-3.582c-1.423-1.179-3.195-2.646-3.195-5.364 0-2.672 1.772-4.436 3.336-5.992l.163-.165c4.973-3.917 10.609-8.358 10.609-17.964 0-9.658-6.035-14.649-8.937-17.048h7.663a.488.488 0 0 0 .266-.077l6.601-4.15A.5.5 0 0 0 62.617 0zM34.614 91.535c-13.264 0-22.176-6.195-22.176-15.416 0-6.021 3.645-10.396 10.824-12.997 5.749-1.935 13.17-2.031 13.244-2.031 1.257 0 1.889 0 2.893.126 9.281 6.605 13.743 10.073 13.743 16.678-.001 8.414-7.101 13.64-18.528 13.64zm-.125-50.779c-11.132 0-15.752-14.633-15.752-22.468 0-3.984.906-7.042 2.77-9.351 2.023-2.531 5.487-4.166 8.825-4.166 10.221 0 15.873 13.738 15.873 23.233 0 1.498 0 6.055-3.148 9.22-2.117 2.113-5.56 3.532-8.568 3.532zM94.982 45.223H82.814V33.098a.5.5 0 0 0-.5-.5H77.08a.5.5 0 0 0-.5.5v12.125H64.473a.5.5 0 0 0-.5.5v5.304a.5.5 0 0 0 .5.5H76.58V63.73a.5.5 0 0 0 .5.5h5.234c.275 0 .5-.225.5-.5V51.525h12.168a.5.5 0 0 0 .5-.5v-5.302c0-.277-.223-.5-.5-.5z"/></symbol><symbol viewBox="0 0 16 10" id="hamburger" xmlns="http://www.w3.org/2000/svg"><path d="M1 0h14a1 1 0 1 1 0 2H1a1 1 0 1 1 0-2zm0 4h14a1 1 0 1 1 0 2H1a1 1 0 1 1 0-2zm0 4h14a1 1 0 1 1 0 2H1a1 1 0 1 1 0-2z"/></symbol><symbol viewBox="0 0 486.988 486.988" id="home" xmlns="http://www.w3.org/2000/svg"><path d="M16.822 284.968h39.667v158.667c0 9.35 7.65 17 17 17h116.167c9.35 0 17-7.65 17-17V327.468h70.833v116.167c0 9.35 7.65 17 17 17h110.5c9.35 0 17-7.65 17-17V284.968h48.167c6.8 0 13.033-4.25 15.583-10.483 2.55-6.233 1.133-13.6-3.683-18.417L260.489 31.385c-6.517-6.517-17.283-6.8-23.8-.283L5.206 255.785c-5.1 4.817-6.517 12.183-3.967 18.7 2.55 6.516 8.783 10.483 15.583 10.483zm231.2-217.6l181.333 183.6h-24.367c-9.35 0-17 7.65-17 17v158.667h-76.5V310.468c0-9.35-7.65-17-17-17H189.656c-9.35 0-17 7.65-17 17v116.167H90.489V267.968c0-9.35-7.65-17-17-17H58.756l189.266-183.6z"/></symbol><symbol viewBox="0 0 20 20" id="instagram" xmlns="http://www.w3.org/2000/svg"><path d="M14.586 0H5.414A5.42 5.42 0 0 0 0 5.414v9.172A5.42 5.42 0 0 0 5.414 20h9.172A5.42 5.42 0 0 0 20 14.586V5.414A5.42 5.42 0 0 0 14.586 0zM10 15.469A5.475 5.475 0 0 1 4.531 10 5.475 5.475 0 0 1 10 4.531 5.475 5.475 0 0 1 15.469 10 5.475 5.475 0 0 1 10 15.469zm5.6-9.648a1.618 1.618 0 0 1-1.617-1.616c0-.89.725-1.616 1.616-1.616.892 0 1.616.725 1.616 1.616 0 .891-.724 1.616-1.616 1.616z"/><path d="M10 5.704A4.301 4.301 0 0 0 5.702 10 4.301 4.301 0 0 0 10 14.296 4.3 4.3 0 0 0 14.295 10 4.3 4.3 0 0 0 10 5.704zM15.6 3.762a.444.444 0 1 0 0 .888.444.444 0 0 0 0-.888z"/></symbol><symbol viewBox="0 0 169.063 169.063" id="instagram---outline" xmlns="http://www.w3.org/2000/svg"><path d="M122.406 0H46.654C20.929 0 0 20.93 0 46.655v75.752c0 25.726 20.929 46.655 46.654 46.655h75.752c25.727 0 46.656-20.93 46.656-46.655V46.655C169.063 20.93 148.133 0 122.406 0zm31.657 122.407c0 17.455-14.201 31.655-31.656 31.655H46.654C29.2 154.063 15 139.862 15 122.407V46.655C15 29.201 29.2 15 46.654 15h75.752c17.455 0 31.656 14.201 31.656 31.655v75.752z"/><path d="M84.531 40.97c-24.021 0-43.563 19.542-43.563 43.563 0 24.02 19.542 43.561 43.563 43.561s43.563-19.541 43.563-43.561c0-24.021-19.542-43.563-43.563-43.563zm0 72.123c-15.749 0-28.563-12.812-28.563-28.561 0-15.75 12.813-28.563 28.563-28.563s28.563 12.813 28.563 28.563c0 15.749-12.814 28.561-28.563 28.561zM129.921 28.251c-2.89 0-5.729 1.17-7.77 3.22a11.053 11.053 0 0 0-3.23 7.78c0 2.891 1.18 5.73 3.23 7.78 2.04 2.04 4.88 3.22 7.77 3.22 2.9 0 5.73-1.18 7.78-3.22 2.05-2.05 3.22-4.89 3.22-7.78 0-2.9-1.17-5.74-3.22-7.78-2.04-2.05-4.88-3.22-7.78-3.22z"/></symbol><symbol viewBox="0 0 512 512" id="location" xmlns="http://www.w3.org/2000/svg"><path d="M256 0C156.748 0 76 80.748 76 180c0 33.534 9.289 66.26 26.869 94.652l142.885 230.257A15 15 0 0 0 258.499 512h.119a14.997 14.997 0 0 0 12.75-7.292L410.611 272.22C427.221 244.428 436 212.539 436 180 436 80.748 355.252 0 256 0zm128.866 256.818L258.272 468.186l-129.905-209.34C113.734 235.214 105.8 207.95 105.8 180c0-82.71 67.49-150.2 150.2-150.2S406.1 97.29 406.1 180c0 27.121-7.411 53.688-21.234 76.818z"/><path d="M256 90c-49.626 0-90 40.374-90 90 0 49.309 39.717 90 90 90 50.903 0 90-41.233 90-90 0-49.626-40.374-90-90-90zm0 150.2c-33.257 0-60.2-27.033-60.2-60.2 0-33.084 27.116-60.2 60.2-60.2s60.1 27.116 60.1 60.2c0 32.683-26.316 60.2-60.1 60.2z"/></symbol><symbol viewBox="0 0 512 512" id="location--felled" xmlns="http://www.w3.org/2000/svg"><path d="M256 0C160.01 0 81.92 78.09 81.92 174.08c0 104.53 159.027 324.383 165.806 333.701A10.217 10.217 0 0 0 256 512c3.277 0 6.369-1.577 8.274-4.219 6.779-9.318 165.806-229.171 165.806-333.701C430.08 78.09 351.99 0 256 0zm0 245.76c-39.526 0-71.68-32.154-71.68-71.68S216.474 102.4 256 102.4s71.68 32.154 71.68 71.68-32.154 71.68-71.68 71.68z"/></symbol><symbol viewBox="0 0 512 512" id="logout" xmlns="http://www.w3.org/2000/svg"><path d="M255.15 468.625H63.787c-11.737 0-21.262-9.526-21.262-21.262V64.638c0-11.737 9.526-21.262 21.262-21.262H255.15c11.758 0 21.262-9.504 21.262-21.262S266.908.85 255.15.85H63.787C28.619.85 0 29.47 0 64.638v382.724c0 35.168 28.619 63.787 63.787 63.787H255.15c11.758 0 21.262-9.504 21.262-21.262 0-11.758-9.504-21.262-21.262-21.262z"/><path d="M505.664 240.861L376.388 113.286c-8.335-8.25-21.815-8.143-30.065.213s-8.165 21.815.213 30.065l92.385 91.173H191.362c-11.758 0-21.262 9.504-21.262 21.262 0 11.758 9.504 21.263 21.262 21.263h247.559l-92.385 91.173c-8.377 8.25-8.441 21.709-.213 30.065a21.255 21.255 0 0 0 15.139 6.336c5.401 0 10.801-2.041 14.926-6.124l129.276-127.575A21.303 21.303 0 0 0 512 255.998c0-5.696-2.275-11.118-6.336-15.137z"/></symbol><symbol viewBox="0 0 491.858 491.858" id="minus--bold" xmlns="http://www.w3.org/2000/svg"><path d="M465.167 211.613H26.69c-8.424 0-26.69 11.439-26.69 34.316s18.267 34.316 26.69 34.316h438.479c8.421 0 26.689-11.439 26.689-34.316s-18.268-34.316-26.691-34.316z"/></symbol><symbol viewBox="0 0 51.636 51.636" id="navigation" xmlns="http://www.w3.org/2000/svg"><path d="M51.353.914a.999.999 0 0 0-1.135-.213L.583 23.481a1 1 0 0 0 .252 1.895l22.263 3.731 2.545 21.038a1.002 1.002 0 0 0 1.889.324l24-48.415a1 1 0 0 0-.179-1.14z"/></symbol><symbol viewBox="0 0 95.481 95.481" id="odnoklassniki" xmlns="http://www.w3.org/2000/svg"><path d="M43.041 67.254c-7.402-.772-14.076-2.595-19.79-7.064-.709-.556-1.441-1.092-2.088-1.713-2.501-2.402-2.753-5.153-.774-7.988 1.693-2.426 4.535-3.075 7.489-1.682.572.27 1.117.607 1.639.969 10.649 7.317 25.278 7.519 35.967.329 1.059-.812 2.191-1.474 3.503-1.812 2.551-.655 4.93.282 6.299 2.514 1.564 2.549 1.544 5.037-.383 7.016-2.956 3.034-6.511 5.229-10.461 6.761-3.735 1.448-7.826 2.177-11.875 2.661.611.665.899.992 1.281 1.376 5.498 5.524 11.02 11.025 16.5 16.566 1.867 1.888 2.257 4.229 1.229 6.425-1.124 2.4-3.64 3.979-6.107 3.81-1.563-.108-2.782-.886-3.865-1.977-4.149-4.175-8.376-8.273-12.441-12.527-1.183-1.237-1.752-1.003-2.796.071-4.174 4.297-8.416 8.528-12.683 12.735-1.916 1.889-4.196 2.229-6.418 1.15-2.362-1.145-3.865-3.556-3.749-5.979.08-1.639.886-2.891 2.011-4.014 5.441-5.433 10.867-10.88 16.295-16.322.359-.362.694-.746 1.217-1.305z"/><path d="M47.55 48.329c-13.205-.045-24.033-10.992-23.956-24.218C23.67 10.739 34.505-.037 47.84 0c13.362.036 24.087 10.967 24.02 24.478-.068 13.199-10.971 23.897-24.31 23.851zm12.001-24.186c-.023-6.567-5.253-11.795-11.807-11.801-6.609-.007-11.886 5.316-11.835 11.943.049 6.542 5.324 11.733 11.896 11.709 6.552-.023 11.768-5.285 11.746-11.851z"/></symbol><symbol id="pay-method" viewBox="516 2655 133.704 30" xmlns="http://www.w3.org/2000/svg"><defs id="bldefs4"><style id="blstyle2">.blcls-1{fill:#ffb600}.blcls-2{fill:#f7981d}.blcls-3{fill:#ff8500}.blcls-4{fill:#ff5050}.blcls-5{fill:#e52836}.blcls-6{fill:#cb2026}.blcls-7{fill:#fff}.blcls-8{fill:#dce5e5}</style></defs><g transform="translate(516.077 2554.2)" id="blmastercard"><path transform="translate(-181.6)" d="M231.6 115.8a15 15 0 0 1-30 0 15 15 0 1 1 30 0z" class="blcls-1" data-name="Path 46" id="blPath_46" fill="#ffb600"/><path transform="translate(-181.6)" d="M216.6 100.8a15.039 15.039 0 0 1 15 15 15 15 0 1 1-30 0" class="blcls-2" data-name="Path 47" id="blPath_47" fill="#f7981d"/><path transform="translate(-317.8)" d="M352.8 100.8a15.039 15.039 0 0 1 15 15 14.988 14.988 0 0 1-15 15" class="blcls-3" data-name="Path 48" id="blPath_48" fill="#ff8500"/><path d="M14.841 100.8a15 15 0 0 0 .159 30 15.175 15.175 0 0 0 10.079-3.889 14.262 14.262 0 0 0 1.508-1.587h-3.1a18.307 18.307 0 0 1-1.111-1.508H27.7a10.167 10.167 0 0 0 .873-1.587h-7.065a9.459 9.459 0 0 1-.635-1.587h8.254a15.759 15.759 0 0 0 .794-4.762 20.486 20.486 0 0 0-.321-3.18h-9.2a11.6 11.6 0 0 1 .4-1.587h8.254a9.459 9.459 0 0 0-.635-1.587h-6.99a15.739 15.739 0 0 1 .873-1.587h5.317a7.547 7.547 0 0 0-1.19-1.587h-2.937A13.528 13.528 0 0 1 25 104.848a14.645 14.645 0 0 0-10.079-3.889c0-.159 0-.159-.08-.159z" class="blcls-4" data-name="Path 49" id="blPath_49" fill="#ff5050"/><path transform="translate(0 -1.441)" d="M0 117.241a14.988 14.988 0 0 0 15 15 15.175 15.175 0 0 0 10.079-3.889 14.261 14.261 0 0 0 1.508-1.587h-3.1a18.311 18.311 0 0 1-1.111-1.508H27.7a10.167 10.167 0 0 0 .873-1.587h-7.065a9.459 9.459 0 0 1-.635-1.587h8.254a15.759 15.759 0 0 0 .794-4.762 20.486 20.486 0 0 0-.317-3.175H20.4a11.6 11.6 0 0 1 .4-1.587h8.254a9.459 9.459 0 0 0-.635-1.587h-6.99a15.739 15.739 0 0 1 .873-1.587h5.317a7.548 7.548 0 0 0-1.19-1.587h-2.937A13.528 13.528 0 0 1 25 106.289a14.645 14.645 0 0 0-10.079-3.889h-.079" class="blcls-5" data-name="Path 50" id="blPath_50" fill="#e52836"/><path transform="translate(-134.759 -1.441)" d="M149.759 132.241a15.175 15.175 0 0 0 10.079-3.889 14.26 14.26 0 0 0 1.508-1.587h-3.1a18.311 18.311 0 0 1-1.111-1.508h5.317a10.167 10.167 0 0 0 .873-1.587h-7.063a9.458 9.458 0 0 1-.635-1.587h8.254a15.759 15.759 0 0 0 .794-4.762 20.487 20.487 0 0 0-.317-3.175h-9.206a11.606 11.606 0 0 1 .4-1.587h8.254a9.459 9.459 0 0 0-.635-1.587h-6.984a15.737 15.737 0 0 1 .873-1.587h5.317a7.548 7.548 0 0 0-1.19-1.587h-2.937a13.527 13.527 0 0 1 1.508-1.508 14.645 14.645 0 0 0-10.079-3.889h-.079" class="blcls-6" data-name="Path 51" id="blPath_51" fill="#cb2026"/><g transform="translate(1.429 111.911)" data-name="Group 13" id="blGroup_13"><path transform="translate(-165.013 -219.286)" d="M183.9 226.984l.238-1.349a3.438 3.438 0 0 1-.4.079c-.556 0-.635-.317-.556-.476l.476-2.778h.873l.238-1.508h-.794l.159-.952h-1.587s-.952 5.238-.952 5.873a1.191 1.191 0 0 0 1.27 1.349 2.436 2.436 0 0 0 1.035-.238z" class="blcls-7" data-name="Path 52" id="blPath_52" fill="#fff"/><path transform="translate(-190.956 -227.121)" d="M210.4 232.28a2.524 2.524 0 0 0 2.778 2.778 4.121 4.121 0 0 0 1.667-.238l.317-1.508a4.758 4.758 0 0 1-1.667.4c-1.746 0-1.429-1.27-1.429-1.27h3.254a10.291 10.291 0 0 0 .238-1.429 2.15 2.15 0 0 0-2.3-2.3c-1.668-.163-2.858 1.587-2.858 3.567zm2.778-2.3c.873 0 .714 1.032.714 1.111h-1.746c0-.081.154-1.112 1.032-1.112z" class="blcls-7" data-name="Path 53" id="blPath_53" fill="#fff"/><path transform="translate(-268.064 -212.8)" d="M300.365 220.5l.317-1.746a3.9 3.9 0 0 1-1.349.4c-1.111 0-1.587-.873-1.587-1.825 0-1.9.952-2.937 2.063-2.937a2.65 2.65 0 0 1 1.429.476l.238-1.667a5.58 5.58 0 0 0-1.825-.4c-1.825 0-3.651 1.587-3.651 4.6 0 1.984.952 3.333 2.857 3.333a7.123 7.123 0 0 0 1.508-.234z" class="blcls-7" data-name="Path 54" id="blPath_54" fill="#fff"/><path transform="translate(-79.257 -225.771)" d="M89.416 227.2a5.621 5.621 0 0 0-1.9.317l-.238 1.349a4.691 4.691 0 0 1 1.746-.317c.556 0 1.032.079 1.032.556 0 .317-.079.4-.079.4h-.714c-1.349 0-2.857.556-2.857 2.381 0 1.429.952 1.746 1.508 1.746a2.385 2.385 0 0 0 1.667-.714l-.079.635h1.429l.635-4.365a1.881 1.881 0 0 0-2.15-1.988zm.317 3.571c0 .238-.159 1.508-1.111 1.508a.619.619 0 0 1-.635-.635c0-.4.238-.952 1.429-.952a1.251 1.251 0 0 0 .317.079z" class="blcls-7" data-name="Path 55" id="blPath_55" fill="#fff"/><path transform="translate(-123.216 -225.051)" d="M137.025 232.908a2.034 2.034 0 0 0 2.381-2.063c0-1.984-1.9-1.587-1.9-2.381 0-.4.317-.556.873-.556.238 0 1.111.079 1.111.079l.238-1.429a6.028 6.028 0 0 0-1.508-.159c-1.19 0-2.381.476-2.381 2.063 0 1.825 1.984 1.667 1.984 2.381 0 .476-.556.556-.952.556a5.19 5.19 0 0 1-1.429-.238l-.238 1.429c.075.159.472.318 1.821.318z" class="blcls-7" data-name="Path 56" id="blPath_56" fill="#fff"/><path transform="translate(-386.248 -214.241)" d="M431.724 214.4l-.317 2.143a2.2 2.2 0 0 0-1.508-.794c-1.429 0-2.7 1.746-2.7 3.81 0 1.27.635 2.619 1.984 2.619a2.119 2.119 0 0 0 1.508-.635l-.079.556h1.588l1.19-7.619zm-.714 4.206c0 .873-.4 1.984-1.27 1.984-.556 0-.873-.476-.873-1.27 0-1.27.556-2.063 1.27-2.063.555 0 .872.397.872 1.349z" class="blcls-7" data-name="Path 57" id="blPath_57" fill="#fff"/><path transform="translate(-14.4 -214.241)" d="M15.908 222.019l.952-5.714.159 5.714h1.111l2.063-5.714-.873 5.714h1.667l1.27-7.619h-2.619l-1.587 4.683-.079-4.683h-2.3l-1.27 7.619z" class="blcls-7" data-name="Path 58" id="blPath_58" fill="#fff"/><path transform="translate(-235.635 -227.213)" d="M261.746 234.99c.476-2.619.556-4.762 1.667-4.365a6.228 6.228 0 0 1 .556-1.825h-.317c-.714 0-1.27.952-1.27.952l.159-.873h-1.508L260 235.07h1.746z" class="blcls-7" data-name="Path 59" id="blPath_59" fill="#fff"/><path transform="translate(-313.464 -225.771)" d="M349.416 227.2a5.621 5.621 0 0 0-1.9.317l-.238 1.349a4.691 4.691 0 0 1 1.746-.317c.556 0 1.032.079 1.032.556 0 .317-.079.4-.079.4h-.714c-1.349 0-2.857.556-2.857 2.381 0 1.429.952 1.746 1.508 1.746a2.385 2.385 0 0 0 1.667-.714l-.079.635h1.429l.635-4.365a1.853 1.853 0 0 0-2.15-1.988zm.4 3.571c0 .238-.159 1.508-1.111 1.508a.619.619 0 0 1-.635-.635c0-.4.238-.952 1.429-.952.234.079.234.079.314.079z" class="blcls-7" data-name="Path 60" id="blPath_60" fill="#fff"/><path transform="translate(-356.702 -227.213)" d="M396.146 234.99c.476-2.619.556-4.762 1.667-4.365a6.229 6.229 0 0 1 .556-1.825h-.317c-.714 0-1.27.952-1.27.952l.159-.873h-1.508l-1.032 6.19h1.746z" class="blcls-7" data-name="Path 61" id="blPath_61" fill="#fff"/></g><g transform="translate(1.429 111.911)" data-name="Group 14" id="blGroup_14"><path transform="translate(-163.571 -219.286)" d="M180 225.873a1.191 1.191 0 0 0 1.27 1.349 3.021 3.021 0 0 0 1.19-.238l.238-1.349a3.437 3.437 0 0 1-.4.079c-.556 0-.635-.317-.556-.476l.476-2.778h.873l.238-1.508h-.794l.165-.952" class="blcls-8" data-name="Path 62" id="blPath_62" fill="#dce5e5"/><path transform="translate(-198.162 -227.121)" d="M218.4 232.28c0 2.222.714 2.778 1.984 2.778a4.121 4.121 0 0 0 1.667-.238l.317-1.508a4.758 4.758 0 0 1-1.667.4c-1.746 0-1.429-1.27-1.429-1.27h3.254a10.291 10.291 0 0 0 .238-1.429 2.15 2.15 0 0 0-2.3-2.3c-1.664-.163-2.064 1.587-2.064 3.567zm1.984-2.3c.873 0 1.032 1.032 1.032 1.111h-2.063c-.001-.081.158-1.112 1.031-1.112z" class="blcls-8" data-name="Path 63" id="blPath_63" fill="#dce5e5"/><path transform="translate(-275.27 -212.8)" d="M307.571 220.5l.317-1.746a3.9 3.9 0 0 1-1.349.4c-1.111 0-1.587-.873-1.587-1.825 0-1.9.952-2.937 2.063-2.937a2.65 2.65 0 0 1 1.429.476l.238-1.667a5.58 5.58 0 0 0-1.825-.4c-1.825 0-2.857 1.587-2.857 4.6 0 1.984.159 3.333 2.064 3.333a7.123 7.123 0 0 0 1.507-.234z" class="blcls-8" data-name="Path 64" id="blPath_64" fill="#dce5e5"/><path transform="translate(-79.257 -227.213)" d="M87.273 230.387a4.691 4.691 0 0 1 1.746-.317c.556 0 1.032.079 1.032.556 0 .317-.079.4-.079.4h-.714c-1.349 0-2.857.556-2.857 2.381 0 1.429.952 1.746 1.508 1.746a2.385 2.385 0 0 0 1.667-.714l-.079.635h1.429l.635-4.365c0-1.825-1.587-1.9-2.222-1.9m1.19 3.413a2.6 2.6 0 0 1-1.9 1.508.619.619 0 0 1-.635-.635c0-.4.238-.952 1.429-.952a6.484 6.484 0 0 0 1.104.07z" class="blcls-8" data-name="Path 65" id="blPath_65" fill="#dce5e5"/><path transform="translate(-123.937 -225.051)" d="M136 232.749a6.717 6.717 0 0 0 1.825.159 2.034 2.034 0 0 0 2.381-2.063c0-1.984-1.9-1.587-1.9-2.381 0-.4.317-.556.873-.556.238 0 1.111.079 1.111.079l.238-1.429a6.028 6.028 0 0 0-1.508-.159c-1.19 0-1.587.476-1.587 2.063 0 1.825 1.19 1.667 1.19 2.381 0 .476-.556.556-.952.556" class="blcls-8" data-name="Path 66" id="blPath_66" fill="#dce5e5"/><path transform="translate(-393.402 -214.962)" d="M438.56 217.263a2.2 2.2 0 0 0-1.508-.794c-1.429 0-1.9 1.746-1.9 3.81 0 1.27-.159 2.619 1.19 2.619a2.119 2.119 0 0 0 1.508-.635l-.079.556h1.587l1.19-7.619m-2.063 4.127c0 .873-.714 1.984-1.587 1.984-.556 0-.873-.476-.873-1.27 0-1.27.556-2.063 1.27-2.063a1.213 1.213 0 0 1 1.186 1.349z" class="blcls-8" data-name="Path 67" id="blPath_67" fill="#dce5e5"/><path transform="translate(-14.4 -214.241)" d="M15.908 222.019l.952-5.714.159 5.714h1.111l2.063-5.714-.873 5.714h1.667l1.27-7.619h-1.984l-2.222 4.683-.079-4.683H17.1l-2.7 7.619z" class="blcls-8" data-name="Path 68" id="blPath_68" fill="#dce5e5"/><path transform="translate(-236.356 -227.213)" d="M260.8 234.99h1.667c.476-2.619.556-4.762 1.667-4.365a6.23 6.23 0 0 1 .556-1.825h-.317c-.714 0-1.27.952-1.27.952l.159-.873" class="blcls-8" data-name="Path 69" id="blPath_69" fill="#dce5e5"/><path transform="translate(-313.464 -227.213)" d="M347.273 230.387a4.692 4.692 0 0 1 1.746-.317c.556 0 1.032.079 1.032.556 0 .317-.079.4-.079.4h-.714c-1.349 0-2.857.556-2.857 2.381 0 1.429.952 1.746 1.508 1.746a2.385 2.385 0 0 0 1.667-.714l-.079.635h1.429l.635-4.365c0-1.825-1.587-1.9-2.222-1.9m1.19 3.413a2.6 2.6 0 0 1-1.9 1.508.62.62 0 0 1-.635-.635c0-.4.238-.952 1.429-.952a6.982 6.982 0 0 0 1.104.07z" class="blcls-8" data-name="Path 70" id="blPath_70" fill="#dce5e5"/><path transform="translate(-357.422 -227.213)" d="M395.2 234.99h1.667c.476-2.619.556-4.762 1.667-4.365a6.229 6.229 0 0 1 .556-1.825h-.317c-.714 0-1.27.952-1.27.952l.159-.873" class="blcls-8" data-name="Path 71" id="blPath_71" fill="#dce5e5"/></g></g><g transform="translate(569.817 2557.27)" id="blvisa"><g transform="translate(7.465 100.23)" data-name="Group 12" id="blGroup_12"><g data-name="Group 11" id="blGroup_11"><path transform="translate(-27.262 -100.23)" d="M52.451 100.23l-4.009 24.95h6.408l4.007-24.95zm19.33 10.163c-2.239-1.106-3.612-1.852-3.612-2.983.027-1.028 1.161-2.082 3.692-2.082a11.152 11.152 0 0 1 4.773.924l.582.26.871-5.22a16.175 16.175 0 0 0-5.752-1.028c-6.329 0-10.785 3.29-10.812 8-.052 3.473 3.19 5.4 5.617 6.556 2.479 1.186 3.323 1.955 3.323 3.008-.027 1.618-2 2.364-3.849 2.364A13.033 13.033 0 0 1 60.6 118.9l-.844-.384-.9 5.425a20.013 20.013 0 0 0 7.147 1.288c6.726 0 11.1-3.241 11.157-8.256.026-2.75-1.684-4.857-5.378-6.58zm22.735-10.086h-4.957a3.176 3.176 0 0 0-3.35 2.007l-9.52 22.866h6.726l1.852-4.95h7.524l.961 4.97h5.932zm-7.385 14.926c.13.013 2.581-8.081 2.581-8.081l1.952 8.081zm-44.045-15l-6.279 16.951-.684-3.343c-1.161-3.857-4.8-8.049-8.863-10.131l5.749 21.447h6.781l10.076-24.922h-6.779z" class="blcls-1" data-name="Path 44" id="blPath_44" fill="#2394bc"/></g></g><path transform="translate(0 -.013)" d="M14.215 103.461a4.187 4.187 0 0 0-4.169-3.213H.1l-.1.462c7.757 1.912 14.267 7.8 16.379 13.331z" class="blcls-2" data-name="Path 45" id="blPath_45" fill="#efc75e"/></g></symbol><symbol viewBox="0 0 512 512" id="paypal" xmlns="http://www.w3.org/2000/svg"><path d="M428.876 132.28a175.921 175.921 0 0 0 1.32-21.497C430.196 49.6 380.597 0 319.413 0H134.271c-11.646 0-21.589 8.41-23.521 19.894L42.53 425.369c-2.448 14.55 8.768 27.809 23.521 27.809h67.711c11.646 0 21.776-8.404 23.707-19.889l.317-1.885h.001l-9.436 56.086c-2.156 12.823 7.729 24.51 20.732 24.51h59.237c10.265 0 19.029-7.413 20.731-17.535l16.829-100.02c2.901-17.242 17.828-29.867 35.311-29.867h15.562c84.53 0 153.054-68.525 153.054-153.054 0-32.709-16.168-61.622-40.931-79.244z" fill="#002987"/><path d="M428.876 132.28c-10.594 86.179-84.044 152.91-173.086 152.91h-51.665c-11.661 0-21.732 7.767-24.891 18.749l-30.882 183.549C146.195 500.312 156.08 512 169.083 512h59.237c10.265 0 19.029-7.413 20.731-17.535l16.829-100.02c2.901-17.242 17.828-29.867 35.311-29.867h15.562c84.53 0 153.054-68.525 153.054-153.054 0-32.709-16.168-61.622-40.931-79.244z" fill="#0085cc"/><path d="M204.125 285.19h51.665c89.043 0 162.493-66.731 173.086-152.909-15.888-11.306-35.304-17.978-56.29-17.978h-134.85c-15.353 0-28.462 11.087-31.01 26.227l-27.493 163.408c3.159-10.982 13.231-18.748 24.892-18.748z" fill="#00186a"/></symbol><symbol viewBox="0 0 486.1 486.1" id="phone" xmlns="http://www.w3.org/2000/svg"><path d="M414.8 71.25C368.9 25.35 307.9.05 243 .05s-125.9 25.3-171.8 71.2S0 178.15 0 243.05s25.3 125.9 71.2 171.8 106.9 71.2 171.8 71.2c37.7 0 72.1-7 99.4-20.1 25.9-12.5 44.7-30.4 53-50.3 9.9-23.9 4.3-48.8-15.3-68.4l-.7-.7c.3-.4.7-.7 1-1 14-14.7 14-34-.2-48.2l-34.6-34.6c-6.8-7-15-10.8-23.7-10.8s-17 3.7-24 10.7l-18 18c-.9-.5-1.7-.9-2.6-1.3-2.2-1.1-4.2-2.1-5.9-3.2-18.3-11.6-34.9-26.8-50.8-46.3-7-8.8-11.8-16.3-15.4-23.7 4.5-4.2 8.7-8.5 12.8-12.7 1.7-1.8 3.5-3.5 5.3-5.3 14.7-14.7 14.7-33.7 0-48.4l-17.1-17.1c-2-2-3.9-3.9-5.8-5.9-3.8-3.9-7.7-7.9-11.9-11.8-6.8-6.7-14.9-10.2-23.5-10.2s-16.8 3.5-23.8 10.2l-.2.2-21.5 21.5c-8.6 8.6-13.6 19.2-14.6 31.4-1.5 19 4 36.6 8.3 48.1 10.3 27.8 25.7 53.6 48.6 81.2 27.8 33.2 61.3 59.5 99.6 78 14.7 7 34.4 15.2 56.6 16.7 1.4.1 2.8.1 4.2.1 15.5 0 28.6-5.6 38.8-16.7l.4-.4c.3-.4.7-.8 1.1-1.2l.6.6c12.8 12.8 16.3 27.4 10.1 42.3-11.5 27.3-56.2 55.3-130.2 55.3-120.8 0-219-98.2-219-219s98.2-219 219-219 219 98.2 219 219c0 19.9-2.7 39.5-7.9 58.4-1.8 6.4 2 13 8.4 14.8s13-2 14.8-8.4c5.8-21 8.8-42.8 8.8-64.8-.1-64.9-25.4-125.9-71.3-171.8zm-71.6 277.9c-5.7 6.1-12.1 8.8-21 8.8-.9 0-1.8 0-2.7-.1-18-1.2-35-8.3-47.7-14.4-35.1-17-65.9-41.1-91.5-71.7-21.1-25.4-35.2-48.9-44.6-74.1-5.6-15.2-7.7-26.8-6.9-37.8.6-6.5 3-11.8 7.7-16.4l21.5-21.4c1.7-1.6 4.3-3.5 7.1-3.5s5.2 1.8 6.7 3.4l.3.3c3.8 3.5 7.4 7.2 11.2 11.1 2 2 4 4.1 6 6.1l17.1 17.1c5.3 5.3 5.3 9.2 0 14.5l-5.4 5.4c-5.3 5.3-10.2 10.4-15.6 15.2-.2.1-.3.3-.5.5-7.5 7.5-4.9 15.3-4.1 17.9.1.3.2.5.3.8 4.6 11.1 11 21.5 20.8 33.9l.1.1c17.6 21.7 36.1 38.5 56.6 51.5 2.7 1.7 5.4 3.1 8 4.4 2.2 1.1 4.2 2.1 5.9 3.2.3.2.7.4 1.1.6 2.6 1.3 5.2 1.9 7.8 1.9 4.4 0 8.5-1.8 12-5.4l21.5-21.5c1.7-1.7 4.2-3.7 7-3.7 2.6 0 5 1.9 6.5 3.5l.2.2 34.6 34.6c4.9 4.9 4.9 9.4-.2 14.7l-.1.1c-2.3 2.5-4.8 4.9-7.5 7.5-4 3.9-8.2 8-12.2 12.7z"/></symbol><symbol viewBox="0 0 548.165 548.165" id="photo-camera" xmlns="http://www.w3.org/2000/svg"><path d="M526.76 131.045c-14.277-14.274-31.498-21.413-51.675-21.413h-63.953l-14.558-38.826c-3.618-9.325-10.229-17.368-19.846-24.128-9.613-6.757-19.462-10.138-29.551-10.138H200.996c-10.088 0-19.939 3.381-29.552 10.138-9.613 6.76-16.225 14.803-19.842 24.128l-14.56 38.826H73.089c-20.179 0-37.401 7.139-51.678 21.413C7.137 145.32 0 162.544 0 182.721v255.813c0 20.178 7.137 37.404 21.411 51.675 14.277 14.277 31.5 21.416 51.678 21.416h401.989c20.177 0 37.397-7.139 51.675-21.416 14.273-14.271 21.412-31.497 21.412-51.675V182.721c.004-20.177-7.135-37.401-21.405-51.676zM364.446 400.993c-25.029 25.03-55.147 37.548-90.362 37.548s-65.331-12.518-90.362-37.548c-25.031-25.026-37.544-55.151-37.544-90.358 0-35.218 12.517-65.333 37.544-90.364 25.028-25.031 55.148-37.544 90.362-37.544s65.333 12.516 90.362 37.544c25.03 25.028 37.545 55.146 37.545 90.364 0 35.207-12.514 65.329-37.545 90.358z"/><path d="M274.084 228.403c-22.651 0-42.018 8.042-58.102 24.128-16.084 16.084-24.126 35.448-24.126 58.104 0 22.647 8.042 42.014 24.126 58.098 16.084 16.081 35.45 24.123 58.102 24.123 22.648 0 42.017-8.042 58.101-24.123 16.084-16.084 24.127-35.45 24.127-58.098 0-22.655-8.043-42.019-24.127-58.104-16.083-16.085-35.453-24.128-58.101-24.128z"/></symbol><symbol viewBox="0 0 512 512" id="plus" xmlns="http://www.w3.org/2000/svg"><path d="M256 0c-11.422 0-20.682 9.26-20.682 20.682v470.636c0 11.423 9.26 20.682 20.682 20.682 11.423 0 20.682-9.259 20.682-20.682V20.682C276.682 9.26 267.423 0 256 0z"/><path d="M491.318 235.318H20.682C9.26 235.318 0 244.578 0 256c0 11.423 9.26 20.682 20.682 20.682h470.636c11.423 0 20.682-9.259 20.682-20.682 0-11.422-9.259-20.682-20.682-20.682z"/></symbol><symbol viewBox="0 0 286.376 286.376" id="plus--bold" xmlns="http://www.w3.org/2000/svg"><path d="M268.477 125.29H161.086V17.899c0-9.885-8.013-17.898-17.898-17.898S125.29 8.014 125.29 17.899v107.39H17.9c-9.885 0-17.9 8.013-17.9 17.898s8.015 17.898 17.9 17.898h107.39v107.39c0 9.885 8.013 17.898 17.898 17.898s17.898-8.013 17.898-17.898v-107.39h107.391c9.885 0 17.898-8.014 17.898-17.898.001-9.884-8.013-17.897-17.898-17.897z" fill-rule="evenodd" clip-rule="evenodd"/></symbol><symbol viewBox="0 0 2133.335 405.785" id="rating" xmlns="http://www.w3.org/2000/svg"><path fill="#fac917" d="M320 258.969l25.173 146.816-131.84-69.316-131.848 69.316 25.182-146.816L0 154.995l147.409-21.419L213.333 0l65.916 133.576 147.418 21.419z"/><path fill="#fac917" d="M426.667 154.995l147.409-21.419L640 0l65.916 133.576 147.418 21.419-106.667 103.974 25.173 146.816L640 336.469l-131.848 69.316 25.182-146.816zM853.334 154.995l147.409-21.419L1066.667 0l65.916 133.576 147.418 21.419-106.667 103.974 25.173 146.816-131.84-69.316-131.848 69.316 25.182-146.816zM1600.001 258.969l25.173 146.816-131.84-69.316-131.848 69.316 25.182-146.816-106.667-103.974 147.409-21.419L1493.334 0l65.916 133.576 147.418 21.419z"/><path fill="#fac917" d="M1706.668 154.995l147.409-21.419L1920.001 0l65.916 133.576 147.418 21.419-106.667 103.974 25.173 146.816-131.84-69.316-131.848 69.316 25.182-146.816z"/></symbol><symbol viewBox="0 0 2133.335 405.785" id="rating--gray" xmlns="http://www.w3.org/2000/svg"><path fill-opacity=".118" d="M320 258.969l25.173 146.816-131.84-69.316-131.848 69.316 25.182-146.816L0 154.995l147.409-21.419L213.333 0l65.916 133.576 147.418 21.419z"/><path fill-opacity=".118" d="M426.667 154.995l147.409-21.419L640 0l65.916 133.576 147.418 21.419-106.667 103.974 25.173 146.816L640 336.469l-131.848 69.316 25.182-146.816zM853.334 154.995l147.409-21.419L1066.667 0l65.916 133.576 147.418 21.419-106.667 103.974 25.173 146.816-131.84-69.316-131.848 69.316 25.182-146.816zM1600.001 258.969l25.173 146.816-131.84-69.316-131.848 69.316 25.182-146.816-106.667-103.974 147.409-21.419L1493.334 0l65.916 133.576 147.418 21.419z"/><path fill-opacity=".118" d="M1706.668 154.995l147.409-21.419L1920.001 0l65.916 133.576 147.418 21.419-106.667 103.974 25.173 146.816-131.84-69.316-131.848 69.316 25.182-146.816z"/></symbol><symbol viewBox="0 0 512 512" id="rub" xmlns="http://www.w3.org/2000/svg"><path d="M284.774 0H96v236.749H70.4v76.8H96v34.191H70.4v76.8H96V512h76.8v-87.46h96v-76.8h-96V313.6h111.995c86.467 0 156.805-70.339 156.805-156.795C441.6 70.339 371.261 0 284.774 0zm.031 236.8H172.8V76.79h112.005c44.114 0 80.005 35.891 80.005 80.005S328.919 236.8 284.805 236.8z"/></symbol><symbol viewBox="0 0 483.083 483.083" id="search" xmlns="http://www.w3.org/2000/svg"><path d="M332.74 315.35c30.883-33.433 50.15-78.2 50.15-127.5C382.89 84.433 298.74 0 195.04 0S7.19 84.433 7.19 187.85 91.34 375.7 195.04 375.7c42.217 0 81.033-13.883 112.483-37.4l139.683 139.683c3.4 3.4 7.65 5.1 11.9 5.1s8.783-1.7 11.9-5.1c6.517-6.517 6.517-17.283 0-24.083L332.74 315.35zM41.19 187.85C41.19 103.133 110.04 34 195.04 34c84.717 0 153.85 68.85 153.85 153.85S280.04 341.7 195.04 341.7 41.19 272.567 41.19 187.85z"/></symbol><symbol viewBox="0 0 56.966 56.966" id="search--bold" xmlns="http://www.w3.org/2000/svg"><path d="M55.146 51.887L41.588 37.786A22.926 22.926 0 0 0 46.984 23c0-12.682-10.318-23-23-23s-23 10.318-23 23 10.318 23 23 23c4.761 0 9.298-1.436 13.177-4.162l13.661 14.208c.571.593 1.339.92 2.162.92.779 0 1.518-.297 2.079-.837a3.004 3.004 0 0 0 .083-4.242zM23.984 6c9.374 0 17 7.626 17 17s-7.626 17-17 17-17-7.626-17-17 7.626-17 17-17z"/></symbol><symbol viewBox="-60 0 512 512" id="trash" xmlns="http://www.w3.org/2000/svg"><path d="M392.98 137.363V62.055H274.992V0h-157v62.055H0v75.308zM147.992 30h97v32.055h-97zm0 0M22.5 512h347.984V167.363H22.5zm231.363-271.82h30v197h-30zm-72.37 0h30v197h-30zm-72.376 0h30v197h-30zm0 0"/></symbol><symbol viewBox="0 0 513.32 513.32" id="user" xmlns="http://www.w3.org/2000/svg"><path d="M346.491 316.547c49.193-29.944 81.275-83.414 81.275-145.44C427.767 76.998 350.768 0 256.66 0S85.553 76.998 85.553 171.107c0 62.026 32.082 115.497 81.275 145.44C81.275 348.63 17.11 423.489 0 513.32h42.777c21.388-98.386 109.081-171.107 213.883-171.107s192.495 72.72 213.883 171.107h42.777c-17.11-91.97-81.275-166.829-166.829-196.773zM128.33 171.107c0-70.581 57.749-128.33 128.33-128.33s128.33 57.749 128.33 128.33-57.749 128.33-128.33 128.33-128.33-57.749-128.33-128.33z"/></symbol><symbol viewBox="0 0 33 33" id="user--filled" xmlns="http://www.w3.org/2000/svg"><path fill="#e7eced" d="M11.59 25.871l-4.924 2.686a4.424 4.424 0 0 0-.79.562 16.424 16.424 0 0 0 10.625 3.88c4.018 0 7.7-1.438 10.563-3.825a4.368 4.368 0 0 0-.868-.582l-5.273-2.636a2.01 2.01 0 0 1-1.111-1.798V22.09c.148-.17.318-.386.499-.642a12.131 12.131 0 0 0 1.639-3.302 1.656 1.656 0 0 0 1.174-1.576v-2.208c0-.485-.216-.92-.552-1.223V9.947s.656-4.967-6.07-4.967c-6.727 0-6.072 4.967-6.072 4.967v3.192a1.646 1.646 0 0 0-.551 1.223v2.208c0 .582.305 1.094.763 1.39.552 2.401 1.996 4.13 1.996 4.13v2.017c0 .735-.403 1.412-1.048 1.764z"/><path fill="#556080" d="M16.783 0C7.67-.154.158 7.106.003 16.218c-.089 5.166 2.214 9.81 5.88 12.897.24-.21.497-.401.783-.557l4.923-2.685a2.011 2.011 0 0 0 1.048-1.766V22.09s-1.445-1.729-1.996-4.13a1.656 1.656 0 0 1-.764-1.39v-2.207c0-.486.216-.92.552-1.224V9.946S9.773 4.98 16.5 4.98c6.727 0 6.071 4.967 6.071 4.967v3.192c.336.304.552.738.552 1.224v2.208c0 .742-.498 1.366-1.175 1.575a12.131 12.131 0 0 1-1.639 3.303c-.18.256-.35.472-.498.641v2.068c0 .762.43 1.459 1.111 1.799l5.272 2.635c.317.159.602.358.866.58a16.459 16.459 0 0 0 5.938-12.39C33.154 7.669 25.895.156 16.783 0z"/></symbol><symbol viewBox="0 0 25 25" id="viber" xmlns="http://www.w3.org/2000/svg"><path data-name="Path 800" d="M12.5 0A12.492 12.492 0 0 0 2.38 19.827L.822 24.47l4.8-1.536A12.5 12.5 0 1 0 12.5 0z" fill="#7d3daf"/><path data-name="Path 695" d="M16.18 18.833c-.252-.077-.493-.128-.716-.221a16.261 16.261 0 0 1-6.128-4.1 15.9 15.9 0 0 1-2.344-3.587c-.3-.611-.554-1.247-.813-1.878a1.629 1.629 0 0 1 .477-1.6 3.768 3.768 0 0 1 1.262-.948.81.81 0 0 1 1.013.24 13.069 13.069 0 0 1 1.568 2.194 1.044 1.044 0 0 1-.293 1.415c-.119.081-.227.175-.337.266a1.1 1.1 0 0 0-.255.268.735.735 0 0 0-.049.646 5.844 5.844 0 0 0 3.282 3.634 1.67 1.67 0 0 0 .841.2c.514-.06.681-.624 1.041-.919a.981.981 0 0 1 1.181-.052c.379.24.747.5 1.113.758a12.74 12.74 0 0 1 1.047.8.831.831 0 0 1 .249 1.028 3.477 3.477 0 0 1-1.494 1.646 3.6 3.6 0 0 1-.646.206c-.252-.072.22-.063.001.004z" fill="#fff"/><path data-name="Path 696" d="M13.291 5.723a5.7 5.7 0 0 1 5.608 4.717c.084.473.114.956.152 1.436a.337.337 0 0 1-.316.4c-.225 0-.326-.186-.341-.387-.029-.4-.049-.8-.1-1.2a5.017 5.017 0 0 0-4.04-4.193c-.313-.056-.634-.071-.951-.1-.2-.021-.463-.033-.508-.283a.343.343 0 0 1 .338-.386h.163c2.803.075-.059-.004-.005-.004z" fill="#fff"/><path data-name="Path 697" d="M17.552 11.258a1.287 1.287 0 0 1-.028.2.319.319 0 0 1-.6.033.849.849 0 0 1-.034-.271 3.4 3.4 0 0 0-.43-1.706 3.175 3.175 0 0 0-1.331-1.256 3.831 3.831 0 0 0-1.061-.326c-.16-.026-.322-.043-.482-.065a.306.306 0 0 1-.29-.343.3.3 0 0 1 .336-.3 4.414 4.414 0 0 1 1.84.479 3.72 3.72 0 0 1 2.025 2.891c.009.059.023.117.027.176.011.146.018.292.029.485-.005.041-.012-.186-.001.003z" fill="#fff"/><path data-name="Path 698" d="M15.803 11.197a.347.347 0 0 1-.385-.341 3.53 3.53 0 0 0-.066-.448 1.262 1.262 0 0 0-.466-.731 1.215 1.215 0 0 0-.379-.183c-.172-.05-.351-.036-.523-.078a.321.321 0 0 1-.261-.372.337.337 0 0 1 .356-.271 1.931 1.931 0 0 1 1.978 1.923.889.889 0 0 1 0 .272.279.279 0 0 1-.251.23c-.241.004.097-.007-.003-.001z" fill="#fff"/></symbol><symbol viewBox="0 0 26 15" id="vk" xmlns="http://www.w3.org/2000/svg"><path d="M25.862 13.397a1.794 1.794 0 0 0-.088-.17c-.451-.812-1.313-1.809-2.585-2.991l-.027-.027-.014-.014-.014-.013h-.013c-.578-.55-.943-.92-1.096-1.11-.28-.361-.343-.727-.19-1.097.108-.28.514-.87 1.218-1.773.37-.479.663-.862.88-1.15 1.561-2.077 2.238-3.403 2.03-3.98l-.08-.136c-.054-.081-.194-.155-.42-.223-.226-.068-.514-.079-.866-.034l-3.899.027a.506.506 0 0 0-.27.007l-.177.04-.068.034-.053.041a.6.6 0 0 0-.15.142.928.928 0 0 0-.134.237 22.111 22.111 0 0 1-1.45 3.046c-.333.56-.64 1.044-.92 1.455-.28.41-.514.713-.703.907-.19.194-.361.35-.515.467-.153.117-.27.167-.352.149a9.934 9.934 0 0 1-.23-.054.901.901 0 0 1-.305-.332 1.484 1.484 0 0 1-.155-.528 5.78 5.78 0 0 1-.048-.548 11.85 11.85 0 0 1 .007-.65c.01-.28.014-.47.014-.569a32 32 0 0 1 .02-1.116c.014-.402.024-.72.034-.955.009-.234.013-.483.013-.744a3.17 3.17 0 0 0-.047-.616 2.108 2.108 0 0 0-.142-.433.73.73 0 0 0-.277-.325 1.566 1.566 0 0 0-.454-.183C13.858.07 13.25.01 12.508.002c-1.678-.018-2.757.09-3.235.325-.19.1-.361.235-.514.406-.163.199-.185.307-.068.325.541.08.925.275 1.15.582l.082.162c.063.118.126.325.19.623.063.298.103.627.121.988.045.659.045 1.223 0 1.692a20.1 20.1 0 0 1-.129 1.097c-.04.261-.101.474-.182.636a2.684 2.684 0 0 1-.163.298.233.233 0 0 1-.067.067c-.118.045-.24.068-.366.068s-.28-.063-.46-.19c-.18-.126-.368-.3-.562-.52a6.967 6.967 0 0 1-.657-.928 16.183 16.183 0 0 1-.758-1.408l-.216-.392c-.135-.253-.32-.62-.555-1.104a21.54 21.54 0 0 1-.623-1.4.892.892 0 0 0-.325-.434l-.067-.04a.927.927 0 0 0-.217-.116c-.1-.04-.203-.07-.311-.088L.866.678C.489.678.23.764.096.936l-.054.08A.438.438 0 0 0 0 1.234c0 .1.027.222.081.366.542 1.272 1.13 2.5 1.767 3.682.636 1.182 1.189 2.135 1.658 2.856.47.722.948 1.404 1.435 2.044.487.641.81 1.052.968 1.232.158.18.282.316.372.406l.339.325c.216.217.534.476.954.778.42.303.884.6 1.394.894.51.293 1.104.532 1.78.717.677.186 1.336.26 1.977.224h1.557c.316-.027.555-.127.717-.298l.054-.068a.895.895 0 0 0 .102-.25c.031-.113.047-.237.047-.372-.01-.388.02-.738.088-1.05.067-.31.144-.545.23-.703a1.727 1.727 0 0 1 .522-.596.904.904 0 0 1 .107-.047c.217-.072.472-.002.766.21.293.212.568.474.826.785.257.312.566.661.927 1.05.36.387.677.676.947.866l.27.162c.182.109.416.208.705.298.288.09.541.113.758.068l3.465-.054c.343 0 .61-.057.799-.17.19-.113.302-.237.339-.372a1.04 1.04 0 0 0 .006-.46 1.704 1.704 0 0 0-.095-.36z"/></symbol><symbol viewBox="0 0 30 30" id="webmoney" xmlns="http://www.w3.org/2000/svg"><style>.cbst0{fill:#086fb8}</style><path class="cbst0" d="M14.9.1c2.3 0 4.5.5 6.5 1.5.3.1.6.3.9.5L21 3.4l-2-2.2-3.5 3.1-2.1-2.2L7 7.9l4.1 4.6-1.6 1.4 4.1 4.6-1.6 1.4 5.8 6.5 3.5-3.2 3 3.4c-.6.5-1.2.9-2 1.3-2.2 1.2-4.7 1.9-7.3 1.9C6.8 29.8.1 23.2.1 15 .1 6.8 6.8.1 14.9.1z"/><path class="cbst0" d="M12.2 14l3.6-3.1 3.1 3.5-3.5 3.2zm2.5 6.2l3.6-3.2 3.2 3.5-3.6 3.2zM9.7 8l3.5-3.2 3.2 3.6-3.5 3.2zm6.5-1.7l2.6-2.4 2.4 2.7L18.6 9zm4.7 10.9l2.6-2.4 2.4 2.7-2.6 2.4zm2.3 5.4l2.7-2.4 2.4 2.6-2.7 2.4zm1.1-12.3l1.8-1.6 1.5 1.8-1.7 1.6zM22 5.1l1.8-1.6 1.6 1.7-1.8 1.6zm4.6 10.5l1.7-1.6 1.6 1.7-1.8 1.6zm-8-4l2.7-2.4 2.4 2.7-2.7 2.4z"/></symbol><symbol viewBox="0 0 25.003 25.003" id="whatsapp" xmlns="http://www.w3.org/2000/svg"><path data-name="Path 798" d="M12.5 0A12.494 12.494 0 0 0 2.38 19.829L.822 24.474l4.805-1.536A12.5 12.5 0 1 0 12.5 0z" fill="#23d366"/><path data-name="Path 801" d="M16.084 18.84c-.249-.076-.486-.126-.707-.218a16.057 16.057 0 0 1-6.051-4.044 15.7 15.7 0 0 1-2.314-3.542c-.3-.6-.547-1.231-.8-1.854a1.609 1.609 0 0 1 .471-1.584 3.721 3.721 0 0 1 1.246-.936.8.8 0 0 1 1 .237 12.9 12.9 0 0 1 1.548 2.167 1.031 1.031 0 0 1-.289 1.4c-.117.08-.224.173-.333.263a1.091 1.091 0 0 0-.251.265.726.726 0 0 0-.048.638 5.771 5.771 0 0 0 3.241 3.588 1.65 1.65 0 0 0 .831.2c.508-.059.672-.616 1.028-.907a.969.969 0 0 1 1.167-.051c.375.237.738.492 1.1.749a12.584 12.584 0 0 1 1.034.787.82.82 0 0 1 .246 1.015 3.433 3.433 0 0 1-1.475 1.625 3.56 3.56 0 0 1-.638.2c-.255-.074.21-.065-.006.002z" fill="#fff"/></symbol><symbol viewBox="0 0 14 18" id="yandex_money" xmlns="http://www.w3.org/2000/svg"><g fill="none" fill-rule="evenodd"><path d="M0 8.682C0 7.37 1.098 6.565 1.098 6.565L9.692 0v7.412H14V18H1.292C.022 18 0 16.73 0 16.73V8.681z" fill="#FC0"/><path d="M6.677 6.67c.603-.254 1.077 0 1.077.594 0 .592-.474 1.27-1.077 1.545-.603.255-1.077 0-1.077-.593 0-.614.474-1.291 1.077-1.545z" fill="#000"/><path d="M9.692 7.412h2.154v6.353L1.723 16.94l7.97-5.294V7.412z" opacity=".149" fill="#000"/></g></symbol><symbol viewBox="0 0 20 20" id="youtube" xmlns="http://www.w3.org/2000/svg"><path d="M18.9 1.1C18.167.367 17.284 0 16.25 0H3.75C2.717 0 1.834.367 1.1 1.1.367 1.834 0 2.717 0 3.75v12.5c0 1.033.367 1.917 1.1 2.65.734.734 1.617 1.1 2.65 1.1h12.5a3.61 3.61 0 0 0 2.65-1.1 3.61 3.61 0 0 0 1.1-2.65V3.75c0-1.033-.366-1.916-1.1-2.65zm-7.09 1.79h.873v3.542c0 .209.004.321.013.339.008.139.078.208.208.208.174 0 .356-.134.547-.403V2.89h.872v4.817h-.872v-.52c-.356.39-.69.585-1.003.585-.277 0-.464-.117-.56-.351-.052-.156-.078-.395-.078-.716V2.89zM8.516 4.454c0-.503.091-.881.273-1.133.235-.33.573-.494 1.016-.494.425 0 .764.165 1.016.494.182.252.273.63.273 1.133v1.693c0 .52-.091.899-.273 1.133-.252.33-.59.495-1.016.495-.443 0-.781-.165-1.016-.495-.182-.252-.273-.63-.273-1.133V4.453zM6.172 1.237l.69 2.54.664-2.54h.977L7.33 5.09v2.617h-.963V5.091c-.096-.477-.296-1.163-.6-2.057l-.299-.899-.313-.898h1.016zm10.73 15.717a1.83 1.83 0 0 1-.554.95c-.282.26-.61.413-.983.456-1.189.13-2.977.195-5.364.195-2.388 0-4.176-.065-5.365-.195a1.71 1.71 0 0 1-.983-.456 1.832 1.832 0 0 1-.554-.95c-.173-.73-.26-1.858-.26-3.386 0-1.502.087-2.63.26-3.385a1.8 1.8 0 0 1 1.55-1.407c1.18-.13 2.964-.195 5.352-.195 2.396 0 4.184.065 5.364.195.374.044.703.193.99.45.286.255.473.574.56.957.165.72.247 1.848.247 3.385 0 1.528-.087 2.656-.26 3.386z"/><path d="M3.906 11.159h1.016v5.508h.964v-5.508h1.041v-.912h-3.02v.912zM8.671 15.534c-.19.269-.373.403-.547.403-.121 0-.186-.065-.195-.195-.009-.017-.013-.13-.013-.339v-3.515h-.86v3.776c0 .33.027.564.079.703.078.243.26.364.547.364.32 0 .65-.195.99-.586v.521h.872v-4.778H8.67v3.646zM12.045 11.823c-.313 0-.608.173-.885.52v-2.096h-.873v6.42h.873v-.469c.286.356.581.534.885.534.356 0 .586-.183.69-.547.06-.182.09-.5.09-.95v-1.902c0-.46-.03-.781-.09-.963-.104-.365-.334-.547-.69-.547zm-.078 3.477c0 .425-.126.637-.378.638-.147 0-.29-.07-.43-.209v-2.917c.14-.138.283-.208.43-.208.252 0 .378.217.378.651V15.3zM15.208 15.293a2.952 2.952 0 0 1-.013.306c-.052.225-.183.338-.39.338-.296 0-.444-.221-.444-.664v-.846h1.732v-.99c0-.503-.09-.876-.273-1.12-.234-.33-.573-.494-1.016-.494-.443 0-.79.165-1.042.495-.173.234-.26.607-.26 1.12v1.68c0 .511.091.885.273 1.12.252.329.604.494 1.055.494.46 0 .807-.174 1.042-.52.104-.157.17-.33.195-.522.018-.121.026-.308.026-.56v-.117h-.885v.28zm-.846-2.025c0-.443.143-.664.43-.664.286 0 .429.221.429.664v.443h-.86v-.443zM9.805 6.979c.278 0 .417-.221.417-.664V4.283c0-.45-.139-.677-.417-.677-.277 0-.416.226-.416.677v2.032c0 .442.139.664.416.664z"/></symbol><symbol viewBox="0 -73 511.999 511" id="youtube--outline" xmlns="http://www.w3.org/2000/svg"><path d="M425.422 365.387H84.516c-40.36 0-74.348-30.223-79.055-70.317-7.281-61.816-7.281-162.437 0-224.273C10.168 30.719 44.152.5 84.516.5h341.28c40.227 0 74.196 30.102 79.032 70.027L507.57 93.2c5.676 46.848 5.93 123.086.578 169.938l-3.632 31.695c-4.602 40.215-38.598 70.555-79.094 70.555zM84.516 35.25c-22.739 0-41.887 17.04-44.543 39.605-7.016 59.606-7.016 156.567 0 216.157 2.652 22.586 21.804 39.62 44.543 39.62h340.91c22.812 0 41.969-17.085 44.558-39.753l3.633-31.7c5.106-44.593 4.86-117.183-.543-161.808L470.332 74.7c-2.727-22.48-21.875-39.449-44.535-39.449zm0 0"/><path d="M324.563 182.941L203.219 122.13v121.629zm0 0"/><path d="M203.223 261.133a17.28 17.28 0 0 1-9.13-2.598 17.36 17.36 0 0 1-8.245-14.777v-121.63a17.371 17.371 0 0 1 8.246-14.78 17.328 17.328 0 0 1 16.918-.746l121.34 60.812a17.34 17.34 0 0 1 9.586 15.527c0 6.582-3.708 12.59-9.586 15.524l-121.34 60.816a17.252 17.252 0 0 1-7.79 1.852zm17.375-110.856v65.328l65.183-32.664zm0 0"/></symbol></svg>