<?xml version="1.0" encoding="utf-8"?><svg xmlns="http://www.w3.org/2000/svg" xmlns:xlink="http://www.w3.org/1999/xlink"><symbol viewBox="0 0 129 129" id="angle" xmlns="http://www.w3.org/2000/svg"><path d="M40.4 121.3c-.8.8-1.8 1.2-2.9 1.2s-2.1-.4-2.9-1.2c-1.6-1.6-1.6-4.2 0-5.8l51-51-51-51c-1.6-1.6-1.6-4.2 0-5.8 1.6-1.6 4.2-1.6 5.8 0l53.9 53.9c1.6 1.6 1.6 4.2 0 5.8l-53.9 53.9z"/></symbol><symbol viewBox="0 0 512 512" id="arrow--left" xmlns="http://www.w3.org/2000/svg"><path d="M491.318 235.318H20.682C9.26 235.318 0 244.578 0 256c0 11.423 9.26 20.682 20.682 20.682h470.636c11.423 0 20.682-9.259 20.682-20.682 0-11.422-9.259-20.682-20.682-20.682z"/><path d="M49.932 256L211.795 94.136c8.077-8.077 8.077-21.172 0-29.249-8.077-8.076-21.172-8.076-29.249 0L6.058 241.375c-8.077 8.077-8.077 21.172 0 29.249l176.488 176.488a20.616 20.616 0 0 0 14.625 6.058 20.616 20.616 0 0 0 14.625-6.058c8.077-8.077 8.077-21.172 0-29.249L49.932 256z"/></symbol><symbol viewBox="0 0 512 512" id="cart" xmlns="http://www.w3.org/2000/svg"><path d="M509.867 89.6c-2.133-2.133-4.267-4.267-8.533-4.267H96L85.333 29.867c0-4.267-6.4-8.533-10.667-8.533h-64C4.267 21.333 0 25.6 0 32s4.267 10.667 10.667 10.667h55.467l51.2 260.267c6.4 34.133 38.4 59.733 72.533 59.733H435.2c6.4 0 10.667-4.267 10.667-10.667 0-6.4-4.267-10.667-10.667-10.667H192c-17.067 0-34.133-8.533-42.667-23.467L460.8 275.2c4.267 0 8.533-4.267 8.533-8.533L512 96s0-4.267-2.133-6.4zM450.133 256l-311.467 40.533-38.4-192H486.4L450.133 256zM181.333 384C151.467 384 128 407.467 128 437.333c0 29.867 23.467 53.333 53.333 53.333 29.867 0 53.333-23.467 53.333-53.333C234.667 407.467 211.2 384 181.333 384zm0 85.333c-17.067 0-32-14.934-32-32s14.933-32 32-32 32 14.934 32 32-14.933 32-32 32zM394.667 384c-29.867 0-53.333 23.467-53.333 53.333 0 29.867 23.467 53.333 53.333 53.333 29.867 0 53.333-23.467 53.333-53.333S424.533 384 394.667 384zm0 85.333c-17.067 0-32-14.934-32-32s14.933-32 32-32 32 14.934 32 32-14.934 32-32 32z"/></symbol><symbol viewBox="0 0 611.994 611.994" id="check" xmlns="http://www.w3.org/2000/svg"><path d="M248.172 423.918l-89.545-89.534c-5.637-5.637-5.637-14.778 0-20.416 5.643-5.644 14.78-5.644 20.417 0l69.128 69.122 184.796-184.802c5.644-5.643 14.78-5.643 20.417 0 5.644 5.637 5.644 14.78 0 20.417L248.172 423.918z"/><path d="M306.031 611.994v-14.438l-.022 14.438C137.286 611.994.012 474.726 0 306.003 0 137.274 137.274 0 305.997 0c168.729 0 305.997 137.274 305.997 305.997.006 168.729-137.251 305.997-305.963 305.997zm-.034-583.116c-152.805 0-277.119 124.314-277.119 277.119.012 152.799 124.331 277.113 277.131 277.113h.022c152.788 0 277.091-124.314 277.091-277.113 0-152.805-124.32-277.119-277.125-277.119z"/></symbol><symbol viewBox="0 0 512 512" id="check--bold" xmlns="http://www.w3.org/2000/svg"><path d="M387.106 167.497c-5.857-5.857-15.354-5.858-21.212.001L220.705 312.685l-74.599-74.597c-5.857-5.857-15.355-5.858-21.213.001-5.857 5.858-5.857 15.355 0 21.213l85.205 85.203a14.953 14.953 0 0 0 10.606 4.393c3.839 0 7.678-1.464 10.606-4.394L387.106 188.71c5.858-5.857 5.858-15.355 0-21.213z"/><path d="M437.019 74.981C388.667 26.629 324.379 0 256 0 187.62 0 123.333 26.629 74.981 74.981 26.628 123.334 0 187.621 0 256c0 68.381 26.628 132.668 74.981 181.02C123.332 485.372 187.62 512 256 512s132.667-26.628 181.019-74.98C485.371 388.668 512 324.381 512 256c0-68.379-26.629-132.666-74.981-181.019zM256 482C131.383 482 30 380.617 30 256S131.383 30 256 30s226 101.383 226 226-101.383 226-226 226z"/></symbol><symbol viewBox="0 0 512 512" id="checked" xmlns="http://www.w3.org/2000/svg"><path d="M505.943 79.594c-8.077-8.077-21.172-8.077-29.249 0L167.755 388.532 35.306 256.083c-8.076-8.077-21.172-8.077-29.248 0-8.077 8.077-8.077 21.172 0 29.249l147.074 147.074a20.616 20.616 0 0 0 14.625 6.058 20.613 20.613 0 0 0 14.625-6.059l323.562-323.562c8.075-8.076 8.075-21.171-.001-29.249z"/></symbol><symbol viewBox="0 0 512 512" id="close" xmlns="http://www.w3.org/2000/svg"><path d="M505.943 6.058c-8.077-8.077-21.172-8.077-29.249 0L6.058 476.693c-8.077 8.077-8.077 21.172 0 29.249A20.612 20.612 0 0 0 20.683 512a20.614 20.614 0 0 0 14.625-6.059L505.943 35.306c8.076-8.076 8.076-21.171 0-29.248z"/><path d="M505.942 476.694L35.306 6.059c-8.076-8.077-21.172-8.077-29.248 0-8.077 8.076-8.077 21.171 0 29.248l470.636 470.636a20.616 20.616 0 0 0 14.625 6.058 20.615 20.615 0 0 0 14.624-6.057c8.075-8.078 8.075-21.173-.001-29.25z"/></symbol><symbol viewBox="0 0 47.971 47.971" id="close--bold" xmlns="http://www.w3.org/2000/svg"><path d="M28.228 23.986L47.092 5.122a2.998 2.998 0 0 0 0-4.242 2.998 2.998 0 0 0-4.242 0L23.986 19.744 5.121.88a2.998 2.998 0 0 0-4.242 0 2.998 2.998 0 0 0 0 4.242l18.865 18.864L.879 42.85a2.998 2.998 0 1 0 4.242 4.241l18.865-18.864L42.85 47.091c.586.586 1.354.879 2.121.879s1.535-.293 2.121-.879a2.998 2.998 0 0 0 0-4.242L28.228 23.986z"/></symbol><symbol viewBox="0 0 110.479 116.099" id="cog" xmlns="http://www.w3.org/2000/svg"><path d="M55.39 36a22.5 22.5 0 1 0 22.5 22.5A22.5 22.5 0 0 0 55.39 36zm0 38a15.5 15.5 0 1 1 15.5-15.5A15.5 15.5 0 0 1 55.39 74zm48.589-7.95l-3.6-2.284a45.524 45.524 0 0 0 .509-6.761c0-1.171-.061-2.326-.149-3.475l3.508-1.823a11 11 0 0 0 4.693-14.839l-6.462-12.418a11 11 0 0 0-14.838-4.69l-3.633 1.89a45.491 45.491 0 0 0-10.9-6.559c.093.04.189.075.282.115V11a11 11 0 0 0-11-11h-14a11 11 0 0 0-11 11v4.207c.109-.047.221-.088.33-.134a45.463 45.463 0 0 0-10.615 6.31l-3.419-1.861C17.896 16.37 10.847 18.14 7.94 23.476l-6.694 12.3c-2.9 5.335-.565 12.216 5.226 15.369l3.6 1.961a45.267 45.267 0 0 0-.187 3.9 45.547 45.547 0 0 0 .518 6.824l-3.52 2.158c-6 3.68-8.281 10.861-5.1 16.039l7.323 11.932c3.178 5.177 10.616 6.391 16.612 2.711l3.762-2.309a45.449 45.449 0 0 0 8.007 4.443l-.054 3.847c-.1 7.231 4.738 13.163 10.813 13.249l14 .2c6.075.086 11.082-5.706 11.185-12.938l.063-4.437a45.452 45.452 0 0 0 7.869-4.4l3.328 2.112c6.02 3.822 13.541 2.763 16.8-2.366l7.5-11.819c3.249-5.128 1.009-12.384-5.012-16.202zm-11.4 27.112l-5.978-3.8-6.086-3.864a37.972 37.972 0 0 1-13.949 7.82l-.111 7.824-.1 7.014-22-.312.094-6.676.11-7.743a37.949 37.949 0 0 1-14.182-7.831l-6.495 3.987-5.861 3.6L6.515 74.427l5.86-3.6 6.337-3.889a38.061 38.061 0 0 1-.58-17.423l-6.544-3.563-5.593-3.042 10.519-19.322 5.593 3.045 6.427 3.5a37.987 37.987 0 0 1 15.856-9.509V8.077h22v12.547a37.988 37.988 0 0 1 16.068 9.726l6.907-3.59 4.1-2.132 10.147 19.52-4.016 2.088-6.894 3.583a38.026 38.026 0 0 1-.595 16.986l6.282 3.988 5.978 3.8z"/></symbol><symbol viewBox="0 0 18 19" id="controls" xmlns="http://www.w3.org/2000/svg"><path d="M2.333 5c1.173 0 2.144-.934 2.307-2.143h13.027c.184 0 .333-.16.333-.357 0-.197-.149-.357-.333-.357H4.64C4.477.933 3.506 0 2.333 0 1.047 0 0 1.122 0 2.5S1.047 5 2.333 5zm0-4.286C3.253.714 4 1.515 4 2.5s-.748 1.786-1.667 1.786S.667 3.485.667 2.5 1.414.714 2.333.714zM15.667 14c-1.173 0-2.144.934-2.307 2.143H.333c-.184 0-.333.16-.333.357 0 .198.15.357.333.357H13.36c.163 1.21 1.134 2.143 2.307 2.143C16.953 19 18 17.878 18 16.5S16.953 14 15.667 14zm0 4.286c-.92 0-1.667-.801-1.667-1.786s.748-1.786 1.667-1.786 1.666.801 1.666 1.786-.747 1.786-1.666 1.786zM17.667 9.225h-6.211C11.324 7.975 10.304 7 9.069 7s-2.255.976-2.387 2.225H.333A.34.34 0 0 0 0 9.572c0 .192.15.347.333.347h6.37C6.895 11.099 7.882 12 9.069 12s2.173-.902 2.366-2.081h6.232A.34.34 0 0 0 18 9.572a.34.34 0 0 0-.333-.347zm-8.598 2.081c-.957 0-1.736-.81-1.736-1.806s.779-1.806 1.736-1.806 1.736.81 1.736 1.806-.779 1.806-1.736 1.806z"/></symbol><symbol viewBox="0 0 452.84 452.84" id="email" xmlns="http://www.w3.org/2000/svg"><path d="M449.483 190.4l.001-.001-57.824-38.335V23.93a7.5 7.5 0 0 0-7.5-7.5H68.67a7.5 7.5 0 0 0-7.5 7.5v128.143L3.356 190.399l.001.002A7.49 7.49 0 0 0 0 196.65v232.26a7.5 7.5 0 0 0 7.5 7.5h437.84a7.5 7.5 0 0 0 7.5-7.5V196.65a7.493 7.493 0 0 0-3.357-6.25zM61.17 216.629L37.645 204.15H61.17v12.479zM15 209.118l172.475 91.49L15 414.935V209.118zm211.417 83.671L420.454 421.41H32.381l194.036-128.621zm38.945 7.82l172.477-91.491v205.821l-172.477-114.33zM391.66 204.15h23.536l-23.536 12.484V204.15zm28.794-15H391.66v-19.09l28.794 19.09zM376.66 31.43v193.161l-125.527 66.586-20.573-13.637a7.499 7.499 0 0 0-8.287 0l-20.57 13.635L76.17 224.586V31.43h300.49zM61.17 189.15H32.388l28.782-19.08v19.08z"/><path d="M226.415 213.671h59.754a7.5 7.5 0 0 0 0-15h-59.754c-28.813 0-52.254-23.441-52.254-52.254v-2.213c0-28.813 23.441-52.254 52.254-52.254s52.254 23.441 52.254 52.254v5.533c0 6.237-5.074 11.312-11.312 11.312s-11.312-5.074-11.312-11.312v-10.512c0-17.864-14.533-32.398-32.397-32.398s-32.397 14.533-32.397 32.398c0 17.864 14.533 32.397 32.397 32.397 8.169 0 15.636-3.045 21.34-8.052 4.644 7.483 12.932 12.478 22.369 12.478 14.508 0 26.312-11.803 26.312-26.312v-5.533c0-37.084-30.17-67.254-67.254-67.254s-67.254 30.17-67.254 67.254v2.213c0 37.085 30.17 67.255 67.254 67.255zm-2.767-57.049c-9.593 0-17.397-7.804-17.397-17.397s7.805-17.398 17.397-17.398 17.397 7.805 17.397 17.398-7.804 17.397-17.397 17.397z"/></symbol><symbol viewBox="0 0 512 512" id="filter" xmlns="http://www.w3.org/2000/svg"><path d="M481 0H31c-8.284 0-15 6.716-15 15v60a15 15 0 0 0 4.335 10.548L196 263.165V497a15 15 0 0 0 23.32 12.481l90-60A15.001 15.001 0 0 0 316 437V263.165L491.665 85.548A15 15 0 0 0 496 75V15c0-8.284-6.716-15-15-15zM286 428.972l-60 40V272h60v156.972zM294.738 242h-77.476L66.932 90h378.136l-150.33 152zM466 60H46V30h420v30z"/></symbol><symbol viewBox="0 0 971.986 971.986" id="filter-btn" xmlns="http://www.w3.org/2000/svg"><path d="M370.216 459.3c10.2 11.1 15.8 25.6 15.8 40.6v442c0 26.601 32.1 40.101 51.1 21.4l123.3-141.3c16.5-19.8 25.6-29.601 25.6-49.2V500c0-15 5.7-29.5 15.8-40.601L955.615 75.5c26.5-28.8 6.101-75.5-33.1-75.5h-873c-39.2 0-59.7 46.6-33.1 75.5l353.801 383.8z"/></symbol><symbol viewBox="0 0 16 10" id="hamburger" xmlns="http://www.w3.org/2000/svg"><path d="M1 0h14a1 1 0 1 1 0 2H1a1 1 0 1 1 0-2zm0 4h14a1 1 0 1 1 0 2H1a1 1 0 1 1 0-2zm0 4h14a1 1 0 1 1 0 2H1a1 1 0 1 1 0-2z"/></symbol><symbol viewBox="0 0 471.701 471.701" id="heart" xmlns="http://www.w3.org/2000/svg"><path d="M433.601 67.001c-24.7-24.7-57.4-38.2-92.3-38.2s-67.7 13.6-92.4 38.3l-12.9 12.9-13.1-13.1c-24.7-24.7-57.6-38.4-92.5-38.4-34.8 0-67.6 13.6-92.2 38.2-24.7 24.7-38.3 57.5-38.2 92.4 0 34.9 13.7 67.6 38.4 92.3l187.8 187.8c2.6 2.6 6.1 4 9.5 4 3.4 0 6.9-1.3 9.5-3.9l188.2-187.5c24.7-24.7 38.3-57.5 38.3-92.4.1-34.9-13.4-67.7-38.1-92.4zm-19.2 165.7l-178.7 178-178.3-178.3c-19.6-19.6-30.4-45.6-30.4-73.3s10.7-53.7 30.3-73.2c19.5-19.5 45.5-30.3 73.1-30.3 27.7 0 53.8 10.8 73.4 30.4l22.6 22.6c5.3 5.3 13.8 5.3 19.1 0l22.4-22.4c19.6-19.6 45.7-30.4 73.3-30.4 27.6 0 53.6 10.8 73.2 30.3 19.6 19.6 30.3 45.6 30.3 73.3.1 27.7-10.7 53.7-30.3 73.3z"/></symbol><symbol viewBox="0 0 512 512" id="location" xmlns="http://www.w3.org/2000/svg"><path d="M256 0C156.748 0 76 80.748 76 180c0 33.534 9.289 66.26 26.869 94.652l142.885 230.257A15 15 0 0 0 258.499 512h.119a14.997 14.997 0 0 0 12.75-7.292L410.611 272.22C427.221 244.428 436 212.539 436 180 436 80.748 355.252 0 256 0zm128.866 256.818L258.272 468.186l-129.905-209.34C113.734 235.214 105.8 207.95 105.8 180c0-82.71 67.49-150.2 150.2-150.2S406.1 97.29 406.1 180c0 27.121-7.411 53.688-21.234 76.818z"/><path d="M256 90c-49.626 0-90 40.374-90 90 0 49.309 39.717 90 90 90 50.903 0 90-41.233 90-90 0-49.626-40.374-90-90-90zm0 150.2c-33.257 0-60.2-27.033-60.2-60.2 0-33.084 27.116-60.2 60.2-60.2s60.1 27.116 60.1 60.2c0 32.683-26.316 60.2-60.1 60.2z"/></symbol><symbol viewBox="0 0 512 512" id="logout" xmlns="http://www.w3.org/2000/svg"><path d="M255.15 468.625H63.787c-11.737 0-21.262-9.526-21.262-21.262V64.638c0-11.737 9.526-21.262 21.262-21.262H255.15c11.758 0 21.262-9.504 21.262-21.262S266.908.85 255.15.85H63.787C28.619.85 0 29.47 0 64.638v382.724c0 35.168 28.619 63.787 63.787 63.787H255.15c11.758 0 21.262-9.504 21.262-21.262 0-11.758-9.504-21.262-21.262-21.262z"/><path d="M505.664 240.861L376.388 113.286c-8.335-8.25-21.815-8.143-30.065.213s-8.165 21.815.213 30.065l92.385 91.173H191.362c-11.758 0-21.262 9.504-21.262 21.262 0 11.758 9.504 21.263 21.262 21.263h247.559l-92.385 91.173c-8.377 8.25-8.441 21.709-.213 30.065a21.255 21.255 0 0 0 15.139 6.336c5.401 0 10.801-2.041 14.926-6.124l129.276-127.575A21.303 21.303 0 0 0 512 255.998c0-5.696-2.275-11.118-6.336-15.137z"/></symbol><symbol id="pay-method" viewBox="516 2655 133.704 30" xmlns="http://www.w3.org/2000/svg"><defs id="ardefs4"><style id="arstyle2">.arcls-1{fill:#ffb600}.arcls-2{fill:#f7981d}.arcls-3{fill:#ff8500}.arcls-4{fill:#ff5050}.arcls-5{fill:#e52836}.arcls-6{fill:#cb2026}.arcls-7{fill:#fff}.arcls-8{fill:#dce5e5}</style></defs><g transform="translate(516.077 2554.2)" id="armastercard"><path transform="translate(-181.6)" d="M231.6 115.8a15 15 0 0 1-30 0 15 15 0 1 1 30 0z" class="arcls-1" data-name="Path 46" id="arPath_46" fill="#ffb600"/><path transform="translate(-181.6)" d="M216.6 100.8a15.039 15.039 0 0 1 15 15 15 15 0 1 1-30 0" class="arcls-2" data-name="Path 47" id="arPath_47" fill="#f7981d"/><path transform="translate(-317.8)" d="M352.8 100.8a15.039 15.039 0 0 1 15 15 14.988 14.988 0 0 1-15 15" class="arcls-3" data-name="Path 48" id="arPath_48" fill="#ff8500"/><path d="M14.841 100.8a15 15 0 0 0 .159 30 15.175 15.175 0 0 0 10.079-3.889 14.262 14.262 0 0 0 1.508-1.587h-3.1a18.307 18.307 0 0 1-1.111-1.508H27.7a10.167 10.167 0 0 0 .873-1.587h-7.065a9.459 9.459 0 0 1-.635-1.587h8.254a15.759 15.759 0 0 0 .794-4.762 20.486 20.486 0 0 0-.321-3.18h-9.2a11.6 11.6 0 0 1 .4-1.587h8.254a9.459 9.459 0 0 0-.635-1.587h-6.99a15.739 15.739 0 0 1 .873-1.587h5.317a7.547 7.547 0 0 0-1.19-1.587h-2.937A13.528 13.528 0 0 1 25 104.848a14.645 14.645 0 0 0-10.079-3.889c0-.159 0-.159-.08-.159z" class="arcls-4" data-name="Path 49" id="arPath_49" fill="#ff5050"/><path transform="translate(0 -1.441)" d="M0 117.241a14.988 14.988 0 0 0 15 15 15.175 15.175 0 0 0 10.079-3.889 14.261 14.261 0 0 0 1.508-1.587h-3.1a18.311 18.311 0 0 1-1.111-1.508H27.7a10.167 10.167 0 0 0 .873-1.587h-7.065a9.459 9.459 0 0 1-.635-1.587h8.254a15.759 15.759 0 0 0 .794-4.762 20.486 20.486 0 0 0-.317-3.175H20.4a11.6 11.6 0 0 1 .4-1.587h8.254a9.459 9.459 0 0 0-.635-1.587h-6.99a15.739 15.739 0 0 1 .873-1.587h5.317a7.548 7.548 0 0 0-1.19-1.587h-2.937A13.528 13.528 0 0 1 25 106.289a14.645 14.645 0 0 0-10.079-3.889h-.079" class="arcls-5" data-name="Path 50" id="arPath_50" fill="#e52836"/><path transform="translate(-134.759 -1.441)" d="M149.759 132.241a15.175 15.175 0 0 0 10.079-3.889 14.26 14.26 0 0 0 1.508-1.587h-3.1a18.311 18.311 0 0 1-1.111-1.508h5.317a10.167 10.167 0 0 0 .873-1.587h-7.063a9.458 9.458 0 0 1-.635-1.587h8.254a15.759 15.759 0 0 0 .794-4.762 20.487 20.487 0 0 0-.317-3.175h-9.206a11.606 11.606 0 0 1 .4-1.587h8.254a9.459 9.459 0 0 0-.635-1.587h-6.984a15.737 15.737 0 0 1 .873-1.587h5.317a7.548 7.548 0 0 0-1.19-1.587h-2.937a13.527 13.527 0 0 1 1.508-1.508 14.645 14.645 0 0 0-10.079-3.889h-.079" class="arcls-6" data-name="Path 51" id="arPath_51" fill="#cb2026"/><g transform="translate(1.429 111.911)" data-name="Group 13" id="arGroup_13"><path transform="translate(-165.013 -219.286)" d="M183.9 226.984l.238-1.349a3.438 3.438 0 0 1-.4.079c-.556 0-.635-.317-.556-.476l.476-2.778h.873l.238-1.508h-.794l.159-.952h-1.587s-.952 5.238-.952 5.873a1.191 1.191 0 0 0 1.27 1.349 2.436 2.436 0 0 0 1.035-.238z" class="arcls-7" data-name="Path 52" id="arPath_52" fill="#fff"/><path transform="translate(-190.956 -227.121)" d="M210.4 232.28a2.524 2.524 0 0 0 2.778 2.778 4.121 4.121 0 0 0 1.667-.238l.317-1.508a4.758 4.758 0 0 1-1.667.4c-1.746 0-1.429-1.27-1.429-1.27h3.254a10.291 10.291 0 0 0 .238-1.429 2.15 2.15 0 0 0-2.3-2.3c-1.668-.163-2.858 1.587-2.858 3.567zm2.778-2.3c.873 0 .714 1.032.714 1.111h-1.746c0-.081.154-1.112 1.032-1.112z" class="arcls-7" data-name="Path 53" id="arPath_53" fill="#fff"/><path transform="translate(-268.064 -212.8)" d="M300.365 220.5l.317-1.746a3.9 3.9 0 0 1-1.349.4c-1.111 0-1.587-.873-1.587-1.825 0-1.9.952-2.937 2.063-2.937a2.65 2.65 0 0 1 1.429.476l.238-1.667a5.58 5.58 0 0 0-1.825-.4c-1.825 0-3.651 1.587-3.651 4.6 0 1.984.952 3.333 2.857 3.333a7.123 7.123 0 0 0 1.508-.234z" class="arcls-7" data-name="Path 54" id="arPath_54" fill="#fff"/><path transform="translate(-79.257 -225.771)" d="M89.416 227.2a5.621 5.621 0 0 0-1.9.317l-.238 1.349a4.691 4.691 0 0 1 1.746-.317c.556 0 1.032.079 1.032.556 0 .317-.079.4-.079.4h-.714c-1.349 0-2.857.556-2.857 2.381 0 1.429.952 1.746 1.508 1.746a2.385 2.385 0 0 0 1.667-.714l-.079.635h1.429l.635-4.365a1.881 1.881 0 0 0-2.15-1.988zm.317 3.571c0 .238-.159 1.508-1.111 1.508a.619.619 0 0 1-.635-.635c0-.4.238-.952 1.429-.952a1.251 1.251 0 0 0 .317.079z" class="arcls-7" data-name="Path 55" id="arPath_55" fill="#fff"/><path transform="translate(-123.216 -225.051)" d="M137.025 232.908a2.034 2.034 0 0 0 2.381-2.063c0-1.984-1.9-1.587-1.9-2.381 0-.4.317-.556.873-.556.238 0 1.111.079 1.111.079l.238-1.429a6.028 6.028 0 0 0-1.508-.159c-1.19 0-2.381.476-2.381 2.063 0 1.825 1.984 1.667 1.984 2.381 0 .476-.556.556-.952.556a5.19 5.19 0 0 1-1.429-.238l-.238 1.429c.075.159.472.318 1.821.318z" class="arcls-7" data-name="Path 56" id="arPath_56" fill="#fff"/><path transform="translate(-386.248 -214.241)" d="M431.724 214.4l-.317 2.143a2.2 2.2 0 0 0-1.508-.794c-1.429 0-2.7 1.746-2.7 3.81 0 1.27.635 2.619 1.984 2.619a2.119 2.119 0 0 0 1.508-.635l-.079.556h1.588l1.19-7.619zm-.714 4.206c0 .873-.4 1.984-1.27 1.984-.556 0-.873-.476-.873-1.27 0-1.27.556-2.063 1.27-2.063.555 0 .872.397.872 1.349z" class="arcls-7" data-name="Path 57" id="arPath_57" fill="#fff"/><path transform="translate(-14.4 -214.241)" d="M15.908 222.019l.952-5.714.159 5.714h1.111l2.063-5.714-.873 5.714h1.667l1.27-7.619h-2.619l-1.587 4.683-.079-4.683h-2.3l-1.27 7.619z" class="arcls-7" data-name="Path 58" id="arPath_58" fill="#fff"/><path transform="translate(-235.635 -227.213)" d="M261.746 234.99c.476-2.619.556-4.762 1.667-4.365a6.228 6.228 0 0 1 .556-1.825h-.317c-.714 0-1.27.952-1.27.952l.159-.873h-1.508L260 235.07h1.746z" class="arcls-7" data-name="Path 59" id="arPath_59" fill="#fff"/><path transform="translate(-313.464 -225.771)" d="M349.416 227.2a5.621 5.621 0 0 0-1.9.317l-.238 1.349a4.691 4.691 0 0 1 1.746-.317c.556 0 1.032.079 1.032.556 0 .317-.079.4-.079.4h-.714c-1.349 0-2.857.556-2.857 2.381 0 1.429.952 1.746 1.508 1.746a2.385 2.385 0 0 0 1.667-.714l-.079.635h1.429l.635-4.365a1.853 1.853 0 0 0-2.15-1.988zm.4 3.571c0 .238-.159 1.508-1.111 1.508a.619.619 0 0 1-.635-.635c0-.4.238-.952 1.429-.952.234.079.234.079.314.079z" class="arcls-7" data-name="Path 60" id="arPath_60" fill="#fff"/><path transform="translate(-356.702 -227.213)" d="M396.146 234.99c.476-2.619.556-4.762 1.667-4.365a6.229 6.229 0 0 1 .556-1.825h-.317c-.714 0-1.27.952-1.27.952l.159-.873h-1.508l-1.032 6.19h1.746z" class="arcls-7" data-name="Path 61" id="arPath_61" fill="#fff"/></g><g transform="translate(1.429 111.911)" data-name="Group 14" id="arGroup_14"><path transform="translate(-163.571 -219.286)" d="M180 225.873a1.191 1.191 0 0 0 1.27 1.349 3.021 3.021 0 0 0 1.19-.238l.238-1.349a3.437 3.437 0 0 1-.4.079c-.556 0-.635-.317-.556-.476l.476-2.778h.873l.238-1.508h-.794l.165-.952" class="arcls-8" data-name="Path 62" id="arPath_62" fill="#dce5e5"/><path transform="translate(-198.162 -227.121)" d="M218.4 232.28c0 2.222.714 2.778 1.984 2.778a4.121 4.121 0 0 0 1.667-.238l.317-1.508a4.758 4.758 0 0 1-1.667.4c-1.746 0-1.429-1.27-1.429-1.27h3.254a10.291 10.291 0 0 0 .238-1.429 2.15 2.15 0 0 0-2.3-2.3c-1.664-.163-2.064 1.587-2.064 3.567zm1.984-2.3c.873 0 1.032 1.032 1.032 1.111h-2.063c-.001-.081.158-1.112 1.031-1.112z" class="arcls-8" data-name="Path 63" id="arPath_63" fill="#dce5e5"/><path transform="translate(-275.27 -212.8)" d="M307.571 220.5l.317-1.746a3.9 3.9 0 0 1-1.349.4c-1.111 0-1.587-.873-1.587-1.825 0-1.9.952-2.937 2.063-2.937a2.65 2.65 0 0 1 1.429.476l.238-1.667a5.58 5.58 0 0 0-1.825-.4c-1.825 0-2.857 1.587-2.857 4.6 0 1.984.159 3.333 2.064 3.333a7.123 7.123 0 0 0 1.507-.234z" class="arcls-8" data-name="Path 64" id="arPath_64" fill="#dce5e5"/><path transform="translate(-79.257 -227.213)" d="M87.273 230.387a4.691 4.691 0 0 1 1.746-.317c.556 0 1.032.079 1.032.556 0 .317-.079.4-.079.4h-.714c-1.349 0-2.857.556-2.857 2.381 0 1.429.952 1.746 1.508 1.746a2.385 2.385 0 0 0 1.667-.714l-.079.635h1.429l.635-4.365c0-1.825-1.587-1.9-2.222-1.9m1.19 3.413a2.6 2.6 0 0 1-1.9 1.508.619.619 0 0 1-.635-.635c0-.4.238-.952 1.429-.952a6.484 6.484 0 0 0 1.104.07z" class="arcls-8" data-name="Path 65" id="arPath_65" fill="#dce5e5"/><path transform="translate(-123.937 -225.051)" d="M136 232.749a6.717 6.717 0 0 0 1.825.159 2.034 2.034 0 0 0 2.381-2.063c0-1.984-1.9-1.587-1.9-2.381 0-.4.317-.556.873-.556.238 0 1.111.079 1.111.079l.238-1.429a6.028 6.028 0 0 0-1.508-.159c-1.19 0-1.587.476-1.587 2.063 0 1.825 1.19 1.667 1.19 2.381 0 .476-.556.556-.952.556" class="arcls-8" data-name="Path 66" id="arPath_66" fill="#dce5e5"/><path transform="translate(-393.402 -214.962)" d="M438.56 217.263a2.2 2.2 0 0 0-1.508-.794c-1.429 0-1.9 1.746-1.9 3.81 0 1.27-.159 2.619 1.19 2.619a2.119 2.119 0 0 0 1.508-.635l-.079.556h1.587l1.19-7.619m-2.063 4.127c0 .873-.714 1.984-1.587 1.984-.556 0-.873-.476-.873-1.27 0-1.27.556-2.063 1.27-2.063a1.213 1.213 0 0 1 1.186 1.349z" class="arcls-8" data-name="Path 67" id="arPath_67" fill="#dce5e5"/><path transform="translate(-14.4 -214.241)" d="M15.908 222.019l.952-5.714.159 5.714h1.111l2.063-5.714-.873 5.714h1.667l1.27-7.619h-1.984l-2.222 4.683-.079-4.683H17.1l-2.7 7.619z" class="arcls-8" data-name="Path 68" id="arPath_68" fill="#dce5e5"/><path transform="translate(-236.356 -227.213)" d="M260.8 234.99h1.667c.476-2.619.556-4.762 1.667-4.365a6.23 6.23 0 0 1 .556-1.825h-.317c-.714 0-1.27.952-1.27.952l.159-.873" class="arcls-8" data-name="Path 69" id="arPath_69" fill="#dce5e5"/><path transform="translate(-313.464 -227.213)" d="M347.273 230.387a4.692 4.692 0 0 1 1.746-.317c.556 0 1.032.079 1.032.556 0 .317-.079.4-.079.4h-.714c-1.349 0-2.857.556-2.857 2.381 0 1.429.952 1.746 1.508 1.746a2.385 2.385 0 0 0 1.667-.714l-.079.635h1.429l.635-4.365c0-1.825-1.587-1.9-2.222-1.9m1.19 3.413a2.6 2.6 0 0 1-1.9 1.508.62.62 0 0 1-.635-.635c0-.4.238-.952 1.429-.952a6.982 6.982 0 0 0 1.104.07z" class="arcls-8" data-name="Path 70" id="arPath_70" fill="#dce5e5"/><path transform="translate(-357.422 -227.213)" d="M395.2 234.99h1.667c.476-2.619.556-4.762 1.667-4.365a6.229 6.229 0 0 1 .556-1.825h-.317c-.714 0-1.27.952-1.27.952l.159-.873" class="arcls-8" data-name="Path 71" id="arPath_71" fill="#dce5e5"/></g></g><g transform="translate(569.817 2557.27)" id="arvisa"><g transform="translate(7.465 100.23)" data-name="Group 12" id="arGroup_12"><g data-name="Group 11" id="arGroup_11"><path transform="translate(-27.262 -100.23)" d="M52.451 100.23l-4.009 24.95h6.408l4.007-24.95zm19.33 10.163c-2.239-1.106-3.612-1.852-3.612-2.983.027-1.028 1.161-2.082 3.692-2.082a11.152 11.152 0 0 1 4.773.924l.582.26.871-5.22a16.175 16.175 0 0 0-5.752-1.028c-6.329 0-10.785 3.29-10.812 8-.052 3.473 3.19 5.4 5.617 6.556 2.479 1.186 3.323 1.955 3.323 3.008-.027 1.618-2 2.364-3.849 2.364A13.033 13.033 0 0 1 60.6 118.9l-.844-.384-.9 5.425a20.013 20.013 0 0 0 7.147 1.288c6.726 0 11.1-3.241 11.157-8.256.026-2.75-1.684-4.857-5.378-6.58zm22.735-10.086h-4.957a3.176 3.176 0 0 0-3.35 2.007l-9.52 22.866h6.726l1.852-4.95h7.524l.961 4.97h5.932zm-7.385 14.926c.13.013 2.581-8.081 2.581-8.081l1.952 8.081zm-44.045-15l-6.279 16.951-.684-3.343c-1.161-3.857-4.8-8.049-8.863-10.131l5.749 21.447h6.781l10.076-24.922h-6.779z" class="arcls-1" data-name="Path 44" id="arPath_44" fill="#2394bc"/></g></g><path transform="translate(0 -.013)" d="M14.215 103.461a4.187 4.187 0 0 0-4.169-3.213H.1l-.1.462c7.757 1.912 14.267 7.8 16.379 13.331z" class="arcls-2" data-name="Path 45" id="arPath_45" fill="#efc75e"/></g></symbol><symbol viewBox="0 0 548.165 548.165" id="photo-camera" xmlns="http://www.w3.org/2000/svg"><path d="M526.76 131.045c-14.277-14.274-31.498-21.413-51.675-21.413h-63.953l-14.558-38.826c-3.618-9.325-10.229-17.368-19.846-24.128-9.613-6.757-19.462-10.138-29.551-10.138H200.996c-10.088 0-19.939 3.381-29.552 10.138-9.613 6.76-16.225 14.803-19.842 24.128l-14.56 38.826H73.089c-20.179 0-37.401 7.139-51.678 21.413C7.137 145.32 0 162.544 0 182.721v255.813c0 20.178 7.137 37.404 21.411 51.675 14.277 14.277 31.5 21.416 51.678 21.416h401.989c20.177 0 37.397-7.139 51.675-21.416 14.273-14.271 21.412-31.497 21.412-51.675V182.721c.004-20.177-7.135-37.401-21.405-51.676zM364.446 400.993c-25.029 25.03-55.147 37.548-90.362 37.548s-65.331-12.518-90.362-37.548c-25.031-25.026-37.544-55.151-37.544-90.358 0-35.218 12.517-65.333 37.544-90.364 25.028-25.031 55.148-37.544 90.362-37.544s65.333 12.516 90.362 37.544c25.03 25.028 37.545 55.146 37.545 90.364 0 35.207-12.514 65.329-37.545 90.358z"/><path d="M274.084 228.403c-22.651 0-42.018 8.042-58.102 24.128-16.084 16.084-24.126 35.448-24.126 58.104 0 22.647 8.042 42.014 24.126 58.098 16.084 16.081 35.45 24.123 58.102 24.123 22.648 0 42.017-8.042 58.101-24.123 16.084-16.084 24.127-35.45 24.127-58.098 0-22.655-8.043-42.019-24.127-58.104-16.083-16.085-35.453-24.128-58.101-24.128z"/></symbol><symbol viewBox="0 0 512 512" id="plus" xmlns="http://www.w3.org/2000/svg"><path d="M256 0c-11.422 0-20.682 9.26-20.682 20.682v470.636c0 11.423 9.26 20.682 20.682 20.682 11.423 0 20.682-9.259 20.682-20.682V20.682C276.682 9.26 267.423 0 256 0z"/><path d="M491.318 235.318H20.682C9.26 235.318 0 244.578 0 256c0 11.423 9.26 20.682 20.682 20.682h470.636c11.423 0 20.682-9.259 20.682-20.682 0-11.422-9.259-20.682-20.682-20.682z"/></symbol><symbol viewBox="0 0 286.376 286.376" id="plus--bold" xmlns="http://www.w3.org/2000/svg"><path d="M268.477 125.29H161.086V17.899c0-9.885-8.013-17.898-17.898-17.898S125.29 8.014 125.29 17.899v107.39H17.9c-9.885 0-17.9 8.013-17.9 17.898s8.015 17.898 17.9 17.898h107.39v107.39c0 9.885 8.013 17.898 17.898 17.898s17.898-8.013 17.898-17.898v-107.39h107.391c9.885 0 17.898-8.014 17.898-17.898.001-9.884-8.013-17.897-17.898-17.897z" fill-rule="evenodd" clip-rule="evenodd"/></symbol><symbol id="plus--filled" viewBox="0 0 30 30" xmlns="http://www.w3.org/2000/svg"><style>.avst0{fill:#353737}</style><path class="avst0" d="M24.9 5.1C19.4-.4 10.6-.4 5.1 5.1s-5.5 14.3 0 19.8 14.3 5.5 19.8 0 5.5-14.3 0-19.8zm-2.7 10.4h-6.7v6.7h-1v-6.7H7.8v-1h6.7V7.8h1v6.7h6.7v1z"/></symbol><symbol viewBox="0 0 2133.335 405.785" id="rating" xmlns="http://www.w3.org/2000/svg"><path fill="#fac917" d="M320 258.969l25.173 146.816-131.84-69.316-131.848 69.316 25.182-146.816L0 154.995l147.409-21.419L213.333 0l65.916 133.576 147.418 21.419z"/><path fill="#fac917" d="M426.667 154.995l147.409-21.419L640 0l65.916 133.576 147.418 21.419-106.667 103.974 25.173 146.816L640 336.469l-131.848 69.316 25.182-146.816zM853.334 154.995l147.409-21.419L1066.667 0l65.916 133.576 147.418 21.419-106.667 103.974 25.173 146.816-131.84-69.316-131.848 69.316 25.182-146.816zM1600.001 258.969l25.173 146.816-131.84-69.316-131.848 69.316 25.182-146.816-106.667-103.974 147.409-21.419L1493.334 0l65.916 133.576 147.418 21.419z"/><path fill="#fac917" d="M1706.668 154.995l147.409-21.419L1920.001 0l65.916 133.576 147.418 21.419-106.667 103.974 25.173 146.816-131.84-69.316-131.848 69.316 25.182-146.816z"/></symbol><symbol viewBox="0 0 2133.335 405.785" id="rating--gray" xmlns="http://www.w3.org/2000/svg"><path fill-opacity=".118" d="M320 258.969l25.173 146.816-131.84-69.316-131.848 69.316 25.182-146.816L0 154.995l147.409-21.419L213.333 0l65.916 133.576 147.418 21.419z"/><path fill-opacity=".118" d="M426.667 154.995l147.409-21.419L640 0l65.916 133.576 147.418 21.419-106.667 103.974 25.173 146.816L640 336.469l-131.848 69.316 25.182-146.816zM853.334 154.995l147.409-21.419L1066.667 0l65.916 133.576 147.418 21.419-106.667 103.974 25.173 146.816-131.84-69.316-131.848 69.316 25.182-146.816zM1600.001 258.969l25.173 146.816-131.84-69.316-131.848 69.316 25.182-146.816-106.667-103.974 147.409-21.419L1493.334 0l65.916 133.576 147.418 21.419z"/><path fill-opacity=".118" d="M1706.668 154.995l147.409-21.419L1920.001 0l65.916 133.576 147.418 21.419-106.667 103.974 25.173 146.816-131.84-69.316-131.848 69.316 25.182-146.816z"/></symbol><symbol viewBox="0 0 512 512" id="rub" xmlns="http://www.w3.org/2000/svg"><path d="M284.774 0H96v236.749H70.4v76.8H96v34.191H70.4v76.8H96V512h76.8v-87.46h96v-76.8h-96V313.6h111.995c86.467 0 156.805-70.339 156.805-156.795C441.6 70.339 371.261 0 284.774 0zm.031 236.8H172.8V76.79h112.005c44.114 0 80.005 35.891 80.005 80.005S328.919 236.8 284.805 236.8z"/></symbol><symbol viewBox="0 0 483.083 483.083" id="search" xmlns="http://www.w3.org/2000/svg"><path d="M332.74 315.35c30.883-33.433 50.15-78.2 50.15-127.5C382.89 84.433 298.74 0 195.04 0S7.19 84.433 7.19 187.85 91.34 375.7 195.04 375.7c42.217 0 81.033-13.883 112.483-37.4l139.683 139.683c3.4 3.4 7.65 5.1 11.9 5.1s8.783-1.7 11.9-5.1c6.517-6.517 6.517-17.283 0-24.083L332.74 315.35zM41.19 187.85C41.19 103.133 110.04 34 195.04 34c84.717 0 153.85 68.85 153.85 153.85S280.04 341.7 195.04 341.7 41.19 272.567 41.19 187.85z"/></symbol><symbol viewBox="0 0 56.966 56.966" id="search--bold" xmlns="http://www.w3.org/2000/svg"><path d="M55.146 51.887L41.588 37.786A22.926 22.926 0 0 0 46.984 23c0-12.682-10.318-23-23-23s-23 10.318-23 23 10.318 23 23 23c4.761 0 9.298-1.436 13.177-4.162l13.661 14.208c.571.593 1.339.92 2.162.92.779 0 1.518-.297 2.079-.837a3.004 3.004 0 0 0 .083-4.242zM23.984 6c9.374 0 17 7.626 17 17s-7.626 17-17 17-17-7.626-17-17 7.626-17 17-17z"/></symbol><symbol viewBox="0 0 56.966 56.966" id="search-bold" xmlns="http://www.w3.org/2000/svg"><path d="M55.146 51.887L41.588 37.786A22.926 22.926 0 0 0 46.984 23c0-12.682-10.318-23-23-23s-23 10.318-23 23 10.318 23 23 23c4.761 0 9.298-1.436 13.177-4.162l13.661 14.208c.571.593 1.339.92 2.162.92.779 0 1.518-.297 2.079-.837a3.004 3.004 0 0 0 .083-4.242zM23.984 6c9.374 0 17 7.626 17 17s-7.626 17-17 17-17-7.626-17-17 7.626-17 17-17z"/></symbol><symbol viewBox="0 0 482.9 482.9" id="user" xmlns="http://www.w3.org/2000/svg"><path d="M239.7 260.2h3.2c29.3-.5 53-10.8 70.5-30.5 38.5-43.4 32.1-117.8 31.4-124.9-2.5-53.3-27.7-78.8-48.5-90.7C280.8 5.2 262.7.4 242.5 0h-1.7c-11.1 0-32.9 1.8-53.8 13.7-21 11.9-46.6 37.4-49.1 91.1-.7 7.1-7.1 81.5 31.4 124.9 17.4 19.7 41.1 30 70.4 30.5zm-75.1-152.9c0-.3.1-.6.1-.8 3.3-71.7 54.2-79.4 76-79.4h1.2c27 .6 72.9 11.6 76 79.4 0 .3 0 .6.1.8.1.7 7.1 68.7-24.7 104.5-12.6 14.2-29.4 21.2-51.5 21.4h-1c-22-.2-38.9-7.2-51.4-21.4-31.7-35.6-24.9-103.9-24.8-104.5z"/><path d="M446.8 383.6v-.3c0-.8-.1-1.6-.1-2.5-.6-19.8-1.9-66.1-45.3-80.9-.3-.1-.7-.2-1-.3-45.1-11.5-82.6-37.5-83-37.8-6.1-4.3-14.5-2.8-18.8 3.3-4.3 6.1-2.8 14.5 3.3 18.8 1.7 1.2 41.5 28.9 91.3 41.7 23.3 8.3 25.9 33.2 26.6 56 0 .9 0 1.7.1 2.5.1 9-.5 22.9-2.1 30.9-16.2 9.2-79.7 41-176.3 41-96.2 0-160.1-31.9-176.4-41.1-1.6-8-2.3-21.9-2.1-30.9 0-.8.1-1.6.1-2.5.7-22.8 3.3-47.7 26.6-56 49.8-12.8 89.6-40.6 91.3-41.7 6.1-4.3 7.6-12.7 3.3-18.8-4.3-6.1-12.7-7.6-18.8-3.3-.4.3-37.7 26.3-83 37.8-.4.1-.7.2-1 .3-43.4 14.9-44.7 61.2-45.3 80.9 0 .9 0 1.7-.1 2.5v.3c-.1 5.2-.2 31.9 5.1 45.3 1 2.6 2.8 4.8 5.2 6.3 3 2 74.9 47.8 195.2 47.8s192.2-45.9 195.2-47.8c2.3-1.5 4.2-3.7 5.2-6.3 5-13.3 4.9-40 4.8-45.2z"/></symbol><symbol viewBox="0 0 116 116" id="user--round" xmlns="http://www.w3.org/2000/svg"><path d="M58 25.789a21 21 0 1 0 21 21 21 21 0 0 0-21-21zm0 35.2a14.2 14.2 0 1 1 14.2-14.2 14.2 14.2 0 0 1-14.2 14.2zM58 0a58 58 0 1 0 58 58A58 58 0 0 0 58 0zm0 109a50.763 50.763 0 0 1-31.334-10.776c3.3-10.231 7.15-15.59 16.959-20.081 0 0 7.931 2.638 14.256 2.339a91.949 91.949 0 0 0 14.143-2.263c9.828 4.229 12.188 10.322 16.716 20.471A50.768 50.768 0 0 1 58 109zm37.019-15.941c-5.071-11.156-11.075-20.415-23-22.53 0 0-8.432 2.367-14.375 2.367a45 45 0 0 1-14.019-2.556c-10.817 2.16-18.667 11.942-22.66 22.7a51 51 0 1 1 74.054.017z"/></symbol><symbol viewBox="0 0 25 25" id="viber" xmlns="http://www.w3.org/2000/svg"><path data-name="Path 800" d="M12.5 0A12.492 12.492 0 0 0 2.38 19.827L.822 24.47l4.8-1.536A12.5 12.5 0 1 0 12.5 0z" fill="#7d3daf"/><path data-name="Path 695" d="M16.18 18.833c-.252-.077-.493-.128-.716-.221a16.261 16.261 0 0 1-6.128-4.1 15.9 15.9 0 0 1-2.344-3.587c-.3-.611-.554-1.247-.813-1.878a1.629 1.629 0 0 1 .477-1.6 3.768 3.768 0 0 1 1.262-.948.81.81 0 0 1 1.013.24 13.069 13.069 0 0 1 1.568 2.194 1.044 1.044 0 0 1-.293 1.415c-.119.081-.227.175-.337.266a1.1 1.1 0 0 0-.255.268.735.735 0 0 0-.049.646 5.844 5.844 0 0 0 3.282 3.634 1.67 1.67 0 0 0 .841.2c.514-.06.681-.624 1.041-.919a.981.981 0 0 1 1.181-.052c.379.24.747.5 1.113.758a12.74 12.74 0 0 1 1.047.8.831.831 0 0 1 .249 1.028 3.477 3.477 0 0 1-1.494 1.646 3.6 3.6 0 0 1-.646.206c-.252-.072.22-.063.001.004z" fill="#fff"/><path data-name="Path 696" d="M13.291 5.723a5.7 5.7 0 0 1 5.608 4.717c.084.473.114.956.152 1.436a.337.337 0 0 1-.316.4c-.225 0-.326-.186-.341-.387-.029-.4-.049-.8-.1-1.2a5.017 5.017 0 0 0-4.04-4.193c-.313-.056-.634-.071-.951-.1-.2-.021-.463-.033-.508-.283a.343.343 0 0 1 .338-.386h.163c2.803.075-.059-.004-.005-.004z" fill="#fff"/><path data-name="Path 697" d="M17.552 11.258a1.287 1.287 0 0 1-.028.2.319.319 0 0 1-.6.033.849.849 0 0 1-.034-.271 3.4 3.4 0 0 0-.43-1.706 3.175 3.175 0 0 0-1.331-1.256 3.831 3.831 0 0 0-1.061-.326c-.16-.026-.322-.043-.482-.065a.306.306 0 0 1-.29-.343.3.3 0 0 1 .336-.3 4.414 4.414 0 0 1 1.84.479 3.72 3.72 0 0 1 2.025 2.891c.009.059.023.117.027.176.011.146.018.292.029.485-.005.041-.012-.186-.001.003z" fill="#fff"/><path data-name="Path 698" d="M15.803 11.197a.347.347 0 0 1-.385-.341 3.53 3.53 0 0 0-.066-.448 1.262 1.262 0 0 0-.466-.731 1.215 1.215 0 0 0-.379-.183c-.172-.05-.351-.036-.523-.078a.321.321 0 0 1-.261-.372.337.337 0 0 1 .356-.271 1.931 1.931 0 0 1 1.978 1.923.889.889 0 0 1 0 .272.279.279 0 0 1-.251.23c-.241.004.097-.007-.003-.001z" fill="#fff"/></symbol><symbol viewBox="0 0 25.003 25.003" id="whatsapp" xmlns="http://www.w3.org/2000/svg"><path data-name="Path 798" d="M12.5 0A12.494 12.494 0 0 0 2.38 19.829L.822 24.474l4.805-1.536A12.5 12.5 0 1 0 12.5 0z" fill="#23d366"/><path data-name="Path 801" d="M16.084 18.84c-.249-.076-.486-.126-.707-.218a16.057 16.057 0 0 1-6.051-4.044 15.7 15.7 0 0 1-2.314-3.542c-.3-.6-.547-1.231-.8-1.854a1.609 1.609 0 0 1 .471-1.584 3.721 3.721 0 0 1 1.246-.936.8.8 0 0 1 1 .237 12.9 12.9 0 0 1 1.548 2.167 1.031 1.031 0 0 1-.289 1.4c-.117.08-.224.173-.333.263a1.091 1.091 0 0 0-.251.265.726.726 0 0 0-.048.638 5.771 5.771 0 0 0 3.241 3.588 1.65 1.65 0 0 0 .831.2c.508-.059.672-.616 1.028-.907a.969.969 0 0 1 1.167-.051c.375.237.738.492 1.1.749a12.584 12.584 0 0 1 1.034.787.82.82 0 0 1 .246 1.015 3.433 3.433 0 0 1-1.475 1.625 3.56 3.56 0 0 1-.638.2c-.255-.074.21-.065-.006.002z" fill="#fff"/></symbol></svg>